<?xml version="1.0" encoding="us-ascii" standalone="no"?><svg xmlns="http://www.w3.org/2000/svg" xmlns:xlink="http://www.w3.org/1999/xlink" contentStyleType="text/css" height="1634px" preserveAspectRatio="none" style="width:1154px;height:1634px;background:#FFFFFF;" version="1.1" viewBox="0 0 1154 1634" width="1154px" zoomAndPan="magnify"><defs/><g><!--class CustomerShortInfo--><g id="elem_CustomerShortInfo"><rect codeLine="2" fill="#F1F1F1" height="364.5586" id="CustomerShortInfo" rx="2.5" ry="2.5" style="stroke:#181818;stroke-width:0.5;" width="328" x="413" y="7"/><ellipse cx="513.75" cy="23" fill="#ADD1B2" rx="11" ry="11" style="stroke:#181818;stroke-width:1.0;"/><path d="M516.5156,18.875 Q516.6719,18.6563 516.8594,18.5469 Q517.0469,18.4375 517.2656,18.4375 Q517.6406,18.4375 517.875,18.7031 Q518.1094,18.9531 518.1094,19.5625 L518.1094,21.0156 Q518.1094,21.625 517.875,21.8906 Q517.6406,22.1563 517.2656,22.1563 Q516.9219,22.1563 516.7188,21.9531 Q516.5156,21.7656 516.4063,21.25 Q516.3594,20.8906 516.1719,20.7031 Q515.8438,20.3281 515.2344,20.1094 Q514.625,19.8906 514,19.8906 Q513.2344,19.8906 512.5938,20.2188 Q511.9688,20.5469 511.4688,21.2969 Q510.9844,22.0469 510.9844,23.0781 L510.9844,24.1719 Q510.9844,25.4063 511.875,26.2344 Q512.7656,27.0469 514.3594,27.0469 Q515.2969,27.0469 515.9531,26.7969 Q516.3438,26.6406 516.7656,26.2031 Q517.0313,25.9375 517.1719,25.8594 Q517.3281,25.7813 517.5313,25.7813 Q517.8594,25.7813 518.1094,26.0469 Q518.375,26.2969 518.375,26.6406 Q518.375,26.9844 518.0313,27.3906 Q517.5313,27.9688 516.7344,28.2969 Q515.6563,28.75 514.3594,28.75 Q512.8438,28.75 511.6406,28.125 Q510.6563,27.625 509.9688,26.5625 Q509.2813,25.4844 509.2813,24.2031 L509.2813,23.0469 Q509.2813,21.7188 509.8906,20.5781 Q510.5156,19.4219 511.6094,18.8125 Q512.7031,18.1875 513.9375,18.1875 Q514.6719,18.1875 515.3125,18.3594 Q515.9688,18.5156 516.5156,18.875 Z " fill="#000000"/><text fill="#000000" font-family="sans-serif" font-size="14" lengthAdjust="spacing" textLength="118" x="534.25" y="28.7969">CustomerShortInfo</text><line style="stroke:#181818;stroke-width:0.5;" x1="414" x2="740" y1="39" y2="39"/><rect fill="none" height="6" style="stroke:#C82930;stroke-width:1.0;" width="6" x="421" y="50.8105"/><text fill="#000000" font-family="sans-serif" font-size="14" lengthAdjust="spacing" textLength="116" x="433" y="58.1074">__customer_id: int</text><rect fill="none" height="6" style="stroke:#C82930;stroke-width:1.0;" width="6" x="421" y="69.4316"/><text fill="#000000" font-family="sans-serif" font-size="14" lengthAdjust="spacing" textLength="125" x="433" y="76.7285">__first_name: string</text><rect fill="none" height="6" style="stroke:#C82930;stroke-width:1.0;" width="6" x="421" y="88.0527"/><text fill="#000000" font-family="sans-serif" font-size="14" lengthAdjust="spacing" textLength="124" x="433" y="95.3496">__last_name: string</text><rect fill="none" height="6" style="stroke:#C82930;stroke-width:1.0;" width="6" x="421" y="106.6738"/><text fill="#000000" font-family="sans-serif" font-size="14" lengthAdjust="spacing" textLength="92" x="433" y="113.9707">__email: string</text><line style="stroke:#181818;stroke-width:0.5;" x1="414" x2="740" y1="121.4844" y2="121.4844"/><ellipse cx="424" cy="136.2949" fill="#84BE84" rx="3" ry="3" style="stroke:#038048;stroke-width:1.0;"/><text fill="#000000" font-family="sans-serif" font-size="14" lengthAdjust="spacing" textLength="138" x="433" y="140.5918">get_customer_id(): int</text><ellipse cx="424" cy="154.916" fill="#84BE84" rx="3" ry="3" style="stroke:#038048;stroke-width:1.0;"/><text fill="#000000" font-family="sans-serif" font-size="14" lengthAdjust="spacing" textLength="147" x="433" y="159.2129">get_first_name(): string</text><ellipse cx="424" cy="173.5371" fill="#84BE84" rx="3" ry="3" style="stroke:#038048;stroke-width:1.0;"/><text fill="#000000" font-family="sans-serif" font-size="14" lengthAdjust="spacing" textLength="146" x="433" y="177.834">get_last_name(): string</text><ellipse cx="424" cy="192.1582" fill="#84BE84" rx="3" ry="3" style="stroke:#038048;stroke-width:1.0;"/><text fill="#000000" font-family="sans-serif" font-size="14" lengthAdjust="spacing" textLength="114" x="433" y="196.4551">get_email(): string</text><ellipse cx="424" cy="210.7793" fill="#84BE84" rx="3" ry="3" style="stroke:#038048;stroke-width:1.0;"/><text fill="#000000" font-family="sans-serif" font-size="14" lengthAdjust="spacing" textLength="246" x="433" y="215.0762">set_first_name(first_name: string): void</text><ellipse cx="424" cy="229.4004" fill="#84BE84" rx="3" ry="3" style="stroke:#038048;stroke-width:1.0;"/><text fill="#000000" font-family="sans-serif" font-size="14" lengthAdjust="spacing" textLength="244" x="433" y="233.6973">set_last_name(last_name: string): void</text><ellipse cx="424" cy="248.0215" fill="#84BE84" rx="3" ry="3" style="stroke:#038048;stroke-width:1.0;"/><text fill="#000000" font-family="sans-serif" font-size="14" lengthAdjust="spacing" textLength="180" x="433" y="252.3184">set_email(email: string): void</text><ellipse cx="424" cy="266.6426" fill="#84BE84" rx="3" ry="3" style="stroke:#038048;stroke-width:1.0;"/><text fill="#000000" font-family="sans-serif" font-size="14" lengthAdjust="spacing" textLength="252" x="433" y="270.9395">__eq__(other: CustomerShortInfo): bool</text><ellipse cx="424" cy="285.2637" fill="#84BE84" rx="3" ry="3" style="stroke:#038048;stroke-width:1.0;"/><text fill="#000000" font-family="sans-serif" font-size="14" lengthAdjust="spacing" textLength="101" x="433" y="289.5605">__str__(): string</text><ellipse cx="424" cy="303.8848" fill="#84BE84" rx="3" ry="3" style="stroke:#038048;stroke-width:1.0;"/><text fill="#000000" font-family="sans-serif" font-size="14" lengthAdjust="spacing" textLength="302" x="433" y="308.1816">from_string(data_str: string): CustomerShortInfo</text><rect fill="#F24D5C" height="6" style="stroke:#C82930;stroke-width:1.0;" width="6" x="421" y="319.5059"/><text fill="#000000" font-family="sans-serif" font-size="14" lengthAdjust="spacing" textLength="217" x="433" y="326.8027">__validate_id(customer_id: int): int</text><rect fill="#F24D5C" height="6" style="stroke:#C82930;stroke-width:1.0;" width="6" x="421" y="338.127"/><text fill="#000000" font-family="sans-serif" font-size="14" lengthAdjust="spacing" textLength="239" x="433" y="345.4238">__validate_name(name: string): string</text><rect fill="#F24D5C" height="6" style="stroke:#C82930;stroke-width:1.0;" width="6" x="421" y="356.748"/><text fill="#000000" font-family="sans-serif" font-size="14" lengthAdjust="spacing" textLength="235" x="433" y="364.0449">__validate_email(email: string): string</text></g><!--class Customer--><g id="elem_Customer"><rect codeLine="53" fill="#F1F1F1" height="755.6016" id="Customer" rx="2.5" ry="2.5" style="stroke:#181818;stroke-width:0.5;" width="462" x="346" y="432"/><ellipse cx="542.25" cy="448" fill="#ADD1B2" rx="11" ry="11" style="stroke:#181818;stroke-width:1.0;"/><path d="M545.0156,443.875 Q545.1719,443.6563 545.3594,443.5469 Q545.5469,443.4375 545.7656,443.4375 Q546.1406,443.4375 546.375,443.7031 Q546.6094,443.9531 546.6094,444.5625 L546.6094,446.0156 Q546.6094,446.625 546.375,446.8906 Q546.1406,447.1563 545.7656,447.1563 Q545.4219,447.1563 545.2188,446.9531 Q545.0156,446.7656 544.9063,446.25 Q544.8594,445.8906 544.6719,445.7031 Q544.3438,445.3281 543.7344,445.1094 Q543.125,444.8906 542.5,444.8906 Q541.7344,444.8906 541.0938,445.2188 Q540.4688,445.5469 539.9688,446.2969 Q539.4844,447.0469 539.4844,448.0781 L539.4844,449.1719 Q539.4844,450.4063 540.375,451.2344 Q541.2656,452.0469 542.8594,452.0469 Q543.7969,452.0469 544.4531,451.7969 Q544.8438,451.6406 545.2656,451.2031 Q545.5313,450.9375 545.6719,450.8594 Q545.8281,450.7813 546.0313,450.7813 Q546.3594,450.7813 546.6094,451.0469 Q546.875,451.2969 546.875,451.6406 Q546.875,451.9844 546.5313,452.3906 Q546.0313,452.9688 545.2344,453.2969 Q544.1563,453.75 542.8594,453.75 Q541.3438,453.75 540.1406,453.125 Q539.1563,452.625 538.4688,451.5625 Q537.7813,450.4844 537.7813,449.2031 L537.7813,448.0469 Q537.7813,446.7188 538.3906,445.5781 Q539.0156,444.4219 540.1094,443.8125 Q541.2031,443.1875 542.4375,443.1875 Q543.1719,443.1875 543.8125,443.3594 Q544.4688,443.5156 545.0156,443.875 Z " fill="#000000"/><text fill="#000000" font-family="sans-serif" font-size="14" lengthAdjust="spacing" textLength="61" x="562.75" y="453.7969">Customer</text><line style="stroke:#181818;stroke-width:0.5;" x1="347" x2="807" y1="464" y2="464"/><rect fill="none" height="6" style="stroke:#C82930;stroke-width:1.0;" width="6" x="354" y="475.8105"/><text fill="#000000" font-family="sans-serif" font-size="14" lengthAdjust="spacing" textLength="155" x="366" y="483.1074">__phone_number: string</text><rect fill="none" height="6" style="stroke:#C82930;stroke-width:1.0;" width="6" x="354" y="494.4316"/><text fill="#000000" font-family="sans-serif" font-size="14" lengthAdjust="spacing" textLength="110" x="366" y="501.7285">__address: string</text><rect fill="none" height="6" style="stroke:#C82930;stroke-width:1.0;" width="6" x="354" y="513.0527"/><text fill="#000000" font-family="sans-serif" font-size="14" lengthAdjust="spacing" textLength="80" x="366" y="520.3496">__city: string</text><rect fill="none" height="6" style="stroke:#C82930;stroke-width:1.0;" width="6" x="354" y="531.6738"/><text fill="#000000" font-family="sans-serif" font-size="14" lengthAdjust="spacing" textLength="116" x="366" y="538.9707">__postal_code: int</text><rect fill="none" height="6" style="stroke:#C82930;stroke-width:1.0;" width="6" x="354" y="550.2949"/><text fill="#000000" font-family="sans-serif" font-size="14" lengthAdjust="spacing" textLength="106" x="366" y="557.5918">__country: string</text><rect fill="none" height="6" style="stroke:#C82930;stroke-width:1.0;" width="6" x="354" y="568.916"/><text fill="#000000" font-family="sans-serif" font-size="14" lengthAdjust="spacing" textLength="152" x="366" y="576.2129">__date_joined: datetime</text><rect fill="none" height="6" style="stroke:#C82930;stroke-width:1.0;" width="6" x="354" y="587.5371"/><text fill="#000000" font-family="sans-serif" font-size="14" lengthAdjust="spacing" textLength="100" x="366" y="594.834">customer_id: int</text><rect fill="none" height="6" style="stroke:#C82930;stroke-width:1.0;" width="6" x="354" y="606.1582"/><text fill="#000000" font-family="sans-serif" font-size="14" lengthAdjust="spacing" textLength="109" x="366" y="613.4551">first_name: string</text><rect fill="none" height="6" style="stroke:#C82930;stroke-width:1.0;" width="6" x="354" y="624.7793"/><text fill="#000000" font-family="sans-serif" font-size="14" lengthAdjust="spacing" textLength="108" x="366" y="632.0762">last_name: string</text><rect fill="none" height="6" style="stroke:#C82930;stroke-width:1.0;" width="6" x="354" y="643.4004"/><text fill="#000000" font-family="sans-serif" font-size="14" lengthAdjust="spacing" textLength="76" x="366" y="650.6973">email: string</text><rect fill="none" height="6" style="stroke:#C82930;stroke-width:1.0;" width="6" x="354" y="662.0215"/><text fill="#000000" font-family="sans-serif" font-size="14" lengthAdjust="spacing" textLength="139" x="366" y="669.3184">phone_number: string</text><rect fill="none" height="6" style="stroke:#C82930;stroke-width:1.0;" width="6" x="354" y="680.6426"/><text fill="#000000" font-family="sans-serif" font-size="14" lengthAdjust="spacing" textLength="94" x="366" y="687.9395">address: string</text><rect fill="none" height="6" style="stroke:#C82930;stroke-width:1.0;" width="6" x="354" y="699.2637"/><text fill="#000000" font-family="sans-serif" font-size="14" lengthAdjust="spacing" textLength="64" x="366" y="706.5605">city: string</text><rect fill="none" height="6" style="stroke:#C82930;stroke-width:1.0;" width="6" x="354" y="717.8848"/><text fill="#000000" font-family="sans-serif" font-size="14" lengthAdjust="spacing" textLength="100" x="366" y="725.1816">postal_code: int</text><rect fill="none" height="6" style="stroke:#C82930;stroke-width:1.0;" width="6" x="354" y="736.5059"/><text fill="#000000" font-family="sans-serif" font-size="14" lengthAdjust="spacing" textLength="90" x="366" y="743.8027">country: string</text><rect fill="none" height="6" style="stroke:#C82930;stroke-width:1.0;" width="6" x="354" y="755.127"/><text fill="#000000" font-family="sans-serif" font-size="14" lengthAdjust="spacing" textLength="136" x="366" y="762.4238">date_joined: datetime</text><line style="stroke:#181818;stroke-width:0.5;" x1="347" x2="807" y1="769.9375" y2="769.9375"/><ellipse cx="357" cy="784.748" fill="#84BE84" rx="3" ry="3" style="stroke:#038048;stroke-width:1.0;"/><text fill="#000000" font-family="sans-serif" font-size="14" lengthAdjust="spacing" textLength="177" x="366" y="789.0449">get_phone_number(): string</text><ellipse cx="357" cy="803.3691" fill="#84BE84" rx="3" ry="3" style="stroke:#038048;stroke-width:1.0;"/><text fill="#000000" font-family="sans-serif" font-size="14" lengthAdjust="spacing" textLength="132" x="366" y="807.666">get_address(): string</text><ellipse cx="357" cy="821.9902" fill="#84BE84" rx="3" ry="3" style="stroke:#038048;stroke-width:1.0;"/><text fill="#000000" font-family="sans-serif" font-size="14" lengthAdjust="spacing" textLength="102" x="366" y="826.2871">get_city(): string</text><ellipse cx="357" cy="840.6113" fill="#84BE84" rx="3" ry="3" style="stroke:#038048;stroke-width:1.0;"/><text fill="#000000" font-family="sans-serif" font-size="14" lengthAdjust="spacing" textLength="138" x="366" y="844.9082">get_postal_code(): int</text><ellipse cx="357" cy="859.2324" fill="#84BE84" rx="3" ry="3" style="stroke:#038048;stroke-width:1.0;"/><text fill="#000000" font-family="sans-serif" font-size="14" lengthAdjust="spacing" textLength="128" x="366" y="863.5293">get_country(): string</text><ellipse cx="357" cy="877.8535" fill="#84BE84" rx="3" ry="3" style="stroke:#038048;stroke-width:1.0;"/><text fill="#000000" font-family="sans-serif" font-size="14" lengthAdjust="spacing" textLength="174" x="366" y="882.1504">get_date_joined(): datetime</text><ellipse cx="357" cy="896.4746" fill="#84BE84" rx="3" ry="3" style="stroke:#038048;stroke-width:1.0;"/><text fill="#000000" font-family="sans-serif" font-size="14" lengthAdjust="spacing" textLength="306" x="366" y="900.7715">set_phone_number(phone_number: string): void</text><ellipse cx="357" cy="915.0957" fill="#84BE84" rx="3" ry="3" style="stroke:#038048;stroke-width:1.0;"/><text fill="#000000" font-family="sans-serif" font-size="14" lengthAdjust="spacing" textLength="216" x="366" y="919.3926">set_address(address: string): void</text><ellipse cx="357" cy="933.7168" fill="#84BE84" rx="3" ry="3" style="stroke:#038048;stroke-width:1.0;"/><text fill="#000000" font-family="sans-serif" font-size="14" lengthAdjust="spacing" textLength="156" x="366" y="938.0137">set_city(city: string): void</text><ellipse cx="357" cy="952.3379" fill="#84BE84" rx="3" ry="3" style="stroke:#038048;stroke-width:1.0;"/><text fill="#000000" font-family="sans-serif" font-size="14" lengthAdjust="spacing" textLength="248" x="366" y="956.6348">set_postal_code(postal_code: int): void</text><ellipse cx="357" cy="970.959" fill="#84BE84" rx="3" ry="3" style="stroke:#038048;stroke-width:1.0;"/><text fill="#000000" font-family="sans-serif" font-size="14" lengthAdjust="spacing" textLength="208" x="366" y="975.2559">set_country(country: string): void</text><ellipse cx="357" cy="989.5801" fill="#84BE84" rx="3" ry="3" style="stroke:#038048;stroke-width:1.0;"/><text fill="#000000" font-family="sans-serif" font-size="14" lengthAdjust="spacing" textLength="281" x="366" y="993.877">set_date_joined(date_joined: datetime): void</text><ellipse cx="357" cy="1008.2012" fill="#84BE84" rx="3" ry="3" style="stroke:#038048;stroke-width:1.0;"/><text fill="#000000" font-family="sans-serif" font-size="14" lengthAdjust="spacing" textLength="116" x="366" y="1012.498">short_info(): string</text><ellipse cx="357" cy="1026.8223" fill="#84BE84" rx="3" ry="3" style="stroke:#038048;stroke-width:1.0;"/><text fill="#000000" font-family="sans-serif" font-size="14" lengthAdjust="spacing" textLength="195" x="366" y="1031.1191">__eq__(other: Customer): bool</text><ellipse cx="357" cy="1045.4434" fill="#84BE84" rx="3" ry="3" style="stroke:#038048;stroke-width:1.0;"/><text fill="#000000" font-family="sans-serif" font-size="14" lengthAdjust="spacing" textLength="101" x="366" y="1049.7402">__str__(): string</text><ellipse cx="357" cy="1064.0645" fill="#84BE84" rx="3" ry="3" style="stroke:#038048;stroke-width:1.0;"/><text fill="#000000" font-family="sans-serif" font-size="14" lengthAdjust="spacing" textLength="245" x="366" y="1068.3613">from_string(data_str: string): Customer</text><rect fill="#F24D5C" height="6" style="stroke:#C82930;stroke-width:1.0;" width="6" x="354" y="1079.6855"/><text fill="#000000" font-family="sans-serif" font-size="14" lengthAdjust="spacing" textLength="361" x="366" y="1086.9824">__validate_phone_number(phone_number: string): string</text><rect fill="#F24D5C" height="6" style="stroke:#C82930;stroke-width:1.0;" width="6" x="354" y="1098.3066"/><text fill="#000000" font-family="sans-serif" font-size="14" lengthAdjust="spacing" textLength="436" x="366" y="1105.6035">__validate_non_empty_string(value: string, field_name: string): string</text><rect fill="#F24D5C" height="6" style="stroke:#C82930;stroke-width:1.0;" width="6" x="354" y="1116.9277"/><text fill="#000000" font-family="sans-serif" font-size="14" lengthAdjust="spacing" textLength="283" x="366" y="1124.2246">__validate_postal_code(postal_code: int): int</text><rect fill="#F24D5C" height="6" style="stroke:#C82930;stroke-width:1.0;" width="6" x="354" y="1135.5488"/><text fill="#000000" font-family="sans-serif" font-size="14" lengthAdjust="spacing" textLength="401" x="366" y="1142.8457">__validate_date_joined(date_joined: string | datetime): datetime</text><ellipse cx="357" cy="1157.1699" fill="#84BE84" rx="3" ry="3" style="stroke:#038048;stroke-width:1.0;"/><text fill="#000000" font-family="sans-serif" font-size="14" lengthAdjust="spacing" textLength="82" x="366" y="1161.4668">to_dict(): dict</text><ellipse cx="357" cy="1175.791" fill="#84BE84" rx="3" ry="3" style="stroke:#038048;stroke-width:1.0;"/><text fill="#000000" font-family="sans-serif" font-size="14" lengthAdjust="spacing" textLength="195" x="366" y="1180.0879">from_dict(data: dict): Customer</text></g><!--class CustomerRepositoryBase--><g id="elem_CustomerRepositoryBase"><rect codeLine="68" fill="#F1F1F1" height="234.2109" id="CustomerRepositoryBase" rx="2.5" ry="2.5" style="stroke:#181818;stroke-width:0.5;" width="1140" x="7" y="1248"/><ellipse cx="492.25" cy="1264" fill="#A9DCDF" rx="11" ry="11" style="stroke:#181818;stroke-width:1.0;"/><path d="M494.4375,1265.7656 L490.2969,1265.7656 L489.875,1266.7969 L490.2969,1266.7969 Q490.9063,1266.7969 491.1719,1267.0313 Q491.4375,1267.2656 491.4375,1267.6563 Q491.4375,1268.0313 491.1719,1268.2656 Q490.9063,1268.5 490.2969,1268.5 L488,1268.5 Q487.3906,1268.5 487.1406,1268.2656 Q486.875,1268.0313 486.875,1267.6406 Q486.875,1267.2656 487.1563,1267.0313 Q487.4219,1266.7813 488.0469,1266.7969 L490.7188,1260.1406 L489.6094,1260.1406 Q489,1260.1406 488.7344,1259.9063 Q488.4688,1259.6719 488.4688,1259.2813 Q488.4688,1258.9063 488.7344,1258.6719 Q489,1258.4375 489.6094,1258.4375 L493.2813,1258.4375 L496.6719,1266.7969 Q497.2656,1266.7969 497.4531,1266.9375 Q497.8438,1267.2031 497.8438,1267.6563 Q497.8438,1268.0313 497.5781,1268.2656 Q497.3281,1268.5 496.7188,1268.5 L494.4219,1268.5 Q493.8125,1268.5 493.5469,1268.2656 Q493.2813,1268.0313 493.2813,1267.6406 Q493.2813,1267.2656 493.5469,1267.0313 Q493.8125,1266.7969 494.4219,1266.7969 L494.8438,1266.7969 L494.4375,1265.7656 Z M493.7188,1264.0625 L492.3594,1260.6875 L490.9844,1264.0625 L493.7188,1264.0625 Z " fill="#000000"/><text fill="#000000" font-family="sans-serif" font-size="14" font-style="italic" lengthAdjust="spacing" textLength="161" x="512.75" y="1269.7969">CustomerRepositoryBase</text><line style="stroke:#181818;stroke-width:0.5;" x1="8" x2="1146" y1="1280" y2="1280"/><rect fill="none" height="6" style="stroke:#C82930;stroke-width:1.0;" width="6" x="15" y="1291.8105"/><text fill="#000000" font-family="sans-serif" font-size="14" lengthAdjust="spacing" textLength="96" x="27" y="1299.1074">filename: string</text><rect fill="none" height="6" style="stroke:#C82930;stroke-width:1.0;" width="6" x="15" y="1310.4316"/><text fill="#000000" font-family="sans-serif" font-size="14" lengthAdjust="spacing" textLength="159" x="27" y="1317.7285">customers: list[Customer]</text><line style="stroke:#181818;stroke-width:0.5;" x1="8" x2="1146" y1="1325.2422" y2="1325.2422"/><ellipse cx="18" cy="1340.0527" fill="#84BE84" rx="3" ry="3" style="stroke:#038048;stroke-width:1.0;"/><text fill="#000000" font-family="sans-serif" font-size="14" lengthAdjust="spacing" textLength="241" x="27" y="1344.3496">get_by_id(customer_id: int): Customer</text><ellipse cx="18" cy="1358.6738" fill="#84BE84" rx="3" ry="3" style="stroke:#038048;stroke-width:1.0;"/><text fill="#000000" font-family="sans-serif" font-size="14" lengthAdjust="spacing" textLength="1114" x="27" y="1362.9707">add_customer(first_name: string, last_name: string, email: string, phone_number: string, address: string, city: string, postal_code: int, country: string, date_joined: datetime): void</text><ellipse cx="18" cy="1377.2949" fill="#84BE84" rx="3" ry="3" style="stroke:#038048;stroke-width:1.0;"/><text fill="#000000" font-family="sans-serif" font-size="14" lengthAdjust="spacing" textLength="402" x="27" y="1381.5918">replace_by_id(customer_id: int, new_customer: Customer): bool</text><ellipse cx="18" cy="1395.916" fill="#84BE84" rx="3" ry="3" style="stroke:#038048;stroke-width:1.0;"/><text fill="#000000" font-family="sans-serif" font-size="14" lengthAdjust="spacing" textLength="225" x="27" y="1400.2129">delete_by_id(customer_id: int): void</text><ellipse cx="18" cy="1414.5371" fill="#84BE84" rx="3" ry="3" style="stroke:#038048;stroke-width:1.0;"/><text fill="#000000" font-family="sans-serif" font-size="14" lengthAdjust="spacing" textLength="96" x="27" y="1418.834">get_count(): int</text><ellipse cx="18" cy="1433.1582" fill="#84BE84" rx="3" ry="3" style="stroke:#038048;stroke-width:1.0;"/><text fill="#000000" font-family="sans-serif" font-size="14" lengthAdjust="spacing" textLength="387" x="27" y="1437.4551">__is_unique(email: string, unverifiable_customer_id: int): bool</text><ellipse cx="18" cy="1451.7793" fill="#84BE84" rx="3" ry="3" style="stroke:#038048;stroke-width:1.0;"/><text fill="#000000" font-family="sans-serif" font-size="14" lengthAdjust="spacing" textLength="226" x="27" y="1456.0762">read_all(): list[Customer] &#171;abstract&#187;</text><ellipse cx="18" cy="1470.4004" fill="#84BE84" rx="3" ry="3" style="stroke:#038048;stroke-width:1.0;"/><text fill="#000000" font-family="sans-serif" font-size="14" lengthAdjust="spacing" textLength="167" x="27" y="1474.6973">save_all(): void &#171;abstract&#187;</text></g><!--class CustomerRepJson--><g id="elem_CustomerRepJson"><rect codeLine="81" fill="#F1F1F1" height="85.2422" id="CustomerRepJson" rx="2.5" ry="2.5" style="stroke:#181818;stroke-width:0.5;" width="181" x="378.5" y="1542"/><ellipse cx="408.35" cy="1558" fill="#ADD1B2" rx="11" ry="11" style="stroke:#181818;stroke-width:1.0;"/><path d="M411.1156,1553.875 Q411.2719,1553.6563 411.4594,1553.5469 Q411.6469,1553.4375 411.8656,1553.4375 Q412.2406,1553.4375 412.475,1553.7031 Q412.7094,1553.9531 412.7094,1554.5625 L412.7094,1556.0156 Q412.7094,1556.625 412.475,1556.8906 Q412.2406,1557.1563 411.8656,1557.1563 Q411.5219,1557.1563 411.3188,1556.9531 Q411.1156,1556.7656 411.0063,1556.25 Q410.9594,1555.8906 410.7719,1555.7031 Q410.4438,1555.3281 409.8344,1555.1094 Q409.225,1554.8906 408.6,1554.8906 Q407.8344,1554.8906 407.1938,1555.2188 Q406.5688,1555.5469 406.0688,1556.2969 Q405.5844,1557.0469 405.5844,1558.0781 L405.5844,1559.1719 Q405.5844,1560.4063 406.475,1561.2344 Q407.3656,1562.0469 408.9594,1562.0469 Q409.8969,1562.0469 410.5531,1561.7969 Q410.9438,1561.6406 411.3656,1561.2031 Q411.6313,1560.9375 411.7719,1560.8594 Q411.9281,1560.7813 412.1313,1560.7813 Q412.4594,1560.7813 412.7094,1561.0469 Q412.975,1561.2969 412.975,1561.6406 Q412.975,1561.9844 412.6313,1562.3906 Q412.1313,1562.9688 411.3344,1563.2969 Q410.2563,1563.75 408.9594,1563.75 Q407.4438,1563.75 406.2406,1563.125 Q405.2563,1562.625 404.5688,1561.5625 Q403.8813,1560.4844 403.8813,1559.2031 L403.8813,1558.0469 Q403.8813,1556.7188 404.4906,1555.5781 Q405.1156,1554.4219 406.2094,1553.8125 Q407.3031,1553.1875 408.5375,1553.1875 Q409.2719,1553.1875 409.9125,1553.3594 Q410.5688,1553.5156 411.1156,1553.875 Z " fill="#000000"/><text fill="#000000" font-family="sans-serif" font-size="14" lengthAdjust="spacing" textLength="116" x="425.65" y="1563.7969">CustomerRepJson</text><line style="stroke:#181818;stroke-width:0.5;" x1="379.5" x2="558.5" y1="1574" y2="1574"/><line style="stroke:#181818;stroke-width:0.5;" x1="379.5" x2="558.5" y1="1582" y2="1582"/><ellipse cx="389.5" cy="1596.8105" fill="#84BE84" rx="3" ry="3" style="stroke:#038048;stroke-width:1.0;"/><text fill="#000000" font-family="sans-serif" font-size="14" lengthAdjust="spacing" textLength="155" x="398.5" y="1601.1074">read_all(): list[Customer]</text><ellipse cx="389.5" cy="1615.4316" fill="#84BE84" rx="3" ry="3" style="stroke:#038048;stroke-width:1.0;"/><text fill="#000000" font-family="sans-serif" font-size="14" lengthAdjust="spacing" textLength="96" x="398.5" y="1619.7285">save_all(): void</text></g><!--class CustomerRepYaml--><g id="elem_CustomerRepYaml"><rect codeLine="86" fill="#F1F1F1" height="85.2422" id="CustomerRepYaml" rx="2.5" ry="2.5" style="stroke:#181818;stroke-width:0.5;" width="181" x="594.5" y="1542"/><ellipse cx="623.45" cy="1558" fill="#ADD1B2" rx="11" ry="11" style="stroke:#181818;stroke-width:1.0;"/><path d="M626.2156,1553.875 Q626.3719,1553.6563 626.5594,1553.5469 Q626.7469,1553.4375 626.9656,1553.4375 Q627.3406,1553.4375 627.575,1553.7031 Q627.8094,1553.9531 627.8094,1554.5625 L627.8094,1556.0156 Q627.8094,1556.625 627.575,1556.8906 Q627.3406,1557.1563 626.9656,1557.1563 Q626.6219,1557.1563 626.4188,1556.9531 Q626.2156,1556.7656 626.1063,1556.25 Q626.0594,1555.8906 625.8719,1555.7031 Q625.5438,1555.3281 624.9344,1555.1094 Q624.325,1554.8906 623.7,1554.8906 Q622.9344,1554.8906 622.2938,1555.2188 Q621.6688,1555.5469 621.1688,1556.2969 Q620.6844,1557.0469 620.6844,1558.0781 L620.6844,1559.1719 Q620.6844,1560.4063 621.575,1561.2344 Q622.4656,1562.0469 624.0594,1562.0469 Q624.9969,1562.0469 625.6531,1561.7969 Q626.0438,1561.6406 626.4656,1561.2031 Q626.7313,1560.9375 626.8719,1560.8594 Q627.0281,1560.7813 627.2313,1560.7813 Q627.5594,1560.7813 627.8094,1561.0469 Q628.075,1561.2969 628.075,1561.6406 Q628.075,1561.9844 627.7313,1562.3906 Q627.2313,1562.9688 626.4344,1563.2969 Q625.3563,1563.75 624.0594,1563.75 Q622.5438,1563.75 621.3406,1563.125 Q620.3563,1562.625 619.6688,1561.5625 Q618.9813,1560.4844 618.9813,1559.2031 L618.9813,1558.0469 Q618.9813,1556.7188 619.5906,1555.5781 Q620.2156,1554.4219 621.3094,1553.8125 Q622.4031,1553.1875 623.6375,1553.1875 Q624.3719,1553.1875 625.0125,1553.3594 Q625.6688,1553.5156 626.2156,1553.875 Z " fill="#000000"/><text fill="#000000" font-family="sans-serif" font-size="14" lengthAdjust="spacing" textLength="118" x="640.55" y="1563.7969">CustomerRepYaml</text><line style="stroke:#181818;stroke-width:0.5;" x1="595.5" x2="774.5" y1="1574" y2="1574"/><line style="stroke:#181818;stroke-width:0.5;" x1="595.5" x2="774.5" y1="1582" y2="1582"/><ellipse cx="605.5" cy="1596.8105" fill="#84BE84" rx="3" ry="3" style="stroke:#038048;stroke-width:1.0;"/><text fill="#000000" font-family="sans-serif" font-size="14" lengthAdjust="spacing" textLength="155" x="614.5" y="1601.1074">read_all(): list[Customer]</text><ellipse cx="605.5" cy="1615.4316" fill="#84BE84" rx="3" ry="3" style="stroke:#038048;stroke-width:1.0;"/><text fill="#000000" font-family="sans-serif" font-size="14" lengthAdjust="spacing" textLength="96" x="614.5" y="1619.7285">save_all(): void</text></g><!--reverse link CustomerShortInfo to Customer--><g id="link_CustomerShortInfo_Customer"><path codeLine="51" d="M577,390.31 C577,409.46 577,411.41 577,431.77 " fill="none" id="CustomerShortInfo-backto-Customer" style="stroke:#181818;stroke-width:1.0;"/><polygon fill="none" points="577,372.31,571,390.31,583,390.31,577,372.31" style="stroke:#181818;stroke-width:1.0;"/></g><!--reverse link CustomerRepositoryBase to CustomerRepJson--><g id="link_CustomerRepositoryBase_CustomerRepJson"><path codeLine="91" d="M511.3583,1498.1937 C500.7083,1519.6537 498.24,1524.61 489.63,1541.94 " fill="none" id="CustomerRepositoryBase-backto-CustomerRepJson" style="stroke:#181818;stroke-width:1.0;"/><polygon fill="none" points="519.36,1482.07,505.9837,1495.5264,516.7328,1500.8609,519.36,1482.07" style="stroke:#181818;stroke-width:1.0;"/></g><!--reverse link CustomerRepositoryBase to CustomerRepYaml--><g id="link_CustomerRepositoryBase_CustomerRepYaml"><path codeLine="92" d="M642.6417,1498.1937 C653.2917,1519.6537 655.76,1524.61 664.37,1541.94 " fill="none" id="CustomerRepositoryBase-backto-CustomerRepYaml" style="stroke:#181818;stroke-width:1.0;"/><polygon fill="none" points="634.64,1482.07,637.2672,1500.8609,648.0163,1495.5264,634.64,1482.07" style="stroke:#181818;stroke-width:1.0;"/></g><!--reverse link Customer to CustomerRepositoryBase--><g id="link_Customer_CustomerRepositoryBase"><path codeLine="93" d="M577,1200.27 C577,1221.23 577,1229.29 577,1247.88 " fill="none" id="Customer-backto-CustomerRepositoryBase" style="stroke:#181818;stroke-width:1.0;"/><polygon fill="#181818" points="577,1188.27,573,1194.27,577,1200.27,581,1194.27,577,1188.27" style="stroke:#181818;stroke-width:1.0;"/><text fill="#000000" font-family="sans-serif" font-size="13" lengthAdjust="spacing" textLength="7" x="569.9289" y="1210.1616">1</text><text fill="#000000" font-family="sans-serif" font-size="13" lengthAdjust="spacing" textLength="32" x="543.975" y="1236.8634">many</text></g><!--SRC=[hLOzRzim4DtzAmXFJYCFNGqZGpirOpeLHK7GqYbcGP4EIRamclxtKbyqUJebHj79Dk_nFjwzExfKmZdskNNUD62_7etrNtHjsEyLOrl6UJbQkAnsJ6e_7jVIEi-rQ637dBTIFu-6u8uyXqP8bPpTisVmgVVDtUH_C5qZT1PqBqOXR7qaTEvoX_Fi0_niP1N1rm2pWZ1qY9VLbq92wI-SRum_WjtDYGxGWp5gX8Rh0PldNblJyE7tfX9UTD-JG3EF8-5deMI0GqSjRk9Tsie8xCj5bMOzZ4Ywv17xPxKgCr55BPsEHeSmRNC0YroBghBW73ejfR-WevDnNYXUcWhI8ahJQcynk4_sfv4QGjtT3oyRY499qo5qDAP4MBgqYECaDIpcCJtYKf9YPysIT3X9Ya0inobjn2Y6zJMa_690MWqcVUPiB0zr0SFIMidMP1SwFNCP18rOemVglyqHrlej3Q2dH1iT9kNaBrFKO6dZS1Mibg0gVjF0lTCCOfWNkHu2iDUKzAYwCBlpfs3_kjrUwQ67ctmc5Xu9-ed03yIMBQuBQbdCLWMvAAWriRmalE6LB7q_b-7pggB-jDFGO4ZL4nWKX-1Tb9xbJ3r1I4bwOo-VX8EHjregc54naHagLDBvxvE77t5h72uBQprHyNt7KtnXYJUlc7UYoDjGa3qeS0EAZFrYHds1UI_Ok-DluQH42GkL5ap3hrWRlGKgKE1XcQeOAYxeT6jpBXrljNnfOOCuQVKPhAobE2ZWXEEOWGLHSQ7wFoDv8zb-FwdauM5OT-8C4xRBB4VCtjGWfaTdTA-YjmAHlabttqIZ_jtTWiYprJ7cV2ksIoXYsVhZcdq8W7KZz6MzC5Ihlm00]--></g></svg>