<?xml version="1.0" encoding="us-ascii" standalone="no"?><svg xmlns="http://www.w3.org/2000/svg" xmlns:xlink="http://www.w3.org/1999/xlink" contentStyleType="text/css" height="2035px" preserveAspectRatio="none" style="width:1157px;height:2035px;background:#FFFFFF;" version="1.1" viewBox="0 0 1157 2035" width="1157px" zoomAndPan="magnify"><defs/><g><!--class CustomerShortInfo--><g id="elem_CustomerShortInfo"><rect codeLine="2" fill="#F1F1F1" height="364.5586" id="CustomerShortInfo" rx="2.5" ry="2.5" style="stroke:#181818;stroke-width:0.5;" width="328" x="413" y="7"/><ellipse cx="513.75" cy="23" fill="#ADD1B2" rx="11" ry="11" style="stroke:#181818;stroke-width:1.0;"/><path d="M516.5156,18.875 Q516.6719,18.6563 516.8594,18.5469 Q517.0469,18.4375 517.2656,18.4375 Q517.6406,18.4375 517.875,18.7031 Q518.1094,18.9531 518.1094,19.5625 L518.1094,21.0156 Q518.1094,21.625 517.875,21.8906 Q517.6406,22.1563 517.2656,22.1563 Q516.9219,22.1563 516.7188,21.9531 Q516.5156,21.7656 516.4063,21.25 Q516.3594,20.8906 516.1719,20.7031 Q515.8438,20.3281 515.2344,20.1094 Q514.625,19.8906 514,19.8906 Q513.2344,19.8906 512.5938,20.2188 Q511.9688,20.5469 511.4688,21.2969 Q510.9844,22.0469 510.9844,23.0781 L510.9844,24.1719 Q510.9844,25.4063 511.875,26.2344 Q512.7656,27.0469 514.3594,27.0469 Q515.2969,27.0469 515.9531,26.7969 Q516.3438,26.6406 516.7656,26.2031 Q517.0313,25.9375 517.1719,25.8594 Q517.3281,25.7813 517.5313,25.7813 Q517.8594,25.7813 518.1094,26.0469 Q518.375,26.2969 518.375,26.6406 Q518.375,26.9844 518.0313,27.3906 Q517.5313,27.9688 516.7344,28.2969 Q515.6563,28.75 514.3594,28.75 Q512.8438,28.75 511.6406,28.125 Q510.6563,27.625 509.9688,26.5625 Q509.2813,25.4844 509.2813,24.2031 L509.2813,23.0469 Q509.2813,21.7188 509.8906,20.5781 Q510.5156,19.4219 511.6094,18.8125 Q512.7031,18.1875 513.9375,18.1875 Q514.6719,18.1875 515.3125,18.3594 Q515.9688,18.5156 516.5156,18.875 Z " fill="#000000"/><text fill="#000000" font-family="sans-serif" font-size="14" lengthAdjust="spacing" textLength="118" x="534.25" y="28.7969">CustomerShortInfo</text><line style="stroke:#181818;stroke-width:0.5;" x1="414" x2="740" y1="39" y2="39"/><rect fill="none" height="6" style="stroke:#C82930;stroke-width:1.0;" width="6" x="421" y="50.8105"/><text fill="#000000" font-family="sans-serif" font-size="14" lengthAdjust="spacing" textLength="116" x="433" y="58.1074">__customer_id: int</text><rect fill="none" height="6" style="stroke:#C82930;stroke-width:1.0;" width="6" x="421" y="69.4316"/><text fill="#000000" font-family="sans-serif" font-size="14" lengthAdjust="spacing" textLength="125" x="433" y="76.7285">__first_name: string</text><rect fill="none" height="6" style="stroke:#C82930;stroke-width:1.0;" width="6" x="421" y="88.0527"/><text fill="#000000" font-family="sans-serif" font-size="14" lengthAdjust="spacing" textLength="124" x="433" y="95.3496">__last_name: string</text><rect fill="none" height="6" style="stroke:#C82930;stroke-width:1.0;" width="6" x="421" y="106.6738"/><text fill="#000000" font-family="sans-serif" font-size="14" lengthAdjust="spacing" textLength="92" x="433" y="113.9707">__email: string</text><line style="stroke:#181818;stroke-width:0.5;" x1="414" x2="740" y1="121.4844" y2="121.4844"/><ellipse cx="424" cy="136.2949" fill="#84BE84" rx="3" ry="3" style="stroke:#038048;stroke-width:1.0;"/><text fill="#000000" font-family="sans-serif" font-size="14" lengthAdjust="spacing" textLength="138" x="433" y="140.5918">get_customer_id(): int</text><ellipse cx="424" cy="154.916" fill="#84BE84" rx="3" ry="3" style="stroke:#038048;stroke-width:1.0;"/><text fill="#000000" font-family="sans-serif" font-size="14" lengthAdjust="spacing" textLength="147" x="433" y="159.2129">get_first_name(): string</text><ellipse cx="424" cy="173.5371" fill="#84BE84" rx="3" ry="3" style="stroke:#038048;stroke-width:1.0;"/><text fill="#000000" font-family="sans-serif" font-size="14" lengthAdjust="spacing" textLength="146" x="433" y="177.834">get_last_name(): string</text><ellipse cx="424" cy="192.1582" fill="#84BE84" rx="3" ry="3" style="stroke:#038048;stroke-width:1.0;"/><text fill="#000000" font-family="sans-serif" font-size="14" lengthAdjust="spacing" textLength="114" x="433" y="196.4551">get_email(): string</text><ellipse cx="424" cy="210.7793" fill="#84BE84" rx="3" ry="3" style="stroke:#038048;stroke-width:1.0;"/><text fill="#000000" font-family="sans-serif" font-size="14" lengthAdjust="spacing" textLength="246" x="433" y="215.0762">set_first_name(first_name: string): void</text><ellipse cx="424" cy="229.4004" fill="#84BE84" rx="3" ry="3" style="stroke:#038048;stroke-width:1.0;"/><text fill="#000000" font-family="sans-serif" font-size="14" lengthAdjust="spacing" textLength="244" x="433" y="233.6973">set_last_name(last_name: string): void</text><ellipse cx="424" cy="248.0215" fill="#84BE84" rx="3" ry="3" style="stroke:#038048;stroke-width:1.0;"/><text fill="#000000" font-family="sans-serif" font-size="14" lengthAdjust="spacing" textLength="180" x="433" y="252.3184">set_email(email: string): void</text><ellipse cx="424" cy="266.6426" fill="#84BE84" rx="3" ry="3" style="stroke:#038048;stroke-width:1.0;"/><text fill="#000000" font-family="sans-serif" font-size="14" lengthAdjust="spacing" textLength="252" x="433" y="270.9395">__eq__(other: CustomerShortInfo): bool</text><ellipse cx="424" cy="285.2637" fill="#84BE84" rx="3" ry="3" style="stroke:#038048;stroke-width:1.0;"/><text fill="#000000" font-family="sans-serif" font-size="14" lengthAdjust="spacing" textLength="101" x="433" y="289.5605">__str__(): string</text><ellipse cx="424" cy="303.8848" fill="#84BE84" rx="3" ry="3" style="stroke:#038048;stroke-width:1.0;"/><text fill="#000000" font-family="sans-serif" font-size="14" lengthAdjust="spacing" textLength="302" x="433" y="308.1816">from_string(data_str: string): CustomerShortInfo</text><rect fill="#F24D5C" height="6" style="stroke:#C82930;stroke-width:1.0;" width="6" x="421" y="319.5059"/><text fill="#000000" font-family="sans-serif" font-size="14" lengthAdjust="spacing" textLength="217" x="433" y="326.8027">__validate_id(customer_id: int): int</text><rect fill="#F24D5C" height="6" style="stroke:#C82930;stroke-width:1.0;" width="6" x="421" y="338.127"/><text fill="#000000" font-family="sans-serif" font-size="14" lengthAdjust="spacing" textLength="239" x="433" y="345.4238">__validate_name(name: string): string</text><rect fill="#F24D5C" height="6" style="stroke:#C82930;stroke-width:1.0;" width="6" x="421" y="356.748"/><text fill="#000000" font-family="sans-serif" font-size="14" lengthAdjust="spacing" textLength="235" x="433" y="364.0449">__validate_email(email: string): string</text></g><!--class Customer--><g id="elem_Customer"><rect codeLine="22" fill="#F1F1F1" height="569.3906" id="Customer" rx="2.5" ry="2.5" style="stroke:#181818;stroke-width:0.5;" width="462" x="346" y="432"/><ellipse cx="542.25" cy="448" fill="#ADD1B2" rx="11" ry="11" style="stroke:#181818;stroke-width:1.0;"/><path d="M545.0156,443.875 Q545.1719,443.6563 545.3594,443.5469 Q545.5469,443.4375 545.7656,443.4375 Q546.1406,443.4375 546.375,443.7031 Q546.6094,443.9531 546.6094,444.5625 L546.6094,446.0156 Q546.6094,446.625 546.375,446.8906 Q546.1406,447.1563 545.7656,447.1563 Q545.4219,447.1563 545.2188,446.9531 Q545.0156,446.7656 544.9063,446.25 Q544.8594,445.8906 544.6719,445.7031 Q544.3438,445.3281 543.7344,445.1094 Q543.125,444.8906 542.5,444.8906 Q541.7344,444.8906 541.0938,445.2188 Q540.4688,445.5469 539.9688,446.2969 Q539.4844,447.0469 539.4844,448.0781 L539.4844,449.1719 Q539.4844,450.4063 540.375,451.2344 Q541.2656,452.0469 542.8594,452.0469 Q543.7969,452.0469 544.4531,451.7969 Q544.8438,451.6406 545.2656,451.2031 Q545.5313,450.9375 545.6719,450.8594 Q545.8281,450.7813 546.0313,450.7813 Q546.3594,450.7813 546.6094,451.0469 Q546.875,451.2969 546.875,451.6406 Q546.875,451.9844 546.5313,452.3906 Q546.0313,452.9688 545.2344,453.2969 Q544.1563,453.75 542.8594,453.75 Q541.3438,453.75 540.1406,453.125 Q539.1563,452.625 538.4688,451.5625 Q537.7813,450.4844 537.7813,449.2031 L537.7813,448.0469 Q537.7813,446.7188 538.3906,445.5781 Q539.0156,444.4219 540.1094,443.8125 Q541.2031,443.1875 542.4375,443.1875 Q543.1719,443.1875 543.8125,443.3594 Q544.4688,443.5156 545.0156,443.875 Z " fill="#000000"/><text fill="#000000" font-family="sans-serif" font-size="14" lengthAdjust="spacing" textLength="61" x="562.75" y="453.7969">Customer</text><line style="stroke:#181818;stroke-width:0.5;" x1="347" x2="807" y1="464" y2="464"/><rect fill="none" height="6" style="stroke:#C82930;stroke-width:1.0;" width="6" x="354" y="475.8105"/><text fill="#000000" font-family="sans-serif" font-size="14" lengthAdjust="spacing" textLength="155" x="366" y="483.1074">__phone_number: string</text><rect fill="none" height="6" style="stroke:#C82930;stroke-width:1.0;" width="6" x="354" y="494.4316"/><text fill="#000000" font-family="sans-serif" font-size="14" lengthAdjust="spacing" textLength="110" x="366" y="501.7285">__address: string</text><rect fill="none" height="6" style="stroke:#C82930;stroke-width:1.0;" width="6" x="354" y="513.0527"/><text fill="#000000" font-family="sans-serif" font-size="14" lengthAdjust="spacing" textLength="80" x="366" y="520.3496">__city: string</text><rect fill="none" height="6" style="stroke:#C82930;stroke-width:1.0;" width="6" x="354" y="531.6738"/><text fill="#000000" font-family="sans-serif" font-size="14" lengthAdjust="spacing" textLength="116" x="366" y="538.9707">__postal_code: int</text><rect fill="none" height="6" style="stroke:#C82930;stroke-width:1.0;" width="6" x="354" y="550.2949"/><text fill="#000000" font-family="sans-serif" font-size="14" lengthAdjust="spacing" textLength="106" x="366" y="557.5918">__country: string</text><rect fill="none" height="6" style="stroke:#C82930;stroke-width:1.0;" width="6" x="354" y="568.916"/><text fill="#000000" font-family="sans-serif" font-size="14" lengthAdjust="spacing" textLength="152" x="366" y="576.2129">__date_joined: datetime</text><line style="stroke:#181818;stroke-width:0.5;" x1="347" x2="807" y1="583.7266" y2="583.7266"/><ellipse cx="357" cy="598.5371" fill="#84BE84" rx="3" ry="3" style="stroke:#038048;stroke-width:1.0;"/><text fill="#000000" font-family="sans-serif" font-size="14" lengthAdjust="spacing" textLength="177" x="366" y="602.834">get_phone_number(): string</text><ellipse cx="357" cy="617.1582" fill="#84BE84" rx="3" ry="3" style="stroke:#038048;stroke-width:1.0;"/><text fill="#000000" font-family="sans-serif" font-size="14" lengthAdjust="spacing" textLength="132" x="366" y="621.4551">get_address(): string</text><ellipse cx="357" cy="635.7793" fill="#84BE84" rx="3" ry="3" style="stroke:#038048;stroke-width:1.0;"/><text fill="#000000" font-family="sans-serif" font-size="14" lengthAdjust="spacing" textLength="102" x="366" y="640.0762">get_city(): string</text><ellipse cx="357" cy="654.4004" fill="#84BE84" rx="3" ry="3" style="stroke:#038048;stroke-width:1.0;"/><text fill="#000000" font-family="sans-serif" font-size="14" lengthAdjust="spacing" textLength="138" x="366" y="658.6973">get_postal_code(): int</text><ellipse cx="357" cy="673.0215" fill="#84BE84" rx="3" ry="3" style="stroke:#038048;stroke-width:1.0;"/><text fill="#000000" font-family="sans-serif" font-size="14" lengthAdjust="spacing" textLength="128" x="366" y="677.3184">get_country(): string</text><ellipse cx="357" cy="691.6426" fill="#84BE84" rx="3" ry="3" style="stroke:#038048;stroke-width:1.0;"/><text fill="#000000" font-family="sans-serif" font-size="14" lengthAdjust="spacing" textLength="174" x="366" y="695.9395">get_date_joined(): datetime</text><ellipse cx="357" cy="710.2637" fill="#84BE84" rx="3" ry="3" style="stroke:#038048;stroke-width:1.0;"/><text fill="#000000" font-family="sans-serif" font-size="14" lengthAdjust="spacing" textLength="306" x="366" y="714.5605">set_phone_number(phone_number: string): void</text><ellipse cx="357" cy="728.8848" fill="#84BE84" rx="3" ry="3" style="stroke:#038048;stroke-width:1.0;"/><text fill="#000000" font-family="sans-serif" font-size="14" lengthAdjust="spacing" textLength="216" x="366" y="733.1816">set_address(address: string): void</text><ellipse cx="357" cy="747.5059" fill="#84BE84" rx="3" ry="3" style="stroke:#038048;stroke-width:1.0;"/><text fill="#000000" font-family="sans-serif" font-size="14" lengthAdjust="spacing" textLength="156" x="366" y="751.8027">set_city(city: string): void</text><ellipse cx="357" cy="766.127" fill="#84BE84" rx="3" ry="3" style="stroke:#038048;stroke-width:1.0;"/><text fill="#000000" font-family="sans-serif" font-size="14" lengthAdjust="spacing" textLength="248" x="366" y="770.4238">set_postal_code(postal_code: int): void</text><ellipse cx="357" cy="784.748" fill="#84BE84" rx="3" ry="3" style="stroke:#038048;stroke-width:1.0;"/><text fill="#000000" font-family="sans-serif" font-size="14" lengthAdjust="spacing" textLength="208" x="366" y="789.0449">set_country(country: string): void</text><ellipse cx="357" cy="803.3691" fill="#84BE84" rx="3" ry="3" style="stroke:#038048;stroke-width:1.0;"/><text fill="#000000" font-family="sans-serif" font-size="14" lengthAdjust="spacing" textLength="281" x="366" y="807.666">set_date_joined(date_joined: datetime): void</text><ellipse cx="357" cy="821.9902" fill="#84BE84" rx="3" ry="3" style="stroke:#038048;stroke-width:1.0;"/><text fill="#000000" font-family="sans-serif" font-size="14" lengthAdjust="spacing" textLength="116" x="366" y="826.2871">short_info(): string</text><ellipse cx="357" cy="840.6113" fill="#84BE84" rx="3" ry="3" style="stroke:#038048;stroke-width:1.0;"/><text fill="#000000" font-family="sans-serif" font-size="14" lengthAdjust="spacing" textLength="82" x="366" y="844.9082">to_dict(): dict</text><ellipse cx="357" cy="859.2324" fill="#84BE84" rx="3" ry="3" style="stroke:#038048;stroke-width:1.0;"/><text fill="#000000" font-family="sans-serif" font-size="14" lengthAdjust="spacing" textLength="195" x="366" y="863.5293">from_dict(data: dict): Customer</text><ellipse cx="357" cy="877.8535" fill="#84BE84" rx="3" ry="3" style="stroke:#038048;stroke-width:1.0;"/><text fill="#000000" font-family="sans-serif" font-size="14" lengthAdjust="spacing" textLength="195" x="366" y="882.1504">__eq__(other: Customer): bool</text><ellipse cx="357" cy="896.4746" fill="#84BE84" rx="3" ry="3" style="stroke:#038048;stroke-width:1.0;"/><text fill="#000000" font-family="sans-serif" font-size="14" lengthAdjust="spacing" textLength="101" x="366" y="900.7715">__str__(): string</text><ellipse cx="357" cy="915.0957" fill="#84BE84" rx="3" ry="3" style="stroke:#038048;stroke-width:1.0;"/><text fill="#000000" font-family="sans-serif" font-size="14" lengthAdjust="spacing" textLength="245" x="366" y="919.3926">from_string(data_str: string): Customer</text><rect fill="#F24D5C" height="6" style="stroke:#C82930;stroke-width:1.0;" width="6" x="354" y="930.7168"/><text fill="#000000" font-family="sans-serif" font-size="14" lengthAdjust="spacing" textLength="361" x="366" y="938.0137">__validate_phone_number(phone_number: string): string</text><rect fill="#F24D5C" height="6" style="stroke:#C82930;stroke-width:1.0;" width="6" x="354" y="949.3379"/><text fill="#000000" font-family="sans-serif" font-size="14" lengthAdjust="spacing" textLength="436" x="366" y="956.6348">__validate_non_empty_string(value: string, field_name: string): string</text><rect fill="#F24D5C" height="6" style="stroke:#C82930;stroke-width:1.0;" width="6" x="354" y="967.959"/><text fill="#000000" font-family="sans-serif" font-size="14" lengthAdjust="spacing" textLength="283" x="366" y="975.2559">__validate_postal_code(postal_code: int): int</text><rect fill="#F24D5C" height="6" style="stroke:#C82930;stroke-width:1.0;" width="6" x="354" y="986.5801"/><text fill="#000000" font-family="sans-serif" font-size="14" lengthAdjust="spacing" textLength="401" x="366" y="993.877">__validate_date_joined(date_joined: string | datetime): datetime</text></g><!--class CustomerRepBase--><g id="elem_CustomerRepBase"><rect codeLine="55" fill="#F1F1F1" height="234.2109" id="CustomerRepBase" rx="2.5" ry="2.5" style="stroke:#181818;stroke-width:0.5;" width="1140" x="7" y="1061"/><ellipse cx="513.25" cy="1077" fill="#A9DCDF" rx="11" ry="11" style="stroke:#181818;stroke-width:1.0;"/><path d="M515.4375,1078.7656 L511.2969,1078.7656 L510.875,1079.7969 L511.2969,1079.7969 Q511.9063,1079.7969 512.1719,1080.0313 Q512.4375,1080.2656 512.4375,1080.6563 Q512.4375,1081.0313 512.1719,1081.2656 Q511.9063,1081.5 511.2969,1081.5 L509,1081.5 Q508.3906,1081.5 508.1406,1081.2656 Q507.875,1081.0313 507.875,1080.6406 Q507.875,1080.2656 508.1563,1080.0313 Q508.4219,1079.7813 509.0469,1079.7969 L511.7188,1073.1406 L510.6094,1073.1406 Q510,1073.1406 509.7344,1072.9063 Q509.4688,1072.6719 509.4688,1072.2813 Q509.4688,1071.9063 509.7344,1071.6719 Q510,1071.4375 510.6094,1071.4375 L514.2813,1071.4375 L517.6719,1079.7969 Q518.2656,1079.7969 518.4531,1079.9375 Q518.8438,1080.2031 518.8438,1080.6563 Q518.8438,1081.0313 518.5781,1081.2656 Q518.3281,1081.5 517.7188,1081.5 L515.4219,1081.5 Q514.8125,1081.5 514.5469,1081.2656 Q514.2813,1081.0313 514.2813,1080.6406 Q514.2813,1080.2656 514.5469,1080.0313 Q514.8125,1079.7969 515.4219,1079.7969 L515.8438,1079.7969 L515.4375,1078.7656 Z M514.7188,1077.0625 L513.3594,1073.6875 L511.9844,1077.0625 L514.7188,1077.0625 Z " fill="#000000"/><text fill="#000000" font-family="sans-serif" font-size="14" font-style="italic" lengthAdjust="spacing" textLength="119" x="533.75" y="1082.7969">CustomerRepBase</text><line style="stroke:#181818;stroke-width:0.5;" x1="8" x2="1146" y1="1093" y2="1093"/><rect fill="none" height="6" style="stroke:#C82930;stroke-width:1.0;" width="6" x="15" y="1104.8105"/><text fill="#000000" font-family="sans-serif" font-size="14" lengthAdjust="spacing" textLength="96" x="27" y="1112.1074">filename: string</text><rect fill="none" height="6" style="stroke:#C82930;stroke-width:1.0;" width="6" x="15" y="1123.4316"/><text fill="#000000" font-family="sans-serif" font-size="14" lengthAdjust="spacing" textLength="159" x="27" y="1130.7285">customers: list[Customer]</text><line style="stroke:#181818;stroke-width:0.5;" x1="8" x2="1146" y1="1138.2422" y2="1138.2422"/><ellipse cx="18" cy="1153.0527" fill="#84BE84" rx="3" ry="3" style="stroke:#038048;stroke-width:1.0;"/><text fill="#000000" font-family="sans-serif" font-size="14" lengthAdjust="spacing" textLength="241" x="27" y="1157.3496">get_by_id(customer_id: int): Customer</text><ellipse cx="18" cy="1171.6738" fill="#84BE84" rx="3" ry="3" style="stroke:#038048;stroke-width:1.0;"/><text fill="#000000" font-family="sans-serif" font-size="14" lengthAdjust="spacing" textLength="1114" x="27" y="1175.9707">add_customer(first_name: string, last_name: string, email: string, phone_number: string, address: string, city: string, postal_code: int, country: string, date_joined: datetime): void</text><ellipse cx="18" cy="1190.2949" fill="#84BE84" rx="3" ry="3" style="stroke:#038048;stroke-width:1.0;"/><text fill="#000000" font-family="sans-serif" font-size="14" lengthAdjust="spacing" textLength="402" x="27" y="1194.5918">replace_by_id(customer_id: int, new_customer: Customer): bool</text><ellipse cx="18" cy="1208.916" fill="#84BE84" rx="3" ry="3" style="stroke:#038048;stroke-width:1.0;"/><text fill="#000000" font-family="sans-serif" font-size="14" lengthAdjust="spacing" textLength="225" x="27" y="1213.2129">delete_by_id(customer_id: int): void</text><ellipse cx="18" cy="1227.5371" fill="#84BE84" rx="3" ry="3" style="stroke:#038048;stroke-width:1.0;"/><text fill="#000000" font-family="sans-serif" font-size="14" lengthAdjust="spacing" textLength="96" x="27" y="1231.834">get_count(): int</text><ellipse cx="18" cy="1246.1582" fill="#84BE84" rx="3" ry="3" style="stroke:#038048;stroke-width:1.0;"/><text fill="#000000" font-family="sans-serif" font-size="14" lengthAdjust="spacing" textLength="387" x="27" y="1250.4551">__is_unique(email: string, unverifiable_customer_id: int): bool</text><ellipse cx="18" cy="1264.7793" fill="#84BE84" rx="3" ry="3" style="stroke:#038048;stroke-width:1.0;"/><text fill="#000000" font-family="sans-serif" font-size="14" lengthAdjust="spacing" textLength="226" x="27" y="1269.0762">read_all(): list[Customer] &#171;abstract&#187;</text><ellipse cx="18" cy="1283.4004" fill="#84BE84" rx="3" ry="3" style="stroke:#038048;stroke-width:1.0;"/><text fill="#000000" font-family="sans-serif" font-size="14" lengthAdjust="spacing" textLength="167" x="27" y="1287.6973">save_all(): void &#171;abstract&#187;</text></g><!--class CustomerRepJson--><g id="elem_CustomerRepJson"><rect codeLine="68" fill="#F1F1F1" height="85.2422" id="CustomerRepJson" rx="2.5" ry="2.5" style="stroke:#181818;stroke-width:0.5;" width="181" x="270.5" y="1420.5"/><ellipse cx="300.35" cy="1436.5" fill="#ADD1B2" rx="11" ry="11" style="stroke:#181818;stroke-width:1.0;"/><path d="M303.1156,1432.375 Q303.2719,1432.1563 303.4594,1432.0469 Q303.6469,1431.9375 303.8656,1431.9375 Q304.2406,1431.9375 304.475,1432.2031 Q304.7094,1432.4531 304.7094,1433.0625 L304.7094,1434.5156 Q304.7094,1435.125 304.475,1435.3906 Q304.2406,1435.6563 303.8656,1435.6563 Q303.5219,1435.6563 303.3188,1435.4531 Q303.1156,1435.2656 303.0063,1434.75 Q302.9594,1434.3906 302.7719,1434.2031 Q302.4438,1433.8281 301.8344,1433.6094 Q301.225,1433.3906 300.6,1433.3906 Q299.8344,1433.3906 299.1938,1433.7188 Q298.5688,1434.0469 298.0688,1434.7969 Q297.5844,1435.5469 297.5844,1436.5781 L297.5844,1437.6719 Q297.5844,1438.9063 298.475,1439.7344 Q299.3656,1440.5469 300.9594,1440.5469 Q301.8969,1440.5469 302.5531,1440.2969 Q302.9438,1440.1406 303.3656,1439.7031 Q303.6313,1439.4375 303.7719,1439.3594 Q303.9281,1439.2813 304.1313,1439.2813 Q304.4594,1439.2813 304.7094,1439.5469 Q304.975,1439.7969 304.975,1440.1406 Q304.975,1440.4844 304.6313,1440.8906 Q304.1313,1441.4688 303.3344,1441.7969 Q302.2563,1442.25 300.9594,1442.25 Q299.4438,1442.25 298.2406,1441.625 Q297.2563,1441.125 296.5688,1440.0625 Q295.8813,1438.9844 295.8813,1437.7031 L295.8813,1436.5469 Q295.8813,1435.2188 296.4906,1434.0781 Q297.1156,1432.9219 298.2094,1432.3125 Q299.3031,1431.6875 300.5375,1431.6875 Q301.2719,1431.6875 301.9125,1431.8594 Q302.5688,1432.0156 303.1156,1432.375 Z " fill="#000000"/><text fill="#000000" font-family="sans-serif" font-size="14" lengthAdjust="spacing" textLength="116" x="317.65" y="1442.2969">CustomerRepJson</text><line style="stroke:#181818;stroke-width:0.5;" x1="271.5" x2="450.5" y1="1452.5" y2="1452.5"/><line style="stroke:#181818;stroke-width:0.5;" x1="271.5" x2="450.5" y1="1460.5" y2="1460.5"/><ellipse cx="281.5" cy="1475.3105" fill="#84BE84" rx="3" ry="3" style="stroke:#038048;stroke-width:1.0;"/><text fill="#000000" font-family="sans-serif" font-size="14" lengthAdjust="spacing" textLength="155" x="290.5" y="1479.6074">read_all(): list[Customer]</text><ellipse cx="281.5" cy="1493.9316" fill="#84BE84" rx="3" ry="3" style="stroke:#038048;stroke-width:1.0;"/><text fill="#000000" font-family="sans-serif" font-size="14" lengthAdjust="spacing" textLength="96" x="290.5" y="1498.2285">save_all(): void</text></g><!--class CustomerRepYaml--><g id="elem_CustomerRepYaml"><rect codeLine="73" fill="#F1F1F1" height="85.2422" id="CustomerRepYaml" rx="2.5" ry="2.5" style="stroke:#181818;stroke-width:0.5;" width="181" x="486.5" y="1420.5"/><ellipse cx="515.45" cy="1436.5" fill="#ADD1B2" rx="11" ry="11" style="stroke:#181818;stroke-width:1.0;"/><path d="M518.2156,1432.375 Q518.3719,1432.1563 518.5594,1432.0469 Q518.7469,1431.9375 518.9656,1431.9375 Q519.3406,1431.9375 519.575,1432.2031 Q519.8094,1432.4531 519.8094,1433.0625 L519.8094,1434.5156 Q519.8094,1435.125 519.575,1435.3906 Q519.3406,1435.6563 518.9656,1435.6563 Q518.6219,1435.6563 518.4188,1435.4531 Q518.2156,1435.2656 518.1063,1434.75 Q518.0594,1434.3906 517.8719,1434.2031 Q517.5438,1433.8281 516.9344,1433.6094 Q516.325,1433.3906 515.7,1433.3906 Q514.9344,1433.3906 514.2938,1433.7188 Q513.6688,1434.0469 513.1688,1434.7969 Q512.6844,1435.5469 512.6844,1436.5781 L512.6844,1437.6719 Q512.6844,1438.9063 513.575,1439.7344 Q514.4656,1440.5469 516.0594,1440.5469 Q516.9969,1440.5469 517.6531,1440.2969 Q518.0438,1440.1406 518.4656,1439.7031 Q518.7313,1439.4375 518.8719,1439.3594 Q519.0281,1439.2813 519.2313,1439.2813 Q519.5594,1439.2813 519.8094,1439.5469 Q520.075,1439.7969 520.075,1440.1406 Q520.075,1440.4844 519.7313,1440.8906 Q519.2313,1441.4688 518.4344,1441.7969 Q517.3563,1442.25 516.0594,1442.25 Q514.5438,1442.25 513.3406,1441.625 Q512.3563,1441.125 511.6688,1440.0625 Q510.9813,1438.9844 510.9813,1437.7031 L510.9813,1436.5469 Q510.9813,1435.2188 511.5906,1434.0781 Q512.2156,1432.9219 513.3094,1432.3125 Q514.4031,1431.6875 515.6375,1431.6875 Q516.3719,1431.6875 517.0125,1431.8594 Q517.6688,1432.0156 518.2156,1432.375 Z " fill="#000000"/><text fill="#000000" font-family="sans-serif" font-size="14" lengthAdjust="spacing" textLength="118" x="532.55" y="1442.2969">CustomerRepYaml</text><line style="stroke:#181818;stroke-width:0.5;" x1="487.5" x2="666.5" y1="1452.5" y2="1452.5"/><line style="stroke:#181818;stroke-width:0.5;" x1="487.5" x2="666.5" y1="1460.5" y2="1460.5"/><ellipse cx="497.5" cy="1475.3105" fill="#84BE84" rx="3" ry="3" style="stroke:#038048;stroke-width:1.0;"/><text fill="#000000" font-family="sans-serif" font-size="14" lengthAdjust="spacing" textLength="155" x="506.5" y="1479.6074">read_all(): list[Customer]</text><ellipse cx="497.5" cy="1493.9316" fill="#84BE84" rx="3" ry="3" style="stroke:#038048;stroke-width:1.0;"/><text fill="#000000" font-family="sans-serif" font-size="14" lengthAdjust="spacing" textLength="96" x="506.5" y="1498.2285">save_all(): void</text></g><!--class CustomerRepPostgres--><g id="elem_CustomerRepPostgres"><rect codeLine="78" fill="#F1F1F1" height="178.3477" id="CustomerRepPostgres" rx="2.5" ry="2.5" style="stroke:#181818;stroke-width:0.5;" width="457" x="693.5" y="1631"/><ellipse cx="846.25" cy="1647" fill="#ADD1B2" rx="11" ry="11" style="stroke:#181818;stroke-width:1.0;"/><path d="M849.0156,1642.875 Q849.1719,1642.6563 849.3594,1642.5469 Q849.5469,1642.4375 849.7656,1642.4375 Q850.1406,1642.4375 850.375,1642.7031 Q850.6094,1642.9531 850.6094,1643.5625 L850.6094,1645.0156 Q850.6094,1645.625 850.375,1645.8906 Q850.1406,1646.1563 849.7656,1646.1563 Q849.4219,1646.1563 849.2188,1645.9531 Q849.0156,1645.7656 848.9063,1645.25 Q848.8594,1644.8906 848.6719,1644.7031 Q848.3438,1644.3281 847.7344,1644.1094 Q847.125,1643.8906 846.5,1643.8906 Q845.7344,1643.8906 845.0938,1644.2188 Q844.4688,1644.5469 843.9688,1645.2969 Q843.4844,1646.0469 843.4844,1647.0781 L843.4844,1648.1719 Q843.4844,1649.4063 844.375,1650.2344 Q845.2656,1651.0469 846.8594,1651.0469 Q847.7969,1651.0469 848.4531,1650.7969 Q848.8438,1650.6406 849.2656,1650.2031 Q849.5313,1649.9375 849.6719,1649.8594 Q849.8281,1649.7813 850.0313,1649.7813 Q850.3594,1649.7813 850.6094,1650.0469 Q850.875,1650.2969 850.875,1650.6406 Q850.875,1650.9844 850.5313,1651.3906 Q850.0313,1651.9688 849.2344,1652.2969 Q848.1563,1652.75 846.8594,1652.75 Q845.3438,1652.75 844.1406,1652.125 Q843.1563,1651.625 842.4688,1650.5625 Q841.7813,1649.4844 841.7813,1648.2031 L841.7813,1647.0469 Q841.7813,1645.7188 842.3906,1644.5781 Q843.0156,1643.4219 844.1094,1642.8125 Q845.2031,1642.1875 846.4375,1642.1875 Q847.1719,1642.1875 847.8125,1642.3594 Q848.4688,1642.5156 849.0156,1642.875 Z " fill="#000000"/><text fill="#000000" font-family="sans-serif" font-size="14" lengthAdjust="spacing" textLength="143" x="866.75" y="1652.7969">CustomerRepPostgres</text><line style="stroke:#181818;stroke-width:0.5;" x1="694.5" x2="1149.5" y1="1663" y2="1663"/><line style="stroke:#181818;stroke-width:0.5;" x1="694.5" x2="1149.5" y1="1671" y2="1671"/><ellipse cx="704.5" cy="1685.8105" fill="#84BE84" rx="3" ry="3" style="stroke:#038048;stroke-width:1.0;"/><text fill="#000000" font-family="sans-serif" font-size="14" lengthAdjust="spacing" textLength="431" x="713.5" y="1690.1074">__init__(db_name : str, user : str, password : str, host : str, port : str)</text><ellipse cx="704.5" cy="1704.4316" fill="#84BE84" rx="3" ry="3" style="stroke:#038048;stroke-width:1.0;"/><text fill="#000000" font-family="sans-serif" font-size="14" lengthAdjust="spacing" textLength="258" x="713.5" y="1708.7285">add_customer(customer : Customer) : int</text><ellipse cx="704.5" cy="1723.0527" fill="#84BE84" rx="3" ry="3" style="stroke:#038048;stroke-width:1.0;"/><text fill="#000000" font-family="sans-serif" font-size="14" lengthAdjust="spacing" textLength="249" x="713.5" y="1727.3496">get_by_id(customer_id : int) : Customer</text><ellipse cx="704.5" cy="1741.6738" fill="#84BE84" rx="3" ry="3" style="stroke:#038048;stroke-width:1.0;"/><text fill="#000000" font-family="sans-serif" font-size="14" lengthAdjust="spacing" textLength="306" x="713.5" y="1745.9707">get_k_n_short_list(k : int, n : int) : List[Customer]</text><ellipse cx="704.5" cy="1760.2949" fill="#84BE84" rx="3" ry="3" style="stroke:#038048;stroke-width:1.0;"/><text fill="#000000" font-family="sans-serif" font-size="14" lengthAdjust="spacing" textLength="413" x="713.5" y="1764.5918">replace_by_id(customer_id : int, new_customer : Customer) : void</text><ellipse cx="704.5" cy="1778.916" fill="#84BE84" rx="3" ry="3" style="stroke:#038048;stroke-width:1.0;"/><text fill="#000000" font-family="sans-serif" font-size="14" lengthAdjust="spacing" textLength="233" x="713.5" y="1783.2129">delete_by_id(customer_id : int) : void</text><ellipse cx="704.5" cy="1797.5371" fill="#84BE84" rx="3" ry="3" style="stroke:#038048;stroke-width:1.0;"/><text fill="#000000" font-family="sans-serif" font-size="14" lengthAdjust="spacing" textLength="100" x="713.5" y="1801.834">get_count() : int</text></g><!--class CustomerRepPostgresAdapter--><g id="elem_CustomerRepPostgresAdapter"><rect codeLine="88" fill="#F1F1F1" height="215.5898" id="CustomerRepPostgresAdapter" rx="2.5" ry="2.5" style="stroke:#181818;stroke-width:0.5;" width="439" x="702.5" y="1355"/><ellipse cx="821.25" cy="1371" fill="#ADD1B2" rx="11" ry="11" style="stroke:#181818;stroke-width:1.0;"/><path d="M824.0156,1366.875 Q824.1719,1366.6563 824.3594,1366.5469 Q824.5469,1366.4375 824.7656,1366.4375 Q825.1406,1366.4375 825.375,1366.7031 Q825.6094,1366.9531 825.6094,1367.5625 L825.6094,1369.0156 Q825.6094,1369.625 825.375,1369.8906 Q825.1406,1370.1563 824.7656,1370.1563 Q824.4219,1370.1563 824.2188,1369.9531 Q824.0156,1369.7656 823.9063,1369.25 Q823.8594,1368.8906 823.6719,1368.7031 Q823.3438,1368.3281 822.7344,1368.1094 Q822.125,1367.8906 821.5,1367.8906 Q820.7344,1367.8906 820.0938,1368.2188 Q819.4688,1368.5469 818.9688,1369.2969 Q818.4844,1370.0469 818.4844,1371.0781 L818.4844,1372.1719 Q818.4844,1373.4063 819.375,1374.2344 Q820.2656,1375.0469 821.8594,1375.0469 Q822.7969,1375.0469 823.4531,1374.7969 Q823.8438,1374.6406 824.2656,1374.2031 Q824.5313,1373.9375 824.6719,1373.8594 Q824.8281,1373.7813 825.0313,1373.7813 Q825.3594,1373.7813 825.6094,1374.0469 Q825.875,1374.2969 825.875,1374.6406 Q825.875,1374.9844 825.5313,1375.3906 Q825.0313,1375.9688 824.2344,1376.2969 Q823.1563,1376.75 821.8594,1376.75 Q820.3438,1376.75 819.1406,1376.125 Q818.1563,1375.625 817.4688,1374.5625 Q816.7813,1373.4844 816.7813,1372.2031 L816.7813,1371.0469 Q816.7813,1369.7188 817.3906,1368.5781 Q818.0156,1367.4219 819.1094,1366.8125 Q820.2031,1366.1875 821.4375,1366.1875 Q822.1719,1366.1875 822.8125,1366.3594 Q823.4688,1366.5156 824.0156,1366.875 Z " fill="#000000"/><text fill="#000000" font-family="sans-serif" font-size="14" lengthAdjust="spacing" textLength="193" x="841.75" y="1376.7969">CustomerRepPostgresAdapter</text><line style="stroke:#181818;stroke-width:0.5;" x1="703.5" x2="1140.5" y1="1387" y2="1387"/><rect fill="none" height="6" style="stroke:#C82930;stroke-width:1.0;" width="6" x="710.5" y="1398.8105"/><text fill="#000000" font-family="sans-serif" font-size="14" lengthAdjust="spacing" textLength="239" x="722.5" y="1406.1074">rep_postgres : CustomerRepPostgres</text><line style="stroke:#181818;stroke-width:0.5;" x1="703.5" x2="1140.5" y1="1413.6211" y2="1413.6211"/><ellipse cx="713.5" cy="1428.4316" fill="#84BE84" rx="3" ry="3" style="stroke:#038048;stroke-width:1.0;"/><text fill="#000000" font-family="sans-serif" font-size="14" lengthAdjust="spacing" textLength="99" x="722.5" y="1432.7285">read_all() : void</text><ellipse cx="713.5" cy="1447.0527" fill="#84BE84" rx="3" ry="3" style="stroke:#038048;stroke-width:1.0;"/><text fill="#000000" font-family="sans-serif" font-size="14" lengthAdjust="spacing" textLength="100" x="722.5" y="1451.3496">save_all() : void</text><ellipse cx="713.5" cy="1465.6738" fill="#84BE84" rx="3" ry="3" style="stroke:#038048;stroke-width:1.0;"/><text fill="#000000" font-family="sans-serif" font-size="14" lengthAdjust="spacing" textLength="258" x="722.5" y="1469.9707">add_customer(customer : Customer) : int</text><ellipse cx="713.5" cy="1484.2949" fill="#84BE84" rx="3" ry="3" style="stroke:#038048;stroke-width:1.0;"/><text fill="#000000" font-family="sans-serif" font-size="14" lengthAdjust="spacing" textLength="249" x="722.5" y="1488.5918">get_by_id(customer_id : int) : Customer</text><ellipse cx="713.5" cy="1502.916" fill="#84BE84" rx="3" ry="3" style="stroke:#038048;stroke-width:1.0;"/><text fill="#000000" font-family="sans-serif" font-size="14" lengthAdjust="spacing" textLength="306" x="722.5" y="1507.2129">get_k_n_short_list(k : int, n : int) : List[Customer]</text><ellipse cx="713.5" cy="1521.5371" fill="#84BE84" rx="3" ry="3" style="stroke:#038048;stroke-width:1.0;"/><text fill="#000000" font-family="sans-serif" font-size="14" lengthAdjust="spacing" textLength="413" x="722.5" y="1525.834">replace_by_id(customer_id : int, new_customer : Customer) : void</text><ellipse cx="713.5" cy="1540.1582" fill="#84BE84" rx="3" ry="3" style="stroke:#038048;stroke-width:1.0;"/><text fill="#000000" font-family="sans-serif" font-size="14" lengthAdjust="spacing" textLength="233" x="722.5" y="1544.4551">delete_by_id(customer_id : int) : void</text><ellipse cx="713.5" cy="1558.7793" fill="#84BE84" rx="3" ry="3" style="stroke:#038048;stroke-width:1.0;"/><text fill="#000000" font-family="sans-serif" font-size="14" lengthAdjust="spacing" textLength="100" x="722.5" y="1563.0762">get_count() : int</text></g><!--class DatabaseConnection--><g id="elem_DatabaseConnection"><rect codeLine="101" fill="#F1F1F1" height="159.7266" id="DatabaseConnection" rx="2.5" ry="2.5" style="stroke:#181818;stroke-width:0.5;" width="457" x="693.5" y="1869"/><ellipse cx="851.25" cy="1885" fill="#ADD1B2" rx="11" ry="11" style="stroke:#181818;stroke-width:1.0;"/><path d="M854.0156,1880.875 Q854.1719,1880.6563 854.3594,1880.5469 Q854.5469,1880.4375 854.7656,1880.4375 Q855.1406,1880.4375 855.375,1880.7031 Q855.6094,1880.9531 855.6094,1881.5625 L855.6094,1883.0156 Q855.6094,1883.625 855.375,1883.8906 Q855.1406,1884.1563 854.7656,1884.1563 Q854.4219,1884.1563 854.2188,1883.9531 Q854.0156,1883.7656 853.9063,1883.25 Q853.8594,1882.8906 853.6719,1882.7031 Q853.3438,1882.3281 852.7344,1882.1094 Q852.125,1881.8906 851.5,1881.8906 Q850.7344,1881.8906 850.0938,1882.2188 Q849.4688,1882.5469 848.9688,1883.2969 Q848.4844,1884.0469 848.4844,1885.0781 L848.4844,1886.1719 Q848.4844,1887.4063 849.375,1888.2344 Q850.2656,1889.0469 851.8594,1889.0469 Q852.7969,1889.0469 853.4531,1888.7969 Q853.8438,1888.6406 854.2656,1888.2031 Q854.5313,1887.9375 854.6719,1887.8594 Q854.8281,1887.7813 855.0313,1887.7813 Q855.3594,1887.7813 855.6094,1888.0469 Q855.875,1888.2969 855.875,1888.6406 Q855.875,1888.9844 855.5313,1889.3906 Q855.0313,1889.9688 854.2344,1890.2969 Q853.1563,1890.75 851.8594,1890.75 Q850.3438,1890.75 849.1406,1890.125 Q848.1563,1889.625 847.4688,1888.5625 Q846.7813,1887.4844 846.7813,1886.2031 L846.7813,1885.0469 Q846.7813,1883.7188 847.3906,1882.5781 Q848.0156,1881.4219 849.1094,1880.8125 Q850.2031,1880.1875 851.4375,1880.1875 Q852.1719,1880.1875 852.8125,1880.3594 Q853.4688,1880.5156 854.0156,1880.875 Z " fill="#000000"/><text fill="#000000" font-family="sans-serif" font-size="14" lengthAdjust="spacing" textLength="133" x="871.75" y="1890.7969">DatabaseConnection</text><line style="stroke:#181818;stroke-width:0.5;" x1="694.5" x2="1149.5" y1="1901" y2="1901"/><line style="stroke:#181818;stroke-width:0.5;" x1="694.5" x2="1149.5" y1="1909" y2="1909"/><ellipse cx="704.5" cy="1923.8105" fill="#84BE84" rx="3" ry="3" style="stroke:#038048;stroke-width:1.0;"/><text fill="#000000" font-family="sans-serif" font-size="14" lengthAdjust="spacing" textLength="431" x="713.5" y="1928.1074">__init__(db_name : str, user : str, password : str, host : str, port : str)</text><ellipse cx="704.5" cy="1942.4316" fill="#84BE84" rx="3" ry="3" style="stroke:#038048;stroke-width:1.0;"/><text fill="#000000" font-family="sans-serif" font-size="14" lengthAdjust="spacing" textLength="264" x="713.5" y="1946.7285">execute(query : str, params : Tuple) : void</text><ellipse cx="704.5" cy="1961.0527" fill="#84BE84" rx="3" ry="3" style="stroke:#038048;stroke-width:1.0;"/><text fill="#000000" font-family="sans-serif" font-size="14" lengthAdjust="spacing" textLength="101" x="713.5" y="1965.3496">fetchone() : Dict</text><ellipse cx="704.5" cy="1979.6738" fill="#84BE84" rx="3" ry="3" style="stroke:#038048;stroke-width:1.0;"/><text fill="#000000" font-family="sans-serif" font-size="14" lengthAdjust="spacing" textLength="121" x="713.5" y="1983.9707">fetchall() : List[Dict]</text><ellipse cx="704.5" cy="1998.2949" fill="#84BE84" rx="3" ry="3" style="stroke:#038048;stroke-width:1.0;"/><text fill="#000000" font-family="sans-serif" font-size="14" lengthAdjust="spacing" textLength="92" x="713.5" y="2002.5918">commit() : void</text><ellipse cx="704.5" cy="2016.916" fill="#84BE84" rx="3" ry="3" style="stroke:#038048;stroke-width:1.0;"/><text fill="#000000" font-family="sans-serif" font-size="14" lengthAdjust="spacing" textLength="81" x="713.5" y="2021.2129">close() : void</text></g><!--reverse link CustomerShortInfo to Customer--><g id="link_CustomerShortInfo_Customer"><path codeLine="53" d="M577,390.28 C577,409.68 577,411.74 577,431.97 " fill="none" id="CustomerShortInfo-backto-Customer" style="stroke:#181818;stroke-width:1.0;"/><polygon fill="none" points="577,372.28,571,390.28,583,390.28,577,372.28" style="stroke:#181818;stroke-width:1.0;"/></g><!--reverse link CustomerRepBase to CustomerRepJson--><g id="link_CustomerRepBase_CustomerRepJson"><path codeLine="110" d="M477.2901,1309.6393 C443.4301,1354.0093 417.89,1387.47 392.72,1420.45 " fill="none" id="CustomerRepBase-backto-CustomerRepJson" style="stroke:#181818;stroke-width:1.0;"/><polygon fill="none" points="488.21,1295.33,472.5204,1305.9994,482.0599,1313.2793,488.21,1295.33" style="stroke:#181818;stroke-width:1.0;"/></g><!--reverse link CustomerRepBase to CustomerRepYaml--><g id="link_CustomerRepBase_CustomerRepYaml"><path codeLine="111" d="M577,1313.33 C577,1357.7 577,1387.47 577,1420.45 " fill="none" id="CustomerRepBase-backto-CustomerRepYaml" style="stroke:#181818;stroke-width:1.0;"/><polygon fill="none" points="577,1295.33,571,1313.33,583,1313.33,577,1295.33" style="stroke:#181818;stroke-width:1.0;"/></g><!--reverse link Customer to CustomerRepBase--><g id="link_Customer_CustomerRepBase"><path codeLine="112" d="M577,1013.32 C577,1033.94 577,1041.95 577,1060.62 " fill="none" id="Customer-backto-CustomerRepBase" style="stroke:#181818;stroke-width:1.0;"/><polygon fill="#181818" points="577,1001.32,573,1007.32,577,1013.32,581,1007.32,577,1001.32" style="stroke:#181818;stroke-width:1.0;"/><text fill="#000000" font-family="sans-serif" font-size="13" lengthAdjust="spacing" textLength="7" x="569.907" y="1023.1383">1</text><text fill="#000000" font-family="sans-serif" font-size="13" lengthAdjust="spacing" textLength="32" x="543.975" y="1049.5867">many</text></g><!--reverse link CustomerRepBase to CustomerRepPostgresAdapter--><g id="link_CustomerRepBase_CustomerRepPostgresAdapter"><path codeLine="113" d="M732.7381,1306.7443 C756.8081,1326.4843 767.78,1335.49 791.54,1354.98 " fill="none" id="CustomerRepBase-backto-CustomerRepPostgresAdapter" style="stroke:#181818;stroke-width:1.0;"/><polygon fill="none" points="718.82,1295.33,728.9333,1311.3837,736.5429,1302.105,718.82,1295.33" style="stroke:#181818;stroke-width:1.0;"/></g><!--reverse link CustomerRepPostgresAdapter to CustomerRepPostgres--><g id="link_CustomerRepPostgresAdapter_CustomerRepPostgres"><path codeLine="114" d="M922,1583.03 C922,1602.93 922,1611.52 922,1630.77 " fill="none" id="CustomerRepPostgresAdapter-backto-CustomerRepPostgres" style="stroke:#181818;stroke-width:1.0;"/><polygon fill="#181818" points="922,1571.03,918,1577.03,922,1583.03,926,1577.03,922,1571.03" style="stroke:#181818;stroke-width:1.0;"/></g><!--reverse link CustomerRepPostgres to DatabaseConnection--><g id="link_CustomerRepPostgres_DatabaseConnection"><path codeLine="115" d="M922,1821.09 C922,1840.78 922,1849.55 922,1868.85 " fill="none" id="CustomerRepPostgres-backto-DatabaseConnection" style="stroke:#181818;stroke-width:1.0;"/><polygon fill="#181818" points="922,1809.09,918,1815.09,922,1821.09,926,1815.09,922,1809.09" style="stroke:#181818;stroke-width:1.0;"/></g><!--SRC=[xLOzRzim4DtzAmXFTk8CNOqWG9iiBJeKRPUYA0XQEiTi958HAQT6q__U4qLI94NR6TAjKsJoyJxVkqjHCQN8RQUqhA7zifEjVY-saloU4N95A2ti3UNbcd2XxV6MjqfJmMfO4wLRBkxj1PhBdaFDU1MSNP9xqA7rnTBP7wv63_rDyivxoTmPJycvYWrEeqVuNlBIWqS7auHIwE0loY-4OEgFb2wata6xdXOQeHifAml5vuYDOz-sigR3xqN9DEk_0qSJYxRWUrPnX4DVshI9ox2L7cZIJJADUkYH-PGjziziLaIaybngTbAWcwxUG9kOPcNPWbB9QS7r8JbgfDAieeKi8KoYa9tGRGesmVwKN03ctV_Gl0PFb32S38ziI9cRFgpCSH1QIcORNkPH469_6mMfqY1p1KpfwC9EAfh2J0vXVLD0c4rQz8ancrxIXHGMvffjJVIWvpFbIEYWQfT4IrhoGfjQuT-PrOSvwzKn70UwE272LzDUge-ND2slB245gglH1-SLRpelo1NPSgXA-YAHdcbWPW0SxS_WW3o7ZV9CHRrFryVryzNLM9uPsw09LcWIJuRFqBnZ2ko0sF8A9fl3ZIuaSiML_kwU_l0AsXoEZBY80IW7lsqoytz59dD-HQ81joAvHgv8ehCL2KM5ZvBAutqiaXKvAuKMceeLS2JJ5H7mv7FBixk42ZGSBvLtvOTLEC4evOfsWZzsi4Xgqeazj7pBsQO2cZ7i8sY1bPHLPZ77ZIJNruuUDpU3zDaU7BQFB4PCzWkow8EImh3ebAEixQovRwokNj7S9-J0FPB4cBG55LpZj2atXdB451IhgN1Rsky6ZJp9jdI_TsZ4tw7CXk-bjHZHstsGW0p4jVEeR0R4aaJ2SUW7AkWmaViYB1w8ezxuwcDQdPFK9Hdk9l5QKfxYx-Wz00SSjbcVQihRaZNQ_fFI3noCs8nEqx1rxeLFpJ4ZTZzI8Zx_tw8pBR8zkiCzky6jS2k5W49pg-n_enlu1KMdOO6ZhJsC9bfMzyt_sZKL9A5lGHVz8Z2Ht_N_WWJdhkscqFsbAt8Xwvhhb1959HMCXy4cTPinsgDsq9q5zUFBWyZypPnS861UCt6OfxlthB549xCJ4hh8lymzCTXffsT_0G00]--></g></svg>