<?xml version="1.0" encoding="us-ascii" standalone="no"?><svg xmlns="http://www.w3.org/2000/svg" xmlns:xlink="http://www.w3.org/1999/xlink" contentStyleType="text/css" height="1227px" preserveAspectRatio="none" style="width:1290px;height:1227px;background:#FFFFFF;" version="1.1" viewBox="0 0 1290 1227" width="1290px" zoomAndPan="magnify"><defs/><g><line style="stroke:#181818;stroke-width:0.5;stroke-dasharray:5.0,5.0;" x1="22" x2="22" y1="83.6211" y2="1143.9336"/><line style="stroke:#181818;stroke-width:0.5;stroke-dasharray:5.0,5.0;" x1="185.5" x2="185.5" y1="83.6211" y2="1143.9336"/><line style="stroke:#181818;stroke-width:0.5;stroke-dasharray:5.0,5.0;" x1="302.5" x2="302.5" y1="83.6211" y2="1143.9336"/><line style="stroke:#181818;stroke-width:0.5;stroke-dasharray:5.0,5.0;" x1="503" x2="503" y1="83.6211" y2="1143.9336"/><line style="stroke:#181818;stroke-width:0.5;stroke-dasharray:5.0,5.0;" x1="743" x2="743" y1="83.6211" y2="1143.9336"/><line style="stroke:#181818;stroke-width:0.5;stroke-dasharray:5.0,5.0;" x1="995" x2="995" y1="83.6211" y2="1143.9336"/><line style="stroke:#181818;stroke-width:0.5;stroke-dasharray:5.0,5.0;" x1="1200" x2="1200" y1="83.6211" y2="1143.9336"/><text fill="#000000" font-family="sans-serif" font-size="14" lengthAdjust="spacing" textLength="29" x="5" y="80.1074">User</text><ellipse cx="22.5" cy="13.5" fill="#E2E2F0" rx="8" ry="8" style="stroke:#181818;stroke-width:0.5;"/><path d="M22.5,21.5 L22.5,48.5 M9.5,29.5 L35.5,29.5 M22.5,48.5 L9.5,63.5 M22.5,48.5 L35.5,63.5 " fill="none" style="stroke:#181818;stroke-width:0.5;"/><text fill="#000000" font-family="sans-serif" font-size="14" lengthAdjust="spacing" textLength="29" x="5" y="1158.041">User</text><ellipse cx="22.5" cy="1170.0547" fill="#E2E2F0" rx="8" ry="8" style="stroke:#181818;stroke-width:0.5;"/><path d="M22.5,1178.0547 L22.5,1205.0547 M9.5,1186.0547 L35.5,1186.0547 M22.5,1205.0547 L9.5,1220.0547 M22.5,1205.0547 L35.5,1220.0547 " fill="none" style="stroke:#181818;stroke-width:0.5;"/><rect fill="#E2E2F0" height="32.6211" rx="2.5" ry="2.5" style="stroke:#181818;stroke-width:0.5;" width="44" x="163.5" y="50"/><text fill="#000000" font-family="sans-serif" font-size="14" lengthAdjust="spacing" textLength="30" x="170.5" y="72.1074">main</text><rect fill="#E2E2F0" height="32.6211" rx="2.5" ry="2.5" style="stroke:#181818;stroke-width:0.5;" width="44" x="163.5" y="1142.9336"/><text fill="#000000" font-family="sans-serif" font-size="14" lengthAdjust="spacing" textLength="30" x="170.5" y="1165.041">main</text><rect fill="#E2E2F0" height="32.6211" rx="2.5" ry="2.5" style="stroke:#181818;stroke-width:0.5;" width="171" x="217.5" y="50"/><text fill="#000000" font-family="sans-serif" font-size="14" lengthAdjust="spacing" textLength="157" x="224.5" y="72.1074">view:CustomerTableView</text><rect fill="#E2E2F0" height="32.6211" rx="2.5" ry="2.5" style="stroke:#181818;stroke-width:0.5;" width="171" x="217.5" y="1142.9336"/><text fill="#000000" font-family="sans-serif" font-size="14" lengthAdjust="spacing" textLength="157" x="224.5" y="1165.041">view:CustomerTableView</text><rect fill="#E2E2F0" height="32.6211" rx="2.5" ry="2.5" style="stroke:#181818;stroke-width:0.5;" width="200" x="403" y="50"/><text fill="#000000" font-family="sans-serif" font-size="14" lengthAdjust="spacing" textLength="186" x="410" y="72.1074">controller:CustomerController</text><rect fill="#E2E2F0" height="32.6211" rx="2.5" ry="2.5" style="stroke:#181818;stroke-width:0.5;" width="200" x="403" y="1142.9336"/><text fill="#000000" font-family="sans-serif" font-size="14" lengthAdjust="spacing" textLength="186" x="410" y="1165.041">controller:CustomerController</text><rect fill="#E2E2F0" height="32.6211" rx="2.5" ry="2.5" style="stroke:#181818;stroke-width:0.5;" width="260" x="613" y="50"/><text fill="#000000" font-family="sans-serif" font-size="14" lengthAdjust="spacing" textLength="246" x="620" y="72.1074">adapter:CustomerRepPostgresAdapter</text><rect fill="#E2E2F0" height="32.6211" rx="2.5" ry="2.5" style="stroke:#181818;stroke-width:0.5;" width="260" x="613" y="1142.9336"/><text fill="#000000" font-family="sans-serif" font-size="14" lengthAdjust="spacing" textLength="246" x="620" y="1165.041">adapter:CustomerRepPostgresAdapter</text><rect fill="#E2E2F0" height="32.6211" rx="2.5" ry="2.5" style="stroke:#181818;stroke-width:0.5;" width="224" x="883" y="50"/><text fill="#000000" font-family="sans-serif" font-size="14" lengthAdjust="spacing" textLength="210" x="890" y="72.1074">repository:CustomerRepPostgres</text><rect fill="#E2E2F0" height="32.6211" rx="2.5" ry="2.5" style="stroke:#181818;stroke-width:0.5;" width="224" x="883" y="1142.9336"/><text fill="#000000" font-family="sans-serif" font-size="14" lengthAdjust="spacing" textLength="210" x="890" y="1165.041">repository:CustomerRepPostgres</text><rect fill="#E2E2F0" height="32.6211" rx="2.5" ry="2.5" style="stroke:#181818;stroke-width:0.5;" width="167" x="1117" y="50"/><text fill="#000000" font-family="sans-serif" font-size="14" lengthAdjust="spacing" textLength="153" x="1124" y="72.1074">db:DatabaseConnection</text><rect fill="#E2E2F0" height="32.6211" rx="2.5" ry="2.5" style="stroke:#181818;stroke-width:0.5;" width="167" x="1117" y="1142.9336"/><text fill="#000000" font-family="sans-serif" font-size="14" lengthAdjust="spacing" textLength="153" x="1124" y="1165.041">db:DatabaseConnection</text><polygon fill="#181818" points="173.5,112.9121,183.5,116.9121,173.5,120.9121,177.5,116.9121" style="stroke:#181818;stroke-width:1.0;"/><line style="stroke:#181818;stroke-width:1.0;" x1="22.5" x2="179.5" y1="116.9121" y2="116.9121"/><text fill="#000000" font-family="sans-serif" font-size="13" lengthAdjust="spacing" textLength="139" x="29.5" y="111.6494">&#1054;&#1090;&#1082;&#1088;&#1099;&#1074;&#1072;&#1077;&#1090; &#1087;&#1088;&#1080;&#1083;&#1086;&#1078;&#1077;&#1085;&#1080;&#1077;</text><polygon fill="#181818" points="291,144.2031,301,148.2031,291,152.2031,295,148.2031" style="stroke:#181818;stroke-width:1.0;"/><line style="stroke:#181818;stroke-width:1.0;" x1="185.5" x2="297" y1="148.2031" y2="148.2031"/><text fill="#000000" font-family="sans-serif" font-size="13" lengthAdjust="spacing" textLength="90" x="192.5" y="142.9404">&#1057;&#1086;&#1079;&#1076;&#1072;&#1085;&#1080;&#1077; View</text><polygon fill="#181818" points="491,175.4941,501,179.4941,491,183.4941,495,179.4941" style="stroke:#181818;stroke-width:1.0;"/><line style="stroke:#181818;stroke-width:1.0;" x1="185.5" x2="497" y1="179.4941" y2="179.4941"/><text fill="#000000" font-family="sans-serif" font-size="13" lengthAdjust="spacing" textLength="117" x="192.5" y="174.2314">&#1057;&#1086;&#1079;&#1076;&#1072;&#1085;&#1080;&#1077; Controller</text><polygon fill="#181818" points="491,206.7852,501,210.7852,491,214.7852,495,210.7852" style="stroke:#181818;stroke-width:1.0;"/><line style="stroke:#181818;stroke-width:1.0;" x1="303" x2="497" y1="210.7852" y2="210.7852"/><text fill="#000000" font-family="sans-serif" font-size="13" lengthAdjust="spacing" textLength="176" x="310" y="205.5225">&#1057;&#1074;&#1103;&#1079;&#1099;&#1074;&#1072;&#1077;&#1090;&#1089;&#1103; &#1089; &#1082;&#1086;&#1085;&#1090;&#1088;&#1086;&#1083;&#1083;&#1077;&#1088;&#1086;&#1084;</text><polygon fill="#181818" points="731,238.0762,741,242.0762,731,246.0762,735,242.0762" style="stroke:#181818;stroke-width:1.0;"/><line style="stroke:#181818;stroke-width:1.0;" x1="503" x2="737" y1="242.0762" y2="242.0762"/><text fill="#000000" font-family="sans-serif" font-size="13" lengthAdjust="spacing" textLength="195" x="510" y="236.8135">load_customers(page, page_size)</text><polygon fill="#181818" points="983,269.3672,993,273.3672,983,277.3672,987,273.3672" style="stroke:#181818;stroke-width:1.0;"/><line style="stroke:#181818;stroke-width:1.0;" x1="743" x2="989" y1="273.3672" y2="273.3672"/><text fill="#000000" font-family="sans-serif" font-size="13" lengthAdjust="spacing" textLength="136" x="750" y="268.1045">get_k_n_short_list(k, n)</text><polygon fill="#181818" points="1188.5,300.6582,1198.5,304.6582,1188.5,308.6582,1192.5,304.6582" style="stroke:#181818;stroke-width:1.0;"/><line style="stroke:#181818;stroke-width:1.0;" x1="995" x2="1194.5" y1="304.6582" y2="304.6582"/><text fill="#000000" font-family="sans-serif" font-size="13" lengthAdjust="spacing" textLength="156" x="1002" y="299.3955">&#1042;&#1099;&#1087;&#1086;&#1083;&#1085;&#1077;&#1085;&#1080;&#1077; SQL-&#1079;&#1072;&#1087;&#1088;&#1086;&#1089;&#1072;</text><polygon fill="#181818" points="1006,331.9492,996,335.9492,1006,339.9492,1002,335.9492" style="stroke:#181818;stroke-width:1.0;"/><line style="stroke:#181818;stroke-width:1.0;stroke-dasharray:2.0,2.0;" x1="1000" x2="1199.5" y1="335.9492" y2="335.9492"/><text fill="#000000" font-family="sans-serif" font-size="13" lengthAdjust="spacing" textLength="176" x="1012" y="330.6865">&#1042;&#1086;&#1079;&#1074;&#1088;&#1072;&#1097;&#1072;&#1077;&#1090; &#1089;&#1087;&#1080;&#1089;&#1086;&#1082; &#1082;&#1083;&#1080;&#1077;&#1085;&#1090;&#1086;&#1074;</text><polygon fill="#181818" points="754,363.2402,744,367.2402,754,371.2402,750,367.2402" style="stroke:#181818;stroke-width:1.0;"/><line style="stroke:#181818;stroke-width:1.0;stroke-dasharray:2.0,2.0;" x1="748" x2="994" y1="367.2402" y2="367.2402"/><text fill="#000000" font-family="sans-serif" font-size="13" lengthAdjust="spacing" textLength="176" x="760" y="361.9775">&#1042;&#1086;&#1079;&#1074;&#1088;&#1072;&#1097;&#1072;&#1077;&#1090; &#1089;&#1087;&#1080;&#1089;&#1086;&#1082; &#1082;&#1083;&#1080;&#1077;&#1085;&#1090;&#1086;&#1074;</text><polygon fill="#181818" points="514,394.5313,504,398.5313,514,402.5313,510,398.5313" style="stroke:#181818;stroke-width:1.0;"/><line style="stroke:#181818;stroke-width:1.0;stroke-dasharray:2.0,2.0;" x1="508" x2="742" y1="398.5313" y2="398.5313"/><text fill="#000000" font-family="sans-serif" font-size="13" lengthAdjust="spacing" textLength="176" x="520" y="393.2686">&#1042;&#1086;&#1079;&#1074;&#1088;&#1072;&#1097;&#1072;&#1077;&#1090; &#1089;&#1087;&#1080;&#1089;&#1086;&#1082; &#1082;&#1083;&#1080;&#1077;&#1085;&#1090;&#1086;&#1074;</text><polygon fill="#181818" points="314,425.8223,304,429.8223,314,433.8223,310,429.8223" style="stroke:#181818;stroke-width:1.0;"/><line style="stroke:#181818;stroke-width:1.0;" x1="308" x2="502" y1="429.8223" y2="429.8223"/><text fill="#000000" font-family="sans-serif" font-size="13" lengthAdjust="spacing" textLength="164" x="320" y="424.5596">&#1059;&#1074;&#1077;&#1076;&#1086;&#1084;&#1083;&#1103;&#1077;&#1090; &#1086;&#1073; &#1086;&#1073;&#1085;&#1086;&#1074;&#1083;&#1077;&#1085;&#1080;&#1080;</text><line style="stroke:#181818;stroke-width:1.0;" x1="303" x2="345" y1="461.1133" y2="461.1133"/><line style="stroke:#181818;stroke-width:1.0;" x1="345" x2="345" y1="461.1133" y2="474.1133"/><line style="stroke:#181818;stroke-width:1.0;" x1="304" x2="345" y1="474.1133" y2="474.1133"/><polygon fill="#181818" points="314,470.1133,304,474.1133,314,478.1133,310,474.1133" style="stroke:#181818;stroke-width:1.0;"/><text fill="#000000" font-family="sans-serif" font-size="13" lengthAdjust="spacing" textLength="108" x="310" y="455.8506">update(customers)</text><polygon fill="#181818" points="291,501.4043,301,505.4043,291,509.4043,295,505.4043" style="stroke:#181818;stroke-width:1.0;"/><line style="stroke:#181818;stroke-width:1.0;" x1="22.5" x2="297" y1="505.4043" y2="505.4043"/><text fill="#000000" font-family="sans-serif" font-size="13" lengthAdjust="spacing" textLength="166" x="29.5" y="500.1416">&#1053;&#1072;&#1078;&#1080;&#1084;&#1072;&#1077;&#1090; "&#1057;&#1083;&#1077;&#1076;&#1091;&#1102;&#1097;&#1080;&#1077; 10"</text><polygon fill="#181818" points="491,532.6953,501,536.6953,491,540.6953,495,536.6953" style="stroke:#181818;stroke-width:1.0;"/><line style="stroke:#181818;stroke-width:1.0;" x1="303" x2="497" y1="536.6953" y2="536.6953"/><text fill="#000000" font-family="sans-serif" font-size="13" lengthAdjust="spacing" textLength="64" x="310" y="531.4326">load_next()</text><polygon fill="#181818" points="731,563.9863,741,567.9863,731,571.9863,735,567.9863" style="stroke:#181818;stroke-width:1.0;"/><line style="stroke:#181818;stroke-width:1.0;" x1="503" x2="737" y1="567.9863" y2="567.9863"/><text fill="#000000" font-family="sans-serif" font-size="13" lengthAdjust="spacing" textLength="195" x="510" y="562.7236">load_customers(page, page_size)</text><polygon fill="#181818" points="983,595.2773,993,599.2773,983,603.2773,987,599.2773" style="stroke:#181818;stroke-width:1.0;"/><line style="stroke:#181818;stroke-width:1.0;" x1="743" x2="989" y1="599.2773" y2="599.2773"/><text fill="#000000" font-family="sans-serif" font-size="13" lengthAdjust="spacing" textLength="136" x="750" y="594.0146">get_k_n_short_list(k, n)</text><polygon fill="#181818" points="1188.5,626.5684,1198.5,630.5684,1188.5,634.5684,1192.5,630.5684" style="stroke:#181818;stroke-width:1.0;"/><line style="stroke:#181818;stroke-width:1.0;" x1="995" x2="1194.5" y1="630.5684" y2="630.5684"/><text fill="#000000" font-family="sans-serif" font-size="13" lengthAdjust="spacing" textLength="156" x="1002" y="625.3057">&#1042;&#1099;&#1087;&#1086;&#1083;&#1085;&#1077;&#1085;&#1080;&#1077; SQL-&#1079;&#1072;&#1087;&#1088;&#1086;&#1089;&#1072;</text><polygon fill="#181818" points="1006,657.8594,996,661.8594,1006,665.8594,1002,661.8594" style="stroke:#181818;stroke-width:1.0;"/><line style="stroke:#181818;stroke-width:1.0;stroke-dasharray:2.0,2.0;" x1="1000" x2="1199.5" y1="661.8594" y2="661.8594"/><text fill="#000000" font-family="sans-serif" font-size="13" lengthAdjust="spacing" textLength="176" x="1012" y="656.5967">&#1042;&#1086;&#1079;&#1074;&#1088;&#1072;&#1097;&#1072;&#1077;&#1090; &#1089;&#1087;&#1080;&#1089;&#1086;&#1082; &#1082;&#1083;&#1080;&#1077;&#1085;&#1090;&#1086;&#1074;</text><polygon fill="#181818" points="754,689.1504,744,693.1504,754,697.1504,750,693.1504" style="stroke:#181818;stroke-width:1.0;"/><line style="stroke:#181818;stroke-width:1.0;stroke-dasharray:2.0,2.0;" x1="748" x2="994" y1="693.1504" y2="693.1504"/><text fill="#000000" font-family="sans-serif" font-size="13" lengthAdjust="spacing" textLength="176" x="760" y="687.8877">&#1042;&#1086;&#1079;&#1074;&#1088;&#1072;&#1097;&#1072;&#1077;&#1090; &#1089;&#1087;&#1080;&#1089;&#1086;&#1082; &#1082;&#1083;&#1080;&#1077;&#1085;&#1090;&#1086;&#1074;</text><polygon fill="#181818" points="514,720.4414,504,724.4414,514,728.4414,510,724.4414" style="stroke:#181818;stroke-width:1.0;"/><line style="stroke:#181818;stroke-width:1.0;stroke-dasharray:2.0,2.0;" x1="508" x2="742" y1="724.4414" y2="724.4414"/><text fill="#000000" font-family="sans-serif" font-size="13" lengthAdjust="spacing" textLength="176" x="520" y="719.1787">&#1042;&#1086;&#1079;&#1074;&#1088;&#1072;&#1097;&#1072;&#1077;&#1090; &#1089;&#1087;&#1080;&#1089;&#1086;&#1082; &#1082;&#1083;&#1080;&#1077;&#1085;&#1090;&#1086;&#1074;</text><polygon fill="#181818" points="314,751.7324,304,755.7324,314,759.7324,310,755.7324" style="stroke:#181818;stroke-width:1.0;"/><line style="stroke:#181818;stroke-width:1.0;" x1="308" x2="502" y1="755.7324" y2="755.7324"/><text fill="#000000" font-family="sans-serif" font-size="13" lengthAdjust="spacing" textLength="164" x="320" y="750.4697">&#1059;&#1074;&#1077;&#1076;&#1086;&#1084;&#1083;&#1103;&#1077;&#1090; &#1086;&#1073; &#1086;&#1073;&#1085;&#1086;&#1074;&#1083;&#1077;&#1085;&#1080;&#1080;</text><line style="stroke:#181818;stroke-width:1.0;" x1="303" x2="345" y1="787.0234" y2="787.0234"/><line style="stroke:#181818;stroke-width:1.0;" x1="345" x2="345" y1="787.0234" y2="800.0234"/><line style="stroke:#181818;stroke-width:1.0;" x1="304" x2="345" y1="800.0234" y2="800.0234"/><polygon fill="#181818" points="314,796.0234,304,800.0234,314,804.0234,310,800.0234" style="stroke:#181818;stroke-width:1.0;"/><text fill="#000000" font-family="sans-serif" font-size="13" lengthAdjust="spacing" textLength="108" x="310" y="781.7607">update(customers)</text><polygon fill="#181818" points="291,827.3145,301,831.3145,291,835.3145,295,831.3145" style="stroke:#181818;stroke-width:1.0;"/><line style="stroke:#181818;stroke-width:1.0;" x1="22.5" x2="297" y1="831.3145" y2="831.3145"/><text fill="#000000" font-family="sans-serif" font-size="13" lengthAdjust="spacing" textLength="173" x="29.5" y="826.0518">&#1053;&#1072;&#1078;&#1080;&#1084;&#1072;&#1077;&#1090; "&#1055;&#1088;&#1077;&#1076;&#1099;&#1076;&#1091;&#1097;&#1080;&#1077; 10"</text><polygon fill="#181818" points="491,858.6055,501,862.6055,491,866.6055,495,862.6055" style="stroke:#181818;stroke-width:1.0;"/><line style="stroke:#181818;stroke-width:1.0;" x1="303" x2="497" y1="862.6055" y2="862.6055"/><text fill="#000000" font-family="sans-serif" font-size="13" lengthAdjust="spacing" textLength="86" x="310" y="857.3428">load_previous()</text><polygon fill="#181818" points="731,889.8965,741,893.8965,731,897.8965,735,893.8965" style="stroke:#181818;stroke-width:1.0;"/><line style="stroke:#181818;stroke-width:1.0;" x1="503" x2="737" y1="893.8965" y2="893.8965"/><text fill="#000000" font-family="sans-serif" font-size="13" lengthAdjust="spacing" textLength="195" x="510" y="888.6338">load_customers(page, page_size)</text><polygon fill="#181818" points="983,921.1875,993,925.1875,983,929.1875,987,925.1875" style="stroke:#181818;stroke-width:1.0;"/><line style="stroke:#181818;stroke-width:1.0;" x1="743" x2="989" y1="925.1875" y2="925.1875"/><text fill="#000000" font-family="sans-serif" font-size="13" lengthAdjust="spacing" textLength="136" x="750" y="919.9248">get_k_n_short_list(k, n)</text><polygon fill="#181818" points="1188.5,952.4785,1198.5,956.4785,1188.5,960.4785,1192.5,956.4785" style="stroke:#181818;stroke-width:1.0;"/><line style="stroke:#181818;stroke-width:1.0;" x1="995" x2="1194.5" y1="956.4785" y2="956.4785"/><text fill="#000000" font-family="sans-serif" font-size="13" lengthAdjust="spacing" textLength="156" x="1002" y="951.2158">&#1042;&#1099;&#1087;&#1086;&#1083;&#1085;&#1077;&#1085;&#1080;&#1077; SQL-&#1079;&#1072;&#1087;&#1088;&#1086;&#1089;&#1072;</text><polygon fill="#181818" points="1006,983.7695,996,987.7695,1006,991.7695,1002,987.7695" style="stroke:#181818;stroke-width:1.0;"/><line style="stroke:#181818;stroke-width:1.0;stroke-dasharray:2.0,2.0;" x1="1000" x2="1199.5" y1="987.7695" y2="987.7695"/><text fill="#000000" font-family="sans-serif" font-size="13" lengthAdjust="spacing" textLength="176" x="1012" y="982.5068">&#1042;&#1086;&#1079;&#1074;&#1088;&#1072;&#1097;&#1072;&#1077;&#1090; &#1089;&#1087;&#1080;&#1089;&#1086;&#1082; &#1082;&#1083;&#1080;&#1077;&#1085;&#1090;&#1086;&#1074;</text><polygon fill="#181818" points="754,1015.0605,744,1019.0605,754,1023.0605,750,1019.0605" style="stroke:#181818;stroke-width:1.0;"/><line style="stroke:#181818;stroke-width:1.0;stroke-dasharray:2.0,2.0;" x1="748" x2="994" y1="1019.0605" y2="1019.0605"/><text fill="#000000" font-family="sans-serif" font-size="13" lengthAdjust="spacing" textLength="176" x="760" y="1013.7979">&#1042;&#1086;&#1079;&#1074;&#1088;&#1072;&#1097;&#1072;&#1077;&#1090; &#1089;&#1087;&#1080;&#1089;&#1086;&#1082; &#1082;&#1083;&#1080;&#1077;&#1085;&#1090;&#1086;&#1074;</text><polygon fill="#181818" points="514,1046.3516,504,1050.3516,514,1054.3516,510,1050.3516" style="stroke:#181818;stroke-width:1.0;"/><line style="stroke:#181818;stroke-width:1.0;stroke-dasharray:2.0,2.0;" x1="508" x2="742" y1="1050.3516" y2="1050.3516"/><text fill="#000000" font-family="sans-serif" font-size="13" lengthAdjust="spacing" textLength="176" x="520" y="1045.0889">&#1042;&#1086;&#1079;&#1074;&#1088;&#1072;&#1097;&#1072;&#1077;&#1090; &#1089;&#1087;&#1080;&#1089;&#1086;&#1082; &#1082;&#1083;&#1080;&#1077;&#1085;&#1090;&#1086;&#1074;</text><polygon fill="#181818" points="314,1077.6426,304,1081.6426,314,1085.6426,310,1081.6426" style="stroke:#181818;stroke-width:1.0;"/><line style="stroke:#181818;stroke-width:1.0;" x1="308" x2="502" y1="1081.6426" y2="1081.6426"/><text fill="#000000" font-family="sans-serif" font-size="13" lengthAdjust="spacing" textLength="164" x="320" y="1076.3799">&#1059;&#1074;&#1077;&#1076;&#1086;&#1084;&#1083;&#1103;&#1077;&#1090; &#1086;&#1073; &#1086;&#1073;&#1085;&#1086;&#1074;&#1083;&#1077;&#1085;&#1080;&#1080;</text><line style="stroke:#181818;stroke-width:1.0;" x1="303" x2="345" y1="1112.9336" y2="1112.9336"/><line style="stroke:#181818;stroke-width:1.0;" x1="345" x2="345" y1="1112.9336" y2="1125.9336"/><line style="stroke:#181818;stroke-width:1.0;" x1="304" x2="345" y1="1125.9336" y2="1125.9336"/><polygon fill="#181818" points="314,1121.9336,304,1125.9336,314,1129.9336,310,1125.9336" style="stroke:#181818;stroke-width:1.0;"/><text fill="#000000" font-family="sans-serif" font-size="13" lengthAdjust="spacing" textLength="108" x="310" y="1107.6709">update(customers)</text><!--SRC=[xL9DQnin4Btlhn0-sH13Uzr388wFBVGZxdMHry8LsQmMISxNoKvF9T10xcq9-GEEoIR6Zks_CFf77MdNQsymDCan18CipRmtE_FcqL0BILgAIK8LQNa9bPg7FA6n9fK3okEAZN_4IpbroDcHlzjJMXmmkKVR4Vk64GUsbp8u5B6M8egOB2YxHSXnLiyoatPeejTeNrZoIIZTbKpjP2b7nx38tsM-n8JYEEB9fX85jqpgjFqcrRHD5SE-OXPgBZ8TcWtFQv7wjXF49_37dC74zCqvZ608gJaZi31z6CCKvd07ASpmddeMRLbM6MHTOV8URf7XqfbWIynAYGt8DPaiQGD-P2xWVjMF6PWBOWO49bXfXky-_a_nbxhRWxUYss9hElea4hGJXBbggfhGBjiYzWmKFsKrRmsyvFgaotIm7yI1-Ywa3YAkT7L_YyGPsiAQ3Upp4ZjSk4vcIv78ryyVwZZiq2auDmCOUiq6gHULuTA9CSBiqFpCvKRO0iPupc5YXvpQKdPG38poRpwUwuM5Yb4VY_xyScNHSrTSuyvIt3Lk1QQuHUUcETou0pL2ejsRKsjSh3yZzv8ErQnQBAkMspGl_HkxkaFQGzvT1OrYIzsQ7-ONzcpbV_-kij5JpWKnEzRLsfjPNgjP_kEMlzYkTSkvSymJ_998TiX5JxrvvjLwvXy0]--></g></svg>