<?xml version="1.0" encoding="us-ascii" standalone="no"?><svg xmlns="http://www.w3.org/2000/svg" xmlns:xlink="http://www.w3.org/1999/xlink" contentStyleType="text/css" height="1954px" preserveAspectRatio="none" style="width:1512px;height:1954px;background:#FFFFFF;" version="1.1" viewBox="0 0 1512 1954" width="1512px" zoomAndPan="magnify"><defs/><g><line style="stroke:#181818;stroke-width:0.5;stroke-dasharray:5.0,5.0;" x1="22" x2="22" y1="83.6211" y2="1871.3359"/><line style="stroke:#181818;stroke-width:0.5;stroke-dasharray:5.0,5.0;" x1="185.5" x2="185.5" y1="83.6211" y2="1871.3359"/><line style="stroke:#181818;stroke-width:0.5;stroke-dasharray:5.0,5.0;" x1="302.5" x2="302.5" y1="83.6211" y2="1871.3359"/><line style="stroke:#181818;stroke-width:0.5;stroke-dasharray:5.0,5.0;" x1="503" x2="503" y1="83.6211" y2="1871.3359"/><line style="stroke:#181818;stroke-width:0.5;stroke-dasharray:5.0,5.0;" x1="722" x2="722" y1="83.6211" y2="1871.3359"/><line style="stroke:#181818;stroke-width:0.5;stroke-dasharray:5.0,5.0;" x1="950" x2="950" y1="83.6211" y2="1871.3359"/><line style="stroke:#181818;stroke-width:0.5;stroke-dasharray:5.0,5.0;" x1="1155" x2="1155" y1="83.6211" y2="1871.3359"/><line style="stroke:#181818;stroke-width:0.5;stroke-dasharray:5.0,5.0;" x1="1377" x2="1377" y1="83.6211" y2="1871.3359"/><text fill="#000000" font-family="sans-serif" font-size="14" lengthAdjust="spacing" textLength="29" x="5" y="80.1074">User</text><ellipse cx="22.5" cy="13.5" fill="#E2E2F0" rx="8" ry="8" style="stroke:#181818;stroke-width:0.5;"/><path d="M22.5,21.5 L22.5,48.5 M9.5,29.5 L35.5,29.5 M22.5,48.5 L9.5,63.5 M22.5,48.5 L35.5,63.5 " fill="none" style="stroke:#181818;stroke-width:0.5;"/><text fill="#000000" font-family="sans-serif" font-size="14" lengthAdjust="spacing" textLength="29" x="5" y="1885.4434">User</text><ellipse cx="22.5" cy="1897.457" fill="#E2E2F0" rx="8" ry="8" style="stroke:#181818;stroke-width:0.5;"/><path d="M22.5,1905.457 L22.5,1932.457 M9.5,1913.457 L35.5,1913.457 M22.5,1932.457 L9.5,1947.457 M22.5,1932.457 L35.5,1947.457 " fill="none" style="stroke:#181818;stroke-width:0.5;"/><rect fill="#E2E2F0" height="32.6211" rx="2.5" ry="2.5" style="stroke:#181818;stroke-width:0.5;" width="44" x="163.5" y="50"/><text fill="#000000" font-family="sans-serif" font-size="14" lengthAdjust="spacing" textLength="30" x="170.5" y="72.1074">main</text><rect fill="#E2E2F0" height="32.6211" rx="2.5" ry="2.5" style="stroke:#181818;stroke-width:0.5;" width="44" x="163.5" y="1870.3359"/><text fill="#000000" font-family="sans-serif" font-size="14" lengthAdjust="spacing" textLength="30" x="170.5" y="1892.4434">main</text><rect fill="#E2E2F0" height="32.6211" rx="2.5" ry="2.5" style="stroke:#181818;stroke-width:0.5;" width="171" x="217.5" y="50"/><text fill="#000000" font-family="sans-serif" font-size="14" lengthAdjust="spacing" textLength="157" x="224.5" y="72.1074">view:CustomerTableView</text><rect fill="#E2E2F0" height="32.6211" rx="2.5" ry="2.5" style="stroke:#181818;stroke-width:0.5;" width="171" x="217.5" y="1870.3359"/><text fill="#000000" font-family="sans-serif" font-size="14" lengthAdjust="spacing" textLength="157" x="224.5" y="1892.4434">view:CustomerTableView</text><rect fill="#E2E2F0" height="32.6211" rx="2.5" ry="2.5" style="stroke:#181818;stroke-width:0.5;" width="200" x="403" y="50"/><text fill="#000000" font-family="sans-serif" font-size="14" lengthAdjust="spacing" textLength="186" x="410" y="72.1074">controller:CustomerController</text><rect fill="#E2E2F0" height="32.6211" rx="2.5" ry="2.5" style="stroke:#181818;stroke-width:0.5;" width="200" x="403" y="1870.3359"/><text fill="#000000" font-family="sans-serif" font-size="14" lengthAdjust="spacing" textLength="186" x="410" y="1892.4434">controller:CustomerController</text><rect fill="#E2E2F0" height="32.6211" rx="2.5" ry="2.5" style="stroke:#181818;stroke-width:0.5;" width="210" x="617" y="50"/><text fill="#000000" font-family="sans-serif" font-size="14" lengthAdjust="spacing" textLength="196" x="624" y="72.1074">adapter:CustomerRepPostgres</text><rect fill="#E2E2F0" height="32.6211" rx="2.5" ry="2.5" style="stroke:#181818;stroke-width:0.5;" width="210" x="617" y="1870.3359"/><text fill="#000000" font-family="sans-serif" font-size="14" lengthAdjust="spacing" textLength="196" x="624" y="1892.4434">adapter:CustomerRepPostgres</text><rect fill="#E2E2F0" height="32.6211" rx="2.5" ry="2.5" style="stroke:#181818;stroke-width:0.5;" width="224" x="838" y="50"/><text fill="#000000" font-family="sans-serif" font-size="14" lengthAdjust="spacing" textLength="210" x="845" y="72.1074">repository:CustomerRepPostgres</text><rect fill="#E2E2F0" height="32.6211" rx="2.5" ry="2.5" style="stroke:#181818;stroke-width:0.5;" width="224" x="838" y="1870.3359"/><text fill="#000000" font-family="sans-serif" font-size="14" lengthAdjust="spacing" textLength="210" x="845" y="1892.4434">repository:CustomerRepPostgres</text><rect fill="#E2E2F0" height="32.6211" rx="2.5" ry="2.5" style="stroke:#181818;stroke-width:0.5;" width="167" x="1072" y="50"/><text fill="#000000" font-family="sans-serif" font-size="14" lengthAdjust="spacing" textLength="153" x="1079" y="72.1074">db:DatabaseConnection</text><rect fill="#E2E2F0" height="32.6211" rx="2.5" ry="2.5" style="stroke:#181818;stroke-width:0.5;" width="167" x="1072" y="1870.3359"/><text fill="#000000" font-family="sans-serif" font-size="14" lengthAdjust="spacing" textLength="153" x="1079" y="1892.4434">db:DatabaseConnection</text><rect fill="#E2E2F0" height="32.6211" rx="2.5" ry="2.5" style="stroke:#181818;stroke-width:0.5;" width="257" x="1249" y="50"/><text fill="#000000" font-family="sans-serif" font-size="14" lengthAdjust="spacing" textLength="243" x="1256" y="72.1074">add_controller:AddCustomerController</text><rect fill="#E2E2F0" height="32.6211" rx="2.5" ry="2.5" style="stroke:#181818;stroke-width:0.5;" width="257" x="1249" y="1870.3359"/><text fill="#000000" font-family="sans-serif" font-size="14" lengthAdjust="spacing" textLength="243" x="1256" y="1892.4434">add_controller:AddCustomerController</text><polygon fill="#181818" points="173.5,112.9121,183.5,116.9121,173.5,120.9121,177.5,116.9121" style="stroke:#181818;stroke-width:1.0;"/><line style="stroke:#181818;stroke-width:1.0;" x1="22.5" x2="179.5" y1="116.9121" y2="116.9121"/><text fill="#000000" font-family="sans-serif" font-size="13" lengthAdjust="spacing" textLength="139" x="29.5" y="111.6494">&#1054;&#1090;&#1082;&#1088;&#1099;&#1074;&#1072;&#1077;&#1090; &#1087;&#1088;&#1080;&#1083;&#1086;&#1078;&#1077;&#1085;&#1080;&#1077;</text><polygon fill="#181818" points="291,144.2031,301,148.2031,291,152.2031,295,148.2031" style="stroke:#181818;stroke-width:1.0;"/><line style="stroke:#181818;stroke-width:1.0;" x1="185.5" x2="297" y1="148.2031" y2="148.2031"/><text fill="#000000" font-family="sans-serif" font-size="13" lengthAdjust="spacing" textLength="90" x="192.5" y="142.9404">&#1057;&#1086;&#1079;&#1076;&#1072;&#1085;&#1080;&#1077; View</text><polygon fill="#181818" points="491,175.4941,501,179.4941,491,183.4941,495,179.4941" style="stroke:#181818;stroke-width:1.0;"/><line style="stroke:#181818;stroke-width:1.0;" x1="185.5" x2="497" y1="179.4941" y2="179.4941"/><text fill="#000000" font-family="sans-serif" font-size="13" lengthAdjust="spacing" textLength="117" x="192.5" y="174.2314">&#1057;&#1086;&#1079;&#1076;&#1072;&#1085;&#1080;&#1077; Controller</text><polygon fill="#181818" points="491,206.7852,501,210.7852,491,214.7852,495,210.7852" style="stroke:#181818;stroke-width:1.0;"/><line style="stroke:#181818;stroke-width:1.0;" x1="303" x2="497" y1="210.7852" y2="210.7852"/><text fill="#000000" font-family="sans-serif" font-size="13" lengthAdjust="spacing" textLength="176" x="310" y="205.5225">&#1057;&#1074;&#1103;&#1079;&#1099;&#1074;&#1072;&#1077;&#1090;&#1089;&#1103; &#1089; &#1082;&#1086;&#1085;&#1090;&#1088;&#1086;&#1083;&#1083;&#1077;&#1088;&#1086;&#1084;</text><polygon fill="#181818" points="710,238.0762,720,242.0762,710,246.0762,714,242.0762" style="stroke:#181818;stroke-width:1.0;"/><line style="stroke:#181818;stroke-width:1.0;" x1="503" x2="716" y1="242.0762" y2="242.0762"/><text fill="#000000" font-family="sans-serif" font-size="13" lengthAdjust="spacing" textLength="195" x="510" y="236.8135">load_customers(page, page_size)</text><polygon fill="#181818" points="938,269.3672,948,273.3672,938,277.3672,942,273.3672" style="stroke:#181818;stroke-width:1.0;"/><line style="stroke:#181818;stroke-width:1.0;" x1="722" x2="944" y1="273.3672" y2="273.3672"/><text fill="#000000" font-family="sans-serif" font-size="13" lengthAdjust="spacing" textLength="136" x="729" y="268.1045">get_k_n_short_list(k, n)</text><polygon fill="#181818" points="1143.5,300.6582,1153.5,304.6582,1143.5,308.6582,1147.5,304.6582" style="stroke:#181818;stroke-width:1.0;"/><line style="stroke:#181818;stroke-width:1.0;" x1="950" x2="1149.5" y1="304.6582" y2="304.6582"/><text fill="#000000" font-family="sans-serif" font-size="13" lengthAdjust="spacing" textLength="156" x="957" y="299.3955">&#1042;&#1099;&#1087;&#1086;&#1083;&#1085;&#1077;&#1085;&#1080;&#1077; SQL-&#1079;&#1072;&#1087;&#1088;&#1086;&#1089;&#1072;</text><polygon fill="#181818" points="961,331.9492,951,335.9492,961,339.9492,957,335.9492" style="stroke:#181818;stroke-width:1.0;"/><line style="stroke:#181818;stroke-width:1.0;stroke-dasharray:2.0,2.0;" x1="955" x2="1154.5" y1="335.9492" y2="335.9492"/><text fill="#000000" font-family="sans-serif" font-size="13" lengthAdjust="spacing" textLength="176" x="967" y="330.6865">&#1042;&#1086;&#1079;&#1074;&#1088;&#1072;&#1097;&#1072;&#1077;&#1090; &#1089;&#1087;&#1080;&#1089;&#1086;&#1082; &#1082;&#1083;&#1080;&#1077;&#1085;&#1090;&#1086;&#1074;</text><polygon fill="#181818" points="733,363.2402,723,367.2402,733,371.2402,729,367.2402" style="stroke:#181818;stroke-width:1.0;"/><line style="stroke:#181818;stroke-width:1.0;stroke-dasharray:2.0,2.0;" x1="727" x2="949" y1="367.2402" y2="367.2402"/><text fill="#000000" font-family="sans-serif" font-size="13" lengthAdjust="spacing" textLength="176" x="739" y="361.9775">&#1042;&#1086;&#1079;&#1074;&#1088;&#1072;&#1097;&#1072;&#1077;&#1090; &#1089;&#1087;&#1080;&#1089;&#1086;&#1082; &#1082;&#1083;&#1080;&#1077;&#1085;&#1090;&#1086;&#1074;</text><polygon fill="#181818" points="514,394.5313,504,398.5313,514,402.5313,510,398.5313" style="stroke:#181818;stroke-width:1.0;"/><line style="stroke:#181818;stroke-width:1.0;stroke-dasharray:2.0,2.0;" x1="508" x2="721" y1="398.5313" y2="398.5313"/><text fill="#000000" font-family="sans-serif" font-size="13" lengthAdjust="spacing" textLength="176" x="520" y="393.2686">&#1042;&#1086;&#1079;&#1074;&#1088;&#1072;&#1097;&#1072;&#1077;&#1090; &#1089;&#1087;&#1080;&#1089;&#1086;&#1082; &#1082;&#1083;&#1080;&#1077;&#1085;&#1090;&#1086;&#1074;</text><polygon fill="#181818" points="314,425.8223,304,429.8223,314,433.8223,310,429.8223" style="stroke:#181818;stroke-width:1.0;"/><line style="stroke:#181818;stroke-width:1.0;" x1="308" x2="502" y1="429.8223" y2="429.8223"/><text fill="#000000" font-family="sans-serif" font-size="13" lengthAdjust="spacing" textLength="164" x="320" y="424.5596">&#1059;&#1074;&#1077;&#1076;&#1086;&#1084;&#1083;&#1103;&#1077;&#1090; &#1086;&#1073; &#1086;&#1073;&#1085;&#1086;&#1074;&#1083;&#1077;&#1085;&#1080;&#1080;</text><line style="stroke:#181818;stroke-width:1.0;" x1="303" x2="345" y1="461.1133" y2="461.1133"/><line style="stroke:#181818;stroke-width:1.0;" x1="345" x2="345" y1="461.1133" y2="474.1133"/><line style="stroke:#181818;stroke-width:1.0;" x1="304" x2="345" y1="474.1133" y2="474.1133"/><polygon fill="#181818" points="314,470.1133,304,474.1133,314,478.1133,310,474.1133" style="stroke:#181818;stroke-width:1.0;"/><text fill="#000000" font-family="sans-serif" font-size="13" lengthAdjust="spacing" textLength="108" x="310" y="455.8506">update(customers)</text><polygon fill="#181818" points="291,501.4043,301,505.4043,291,509.4043,295,505.4043" style="stroke:#181818;stroke-width:1.0;"/><line style="stroke:#181818;stroke-width:1.0;" x1="22.5" x2="297" y1="505.4043" y2="505.4043"/><text fill="#000000" font-family="sans-serif" font-size="13" lengthAdjust="spacing" textLength="166" x="29.5" y="500.1416">&#1053;&#1072;&#1078;&#1080;&#1084;&#1072;&#1077;&#1090; "&#1057;&#1083;&#1077;&#1076;&#1091;&#1102;&#1097;&#1080;&#1077; 10"</text><polygon fill="#181818" points="491,532.6953,501,536.6953,491,540.6953,495,536.6953" style="stroke:#181818;stroke-width:1.0;"/><line style="stroke:#181818;stroke-width:1.0;" x1="303" x2="497" y1="536.6953" y2="536.6953"/><text fill="#000000" font-family="sans-serif" font-size="13" lengthAdjust="spacing" textLength="64" x="310" y="531.4326">load_next()</text><polygon fill="#181818" points="710,563.9863,720,567.9863,710,571.9863,714,567.9863" style="stroke:#181818;stroke-width:1.0;"/><line style="stroke:#181818;stroke-width:1.0;" x1="503" x2="716" y1="567.9863" y2="567.9863"/><text fill="#000000" font-family="sans-serif" font-size="13" lengthAdjust="spacing" textLength="195" x="510" y="562.7236">load_customers(page, page_size)</text><polygon fill="#181818" points="938,595.2773,948,599.2773,938,603.2773,942,599.2773" style="stroke:#181818;stroke-width:1.0;"/><line style="stroke:#181818;stroke-width:1.0;" x1="722" x2="944" y1="599.2773" y2="599.2773"/><text fill="#000000" font-family="sans-serif" font-size="13" lengthAdjust="spacing" textLength="136" x="729" y="594.0146">get_k_n_short_list(k, n)</text><polygon fill="#181818" points="1143.5,626.5684,1153.5,630.5684,1143.5,634.5684,1147.5,630.5684" style="stroke:#181818;stroke-width:1.0;"/><line style="stroke:#181818;stroke-width:1.0;" x1="950" x2="1149.5" y1="630.5684" y2="630.5684"/><text fill="#000000" font-family="sans-serif" font-size="13" lengthAdjust="spacing" textLength="156" x="957" y="625.3057">&#1042;&#1099;&#1087;&#1086;&#1083;&#1085;&#1077;&#1085;&#1080;&#1077; SQL-&#1079;&#1072;&#1087;&#1088;&#1086;&#1089;&#1072;</text><polygon fill="#181818" points="961,657.8594,951,661.8594,961,665.8594,957,661.8594" style="stroke:#181818;stroke-width:1.0;"/><line style="stroke:#181818;stroke-width:1.0;stroke-dasharray:2.0,2.0;" x1="955" x2="1154.5" y1="661.8594" y2="661.8594"/><text fill="#000000" font-family="sans-serif" font-size="13" lengthAdjust="spacing" textLength="176" x="967" y="656.5967">&#1042;&#1086;&#1079;&#1074;&#1088;&#1072;&#1097;&#1072;&#1077;&#1090; &#1089;&#1087;&#1080;&#1089;&#1086;&#1082; &#1082;&#1083;&#1080;&#1077;&#1085;&#1090;&#1086;&#1074;</text><polygon fill="#181818" points="733,689.1504,723,693.1504,733,697.1504,729,693.1504" style="stroke:#181818;stroke-width:1.0;"/><line style="stroke:#181818;stroke-width:1.0;stroke-dasharray:2.0,2.0;" x1="727" x2="949" y1="693.1504" y2="693.1504"/><text fill="#000000" font-family="sans-serif" font-size="13" lengthAdjust="spacing" textLength="176" x="739" y="687.8877">&#1042;&#1086;&#1079;&#1074;&#1088;&#1072;&#1097;&#1072;&#1077;&#1090; &#1089;&#1087;&#1080;&#1089;&#1086;&#1082; &#1082;&#1083;&#1080;&#1077;&#1085;&#1090;&#1086;&#1074;</text><polygon fill="#181818" points="514,720.4414,504,724.4414,514,728.4414,510,724.4414" style="stroke:#181818;stroke-width:1.0;"/><line style="stroke:#181818;stroke-width:1.0;stroke-dasharray:2.0,2.0;" x1="508" x2="721" y1="724.4414" y2="724.4414"/><text fill="#000000" font-family="sans-serif" font-size="13" lengthAdjust="spacing" textLength="176" x="520" y="719.1787">&#1042;&#1086;&#1079;&#1074;&#1088;&#1072;&#1097;&#1072;&#1077;&#1090; &#1089;&#1087;&#1080;&#1089;&#1086;&#1082; &#1082;&#1083;&#1080;&#1077;&#1085;&#1090;&#1086;&#1074;</text><polygon fill="#181818" points="314,751.7324,304,755.7324,314,759.7324,310,755.7324" style="stroke:#181818;stroke-width:1.0;"/><line style="stroke:#181818;stroke-width:1.0;" x1="308" x2="502" y1="755.7324" y2="755.7324"/><text fill="#000000" font-family="sans-serif" font-size="13" lengthAdjust="spacing" textLength="164" x="320" y="750.4697">&#1059;&#1074;&#1077;&#1076;&#1086;&#1084;&#1083;&#1103;&#1077;&#1090; &#1086;&#1073; &#1086;&#1073;&#1085;&#1086;&#1074;&#1083;&#1077;&#1085;&#1080;&#1080;</text><line style="stroke:#181818;stroke-width:1.0;" x1="303" x2="345" y1="787.0234" y2="787.0234"/><line style="stroke:#181818;stroke-width:1.0;" x1="345" x2="345" y1="787.0234" y2="800.0234"/><line style="stroke:#181818;stroke-width:1.0;" x1="304" x2="345" y1="800.0234" y2="800.0234"/><polygon fill="#181818" points="314,796.0234,304,800.0234,314,804.0234,310,800.0234" style="stroke:#181818;stroke-width:1.0;"/><text fill="#000000" font-family="sans-serif" font-size="13" lengthAdjust="spacing" textLength="108" x="310" y="781.7607">update(customers)</text><polygon fill="#181818" points="291,827.3145,301,831.3145,291,835.3145,295,831.3145" style="stroke:#181818;stroke-width:1.0;"/><line style="stroke:#181818;stroke-width:1.0;" x1="22.5" x2="297" y1="831.3145" y2="831.3145"/><text fill="#000000" font-family="sans-serif" font-size="13" lengthAdjust="spacing" textLength="173" x="29.5" y="826.0518">&#1053;&#1072;&#1078;&#1080;&#1084;&#1072;&#1077;&#1090; "&#1055;&#1088;&#1077;&#1076;&#1099;&#1076;&#1091;&#1097;&#1080;&#1077; 10"</text><polygon fill="#181818" points="491,858.6055,501,862.6055,491,866.6055,495,862.6055" style="stroke:#181818;stroke-width:1.0;"/><line style="stroke:#181818;stroke-width:1.0;" x1="303" x2="497" y1="862.6055" y2="862.6055"/><text fill="#000000" font-family="sans-serif" font-size="13" lengthAdjust="spacing" textLength="86" x="310" y="857.3428">load_previous()</text><polygon fill="#181818" points="710,889.8965,720,893.8965,710,897.8965,714,893.8965" style="stroke:#181818;stroke-width:1.0;"/><line style="stroke:#181818;stroke-width:1.0;" x1="503" x2="716" y1="893.8965" y2="893.8965"/><text fill="#000000" font-family="sans-serif" font-size="13" lengthAdjust="spacing" textLength="195" x="510" y="888.6338">load_customers(page, page_size)</text><polygon fill="#181818" points="938,921.1875,948,925.1875,938,929.1875,942,925.1875" style="stroke:#181818;stroke-width:1.0;"/><line style="stroke:#181818;stroke-width:1.0;" x1="722" x2="944" y1="925.1875" y2="925.1875"/><text fill="#000000" font-family="sans-serif" font-size="13" lengthAdjust="spacing" textLength="136" x="729" y="919.9248">get_k_n_short_list(k, n)</text><polygon fill="#181818" points="1143.5,952.4785,1153.5,956.4785,1143.5,960.4785,1147.5,956.4785" style="stroke:#181818;stroke-width:1.0;"/><line style="stroke:#181818;stroke-width:1.0;" x1="950" x2="1149.5" y1="956.4785" y2="956.4785"/><text fill="#000000" font-family="sans-serif" font-size="13" lengthAdjust="spacing" textLength="156" x="957" y="951.2158">&#1042;&#1099;&#1087;&#1086;&#1083;&#1085;&#1077;&#1085;&#1080;&#1077; SQL-&#1079;&#1072;&#1087;&#1088;&#1086;&#1089;&#1072;</text><polygon fill="#181818" points="961,983.7695,951,987.7695,961,991.7695,957,987.7695" style="stroke:#181818;stroke-width:1.0;"/><line style="stroke:#181818;stroke-width:1.0;stroke-dasharray:2.0,2.0;" x1="955" x2="1154.5" y1="987.7695" y2="987.7695"/><text fill="#000000" font-family="sans-serif" font-size="13" lengthAdjust="spacing" textLength="176" x="967" y="982.5068">&#1042;&#1086;&#1079;&#1074;&#1088;&#1072;&#1097;&#1072;&#1077;&#1090; &#1089;&#1087;&#1080;&#1089;&#1086;&#1082; &#1082;&#1083;&#1080;&#1077;&#1085;&#1090;&#1086;&#1074;</text><polygon fill="#181818" points="733,1015.0605,723,1019.0605,733,1023.0605,729,1019.0605" style="stroke:#181818;stroke-width:1.0;"/><line style="stroke:#181818;stroke-width:1.0;stroke-dasharray:2.0,2.0;" x1="727" x2="949" y1="1019.0605" y2="1019.0605"/><text fill="#000000" font-family="sans-serif" font-size="13" lengthAdjust="spacing" textLength="176" x="739" y="1013.7979">&#1042;&#1086;&#1079;&#1074;&#1088;&#1072;&#1097;&#1072;&#1077;&#1090; &#1089;&#1087;&#1080;&#1089;&#1086;&#1082; &#1082;&#1083;&#1080;&#1077;&#1085;&#1090;&#1086;&#1074;</text><polygon fill="#181818" points="514,1046.3516,504,1050.3516,514,1054.3516,510,1050.3516" style="stroke:#181818;stroke-width:1.0;"/><line style="stroke:#181818;stroke-width:1.0;stroke-dasharray:2.0,2.0;" x1="508" x2="721" y1="1050.3516" y2="1050.3516"/><text fill="#000000" font-family="sans-serif" font-size="13" lengthAdjust="spacing" textLength="176" x="520" y="1045.0889">&#1042;&#1086;&#1079;&#1074;&#1088;&#1072;&#1097;&#1072;&#1077;&#1090; &#1089;&#1087;&#1080;&#1089;&#1086;&#1082; &#1082;&#1083;&#1080;&#1077;&#1085;&#1090;&#1086;&#1074;</text><polygon fill="#181818" points="314,1077.6426,304,1081.6426,314,1085.6426,310,1081.6426" style="stroke:#181818;stroke-width:1.0;"/><line style="stroke:#181818;stroke-width:1.0;" x1="308" x2="502" y1="1081.6426" y2="1081.6426"/><text fill="#000000" font-family="sans-serif" font-size="13" lengthAdjust="spacing" textLength="164" x="320" y="1076.3799">&#1059;&#1074;&#1077;&#1076;&#1086;&#1084;&#1083;&#1103;&#1077;&#1090; &#1086;&#1073; &#1086;&#1073;&#1085;&#1086;&#1074;&#1083;&#1077;&#1085;&#1080;&#1080;</text><line style="stroke:#181818;stroke-width:1.0;" x1="303" x2="345" y1="1112.9336" y2="1112.9336"/><line style="stroke:#181818;stroke-width:1.0;" x1="345" x2="345" y1="1112.9336" y2="1125.9336"/><line style="stroke:#181818;stroke-width:1.0;" x1="304" x2="345" y1="1125.9336" y2="1125.9336"/><polygon fill="#181818" points="314,1121.9336,304,1125.9336,314,1129.9336,310,1125.9336" style="stroke:#181818;stroke-width:1.0;"/><text fill="#000000" font-family="sans-serif" font-size="13" lengthAdjust="spacing" textLength="108" x="310" y="1107.6709">update(customers)</text><polygon fill="#181818" points="291,1153.2246,301,1157.2246,291,1161.2246,295,1157.2246" style="stroke:#181818;stroke-width:1.0;"/><line style="stroke:#181818;stroke-width:1.0;" x1="22.5" x2="297" y1="1157.2246" y2="1157.2246"/><text fill="#000000" font-family="sans-serif" font-size="13" lengthAdjust="spacing" textLength="180" x="29.5" y="1151.9619">&#1053;&#1072;&#1078;&#1080;&#1084;&#1072;&#1077;&#1090; "&#1044;&#1086;&#1073;&#1072;&#1074;&#1080;&#1090;&#1100; &#1082;&#1083;&#1080;&#1077;&#1085;&#1090;&#1072;"</text><polygon fill="#181818" points="1365.5,1184.5156,1375.5,1188.5156,1365.5,1192.5156,1369.5,1188.5156" style="stroke:#181818;stroke-width:1.0;"/><line style="stroke:#181818;stroke-width:1.0;" x1="303" x2="1371.5" y1="1188.5156" y2="1188.5156"/><text fill="#000000" font-family="sans-serif" font-size="13" lengthAdjust="spacing" textLength="174" x="310" y="1183.2529">open_add_customer_window()</text><line style="stroke:#181818;stroke-width:1.0;" x1="1377.5" x2="1419.5" y1="1219.8066" y2="1219.8066"/><line style="stroke:#181818;stroke-width:1.0;" x1="1419.5" x2="1419.5" y1="1219.8066" y2="1232.8066"/><line style="stroke:#181818;stroke-width:1.0;" x1="1378.5" x2="1419.5" y1="1232.8066" y2="1232.8066"/><polygon fill="#181818" points="1388.5,1228.8066,1378.5,1232.8066,1388.5,1236.8066,1384.5,1232.8066" style="stroke:#181818;stroke-width:1.0;"/><text fill="#000000" font-family="sans-serif" font-size="13" lengthAdjust="spacing" textLength="115" x="1384.5" y="1214.5439">show_add_window()</text><polygon fill="#181818" points="314,1260.0977,304,1264.0977,314,1268.0977,310,1264.0977" style="stroke:#181818;stroke-width:1.0;"/><line style="stroke:#181818;stroke-width:1.0;" x1="308" x2="1376.5" y1="1264.0977" y2="1264.0977"/><text fill="#000000" font-family="sans-serif" font-size="13" lengthAdjust="spacing" textLength="141" x="320" y="1258.835">&#1042;&#1074;&#1086;&#1076; &#1076;&#1072;&#1085;&#1085;&#1099;&#1093; &#1086; &#1082;&#1083;&#1080;&#1077;&#1085;&#1090;&#1077;</text><polygon fill="#181818" points="733,1291.3887,723,1295.3887,733,1299.3887,729,1295.3887" style="stroke:#181818;stroke-width:1.0;"/><line style="stroke:#181818;stroke-width:1.0;" x1="727" x2="1376.5" y1="1295.3887" y2="1295.3887"/><text fill="#000000" font-family="sans-serif" font-size="13" lengthAdjust="spacing" textLength="174" x="739" y="1290.126">add_customer(new_customer)</text><polygon fill="#181818" points="938,1322.6797,948,1326.6797,938,1330.6797,942,1326.6797" style="stroke:#181818;stroke-width:1.0;"/><line style="stroke:#181818;stroke-width:1.0;" x1="722" x2="944" y1="1326.6797" y2="1326.6797"/><text fill="#000000" font-family="sans-serif" font-size="13" lengthAdjust="spacing" textLength="174" x="729" y="1321.417">add_customer(new_customer)</text><polygon fill="#181818" points="1143.5,1353.9707,1153.5,1357.9707,1143.5,1361.9707,1147.5,1357.9707" style="stroke:#181818;stroke-width:1.0;"/><line style="stroke:#181818;stroke-width:1.0;" x1="950" x2="1149.5" y1="1357.9707" y2="1357.9707"/><text fill="#000000" font-family="sans-serif" font-size="13" lengthAdjust="spacing" textLength="156" x="957" y="1352.708">&#1042;&#1099;&#1087;&#1086;&#1083;&#1085;&#1077;&#1085;&#1080;&#1077; SQL-&#1079;&#1072;&#1087;&#1088;&#1086;&#1089;&#1072;</text><polygon fill="#181818" points="961,1385.2617,951,1389.2617,961,1393.2617,957,1389.2617" style="stroke:#181818;stroke-width:1.0;"/><line style="stroke:#181818;stroke-width:1.0;stroke-dasharray:2.0,2.0;" x1="955" x2="1154.5" y1="1389.2617" y2="1389.2617"/><text fill="#000000" font-family="sans-serif" font-size="13" lengthAdjust="spacing" textLength="163" x="967" y="1383.999">&#1053;&#1086;&#1074;&#1099;&#1081; ID &#1085;&#1077; &#1074;&#1086;&#1079;&#1074;&#1088;&#1072;&#1097;&#1072;&#1077;&#1090;&#1089;&#1103;</text><polygon fill="#181818" points="733,1416.5527,723,1420.5527,733,1424.5527,729,1420.5527" style="stroke:#181818;stroke-width:1.0;"/><line style="stroke:#181818;stroke-width:1.0;stroke-dasharray:2.0,2.0;" x1="727" x2="949" y1="1420.5527" y2="1420.5527"/><text fill="#000000" font-family="sans-serif" font-size="13" lengthAdjust="spacing" textLength="204" x="739" y="1415.29">&#1054;&#1087;&#1077;&#1088;&#1072;&#1094;&#1080;&#1103; &#1076;&#1086;&#1073;&#1072;&#1074;&#1083;&#1077;&#1085;&#1080;&#1103; &#1079;&#1072;&#1074;&#1077;&#1088;&#1096;&#1077;&#1085;&#1072;</text><polygon fill="#181818" points="1365.5,1447.8438,1375.5,1451.8438,1365.5,1455.8438,1369.5,1451.8438" style="stroke:#181818;stroke-width:1.0;"/><line style="stroke:#181818;stroke-width:1.0;stroke-dasharray:2.0,2.0;" x1="722" x2="1371.5" y1="1451.8438" y2="1451.8438"/><text fill="#000000" font-family="sans-serif" font-size="13" lengthAdjust="spacing" textLength="205" x="729" y="1446.5811">&#1047;&#1072;&#1074;&#1077;&#1088;&#1096;&#1072;&#1077;&#1090;&#1089;&#1103; &#1076;&#1086;&#1073;&#1072;&#1074;&#1083;&#1077;&#1085;&#1080;&#1077; &#1082;&#1083;&#1080;&#1077;&#1085;&#1090;&#1072;</text><polygon fill="#181818" points="314,1479.1348,304,1483.1348,314,1487.1348,310,1483.1348" style="stroke:#181818;stroke-width:1.0;"/><line style="stroke:#181818;stroke-width:1.0;" x1="308" x2="1376.5" y1="1483.1348" y2="1483.1348"/><text fill="#000000" font-family="sans-serif" font-size="13" lengthAdjust="spacing" textLength="232" x="320" y="1477.8721">&#1047;&#1072;&#1082;&#1088;&#1099;&#1090;&#1080;&#1077; &#1086;&#1082;&#1085;&#1072; &#1080; &#1086;&#1073;&#1085;&#1086;&#1074;&#1083;&#1077;&#1085;&#1080;&#1077; &#1089;&#1090;&#1088;&#1072;&#1085;&#1080;&#1094;&#1099;</text><line style="stroke:#181818;stroke-width:1.0;" x1="303" x2="345" y1="1514.4258" y2="1514.4258"/><line style="stroke:#181818;stroke-width:1.0;" x1="345" x2="345" y1="1514.4258" y2="1527.4258"/><line style="stroke:#181818;stroke-width:1.0;" x1="304" x2="345" y1="1527.4258" y2="1527.4258"/><polygon fill="#181818" points="314,1523.4258,304,1527.4258,314,1531.4258,310,1527.4258" style="stroke:#181818;stroke-width:1.0;"/><text fill="#000000" font-family="sans-serif" font-size="13" lengthAdjust="spacing" textLength="82" x="310" y="1509.1631">refresh_page()</text><polygon fill="#181818" points="291,1554.7168,301,1558.7168,291,1562.7168,295,1558.7168" style="stroke:#181818;stroke-width:1.0;"/><line style="stroke:#181818;stroke-width:1.0;" x1="22.5" x2="297" y1="1558.7168" y2="1558.7168"/><text fill="#000000" font-family="sans-serif" font-size="13" lengthAdjust="spacing" textLength="173" x="29.5" y="1553.4541">&#1053;&#1072;&#1078;&#1080;&#1084;&#1072;&#1077;&#1090; "&#1059;&#1076;&#1072;&#1083;&#1080;&#1090;&#1100; &#1082;&#1083;&#1080;&#1077;&#1085;&#1090;&#1072;"</text><polygon fill="#181818" points="491,1586.0078,501,1590.0078,491,1594.0078,495,1590.0078" style="stroke:#181818;stroke-width:1.0;"/><line style="stroke:#181818;stroke-width:1.0;" x1="303" x2="497" y1="1590.0078" y2="1590.0078"/><text fill="#000000" font-family="sans-serif" font-size="13" lengthAdjust="spacing" textLength="110" x="310" y="1584.7451">remove_customer()</text><polygon fill="#181818" points="710,1617.2988,720,1621.2988,710,1625.2988,714,1621.2988" style="stroke:#181818;stroke-width:1.0;"/><line style="stroke:#181818;stroke-width:1.0;" x1="503" x2="716" y1="1621.2988" y2="1621.2988"/><text fill="#000000" font-family="sans-serif" font-size="13" lengthAdjust="spacing" textLength="152" x="510" y="1616.0361">delete_by_id(customer_id)</text><polygon fill="#181818" points="938,1648.5898,948,1652.5898,938,1656.5898,942,1652.5898" style="stroke:#181818;stroke-width:1.0;"/><line style="stroke:#181818;stroke-width:1.0;" x1="722" x2="944" y1="1652.5898" y2="1652.5898"/><text fill="#000000" font-family="sans-serif" font-size="13" lengthAdjust="spacing" textLength="152" x="729" y="1647.3271">delete_by_id(customer_id)</text><polygon fill="#181818" points="1143.5,1679.8809,1153.5,1683.8809,1143.5,1687.8809,1147.5,1683.8809" style="stroke:#181818;stroke-width:1.0;"/><line style="stroke:#181818;stroke-width:1.0;" x1="950" x2="1149.5" y1="1683.8809" y2="1683.8809"/><text fill="#000000" font-family="sans-serif" font-size="13" lengthAdjust="spacing" textLength="156" x="957" y="1678.6182">&#1042;&#1099;&#1087;&#1086;&#1083;&#1085;&#1077;&#1085;&#1080;&#1077; SQL-&#1079;&#1072;&#1087;&#1088;&#1086;&#1089;&#1072;</text><polygon fill="#181818" points="961,1711.1719,951,1715.1719,961,1719.1719,957,1715.1719" style="stroke:#181818;stroke-width:1.0;"/><line style="stroke:#181818;stroke-width:1.0;stroke-dasharray:2.0,2.0;" x1="955" x2="1154.5" y1="1715.1719" y2="1715.1719"/><text fill="#000000" font-family="sans-serif" font-size="13" lengthAdjust="spacing" textLength="156" x="967" y="1709.9092">&#1055;&#1086;&#1076;&#1090;&#1074;&#1077;&#1088;&#1078;&#1076;&#1077;&#1085;&#1080;&#1077; &#1091;&#1076;&#1072;&#1083;&#1077;&#1085;&#1080;&#1103;</text><polygon fill="#181818" points="733,1742.4629,723,1746.4629,733,1750.4629,729,1746.4629" style="stroke:#181818;stroke-width:1.0;"/><line style="stroke:#181818;stroke-width:1.0;stroke-dasharray:2.0,2.0;" x1="727" x2="949" y1="1746.4629" y2="1746.4629"/><text fill="#000000" font-family="sans-serif" font-size="13" lengthAdjust="spacing" textLength="190" x="739" y="1741.2002">&#1054;&#1087;&#1077;&#1088;&#1072;&#1094;&#1080;&#1103; &#1091;&#1076;&#1072;&#1083;&#1077;&#1085;&#1080;&#1103; &#1079;&#1072;&#1074;&#1077;&#1088;&#1096;&#1077;&#1085;&#1072;</text><polygon fill="#181818" points="514,1773.7539,504,1777.7539,514,1781.7539,510,1777.7539" style="stroke:#181818;stroke-width:1.0;"/><line style="stroke:#181818;stroke-width:1.0;stroke-dasharray:2.0,2.0;" x1="508" x2="721" y1="1777.7539" y2="1777.7539"/><text fill="#000000" font-family="sans-serif" font-size="13" lengthAdjust="spacing" textLength="191" x="520" y="1772.4912">&#1047;&#1072;&#1074;&#1077;&#1088;&#1096;&#1072;&#1077;&#1090;&#1089;&#1103; &#1091;&#1076;&#1072;&#1083;&#1077;&#1085;&#1080;&#1077; &#1082;&#1083;&#1080;&#1077;&#1085;&#1090;&#1072;</text><polygon fill="#181818" points="314,1805.0449,304,1809.0449,314,1813.0449,310,1809.0449" style="stroke:#181818;stroke-width:1.0;"/><line style="stroke:#181818;stroke-width:1.0;" x1="308" x2="502" y1="1809.0449" y2="1809.0449"/><text fill="#000000" font-family="sans-serif" font-size="13" lengthAdjust="spacing" textLength="164" x="320" y="1803.7822">&#1059;&#1074;&#1077;&#1076;&#1086;&#1084;&#1083;&#1103;&#1077;&#1090; &#1086;&#1073; &#1086;&#1073;&#1085;&#1086;&#1074;&#1083;&#1077;&#1085;&#1080;&#1080;</text><line style="stroke:#181818;stroke-width:1.0;" x1="303" x2="345" y1="1840.3359" y2="1840.3359"/><line style="stroke:#181818;stroke-width:1.0;" x1="345" x2="345" y1="1840.3359" y2="1853.3359"/><line style="stroke:#181818;stroke-width:1.0;" x1="304" x2="345" y1="1853.3359" y2="1853.3359"/><polygon fill="#181818" points="314,1849.3359,304,1853.3359,314,1857.3359,310,1853.3359" style="stroke:#181818;stroke-width:1.0;"/><text fill="#000000" font-family="sans-serif" font-size="13" lengthAdjust="spacing" textLength="82" x="310" y="1835.0732">refresh_page()</text><!--SRC=[xLRBJjj05DtdAqPP1GcaTfj59MWsbLgfBxgr9l4KB8B7iWTIkkAXebQfYeGgTGMeuWVSA8QKaF0BCt_KEpU3xN4II4jte4ZEUEQUwtFFFMCFRGWUakM8XOH6PBaKq51u3I-WlY3bTUhvPJt_0WRsqgR7MjMd6v7WwonyI-jDzWvcC5WFxE06zqN8cqqMff2dwHHYibiRILqQY1piDGjUyaYiX2n27DppnL6C3GnX8VAWjgqRiJR8hLThLD0wZHWGybb3U7maG6sfoCjrSbKjkkwKmlHALbjfcImyGJMhH1whNNcXjbLRTcGi4xLBv9NQbZtPbqDv9XCvW75Iqj4QfMK5r4zOF9TTGE3oIEthcEnH4o9pF3HeGdn77SZpZ8_QKGT4xH1v0Pa6SByD_ttu9JYwB6LmdIpNYoffSWeA6KsYIa1Ns3pHLoVoFhAvKYxu6bibAqmuQuxlHAiy54xJYqHbRPxuesWTLbi2deV0y0gP3Av58czUFL-0OcDKSAXsP5ogBP65DBCyH34wi1ghBqPk2BkIFRWEvOKkigzJwK9XecEUMQph7nEbfHP5__jqjkZ65QVGimHw3LsHVUWYkcaeV-45D0AWxXkgrKlRFm9l12uLh98sQyxOrAG-0bPd0BiqxCfW59sgg_RKD-2ivN_yg3pHK-W2dtqGbRa7iznFivm0MssMDXfc1hi48Tlq-4RqO9dxQfdlc3I6b3tuw7orASQPTQnlQvNmWFaEVfZDavoMvxky1KQo8YT0mH0jX4v76BQ7m6eekyHyLmUghJw123R7P1nkDJbFikApLdepnRUtnD_DkKUwUG3yJPxLY0OIBB5W6dqMc6RPOtXeWi7xqB43WZuPDT1uGa-UumJ4gSyu6OyPjz0K-IE7o0uauzarPSiYKxkdC-AH2w8G1Zj0Ko6oDyd92MmLFFRW4KhjgtR1sY5x3wV9LKU_U2gt-leKJTE_nTLv2KAspZTPrliRNuakQpB1dFgMuxdfReFn55FT77utJvteFG9bOVT0XMucw9uHmVXYLayLSRFuQGOpsMd7ZVJVNuO5n_m1]--></g></svg>