<?xml version="1.0" encoding="us-ascii" standalone="no"?><svg xmlns="http://www.w3.org/2000/svg" xmlns:xlink="http://www.w3.org/1999/xlink" contentStyleType="text/css" height="2149px" preserveAspectRatio="none" style="width:1492px;height:2149px;background:#FFFFFF;" version="1.1" viewBox="0 0 1492 2149" width="1492px" zoomAndPan="magnify"><defs/><g><line style="stroke:#181818;stroke-width:0.5;stroke-dasharray:5.0,5.0;" x1="22" x2="22" y1="83.6211" y2="2066.791"/><line style="stroke:#181818;stroke-width:0.5;stroke-dasharray:5.0,5.0;" x1="149.5" x2="149.5" y1="83.6211" y2="2066.791"/><line style="stroke:#181818;stroke-width:0.5;stroke-dasharray:5.0,5.0;" x1="266.5" x2="266.5" y1="83.6211" y2="2066.791"/><line style="stroke:#181818;stroke-width:0.5;stroke-dasharray:5.0,5.0;" x1="472" x2="472" y1="83.6211" y2="2066.791"/><line style="stroke:#181818;stroke-width:0.5;stroke-dasharray:5.0,5.0;" x1="694" x2="694" y1="83.6211" y2="2066.791"/><line style="stroke:#181818;stroke-width:0.5;stroke-dasharray:5.0,5.0;" x1="899" x2="899" y1="83.6211" y2="2066.791"/><line style="stroke:#181818;stroke-width:0.5;stroke-dasharray:5.0,5.0;" x1="1121" x2="1121" y1="83.6211" y2="2066.791"/><line style="stroke:#181818;stroke-width:0.5;stroke-dasharray:5.0,5.0;" x1="1303" x2="1303" y1="83.6211" y2="2066.791"/><line style="stroke:#181818;stroke-width:0.5;stroke-dasharray:5.0,5.0;" x1="1421" x2="1421" y1="83.6211" y2="2066.791"/><text fill="#000000" font-family="sans-serif" font-size="14" lengthAdjust="spacing" textLength="29" x="5" y="80.1074">User</text><ellipse cx="22.5" cy="13.5" fill="#E2E2F0" rx="8" ry="8" style="stroke:#181818;stroke-width:0.5;"/><path d="M22.5,21.5 L22.5,48.5 M9.5,29.5 L35.5,29.5 M22.5,48.5 L9.5,63.5 M22.5,48.5 L35.5,63.5 " fill="none" style="stroke:#181818;stroke-width:0.5;"/><text fill="#000000" font-family="sans-serif" font-size="14" lengthAdjust="spacing" textLength="29" x="5" y="2080.8984">User</text><ellipse cx="22.5" cy="2092.9121" fill="#E2E2F0" rx="8" ry="8" style="stroke:#181818;stroke-width:0.5;"/><path d="M22.5,2100.9121 L22.5,2127.9121 M9.5,2108.9121 L35.5,2108.9121 M22.5,2127.9121 L9.5,2142.9121 M22.5,2127.9121 L35.5,2142.9121 " fill="none" style="stroke:#181818;stroke-width:0.5;"/><rect fill="#E2E2F0" height="32.6211" rx="2.5" ry="2.5" style="stroke:#181818;stroke-width:0.5;" width="44" x="127.5" y="50"/><text fill="#000000" font-family="sans-serif" font-size="14" lengthAdjust="spacing" textLength="30" x="134.5" y="72.1074">main</text><rect fill="#E2E2F0" height="32.6211" rx="2.5" ry="2.5" style="stroke:#181818;stroke-width:0.5;" width="44" x="127.5" y="2065.791"/><text fill="#000000" font-family="sans-serif" font-size="14" lengthAdjust="spacing" textLength="30" x="134.5" y="2087.8984">main</text><rect fill="#E2E2F0" height="32.6211" rx="2.5" ry="2.5" style="stroke:#181818;stroke-width:0.5;" width="171" x="181.5" y="50"/><text fill="#000000" font-family="sans-serif" font-size="14" lengthAdjust="spacing" textLength="157" x="188.5" y="72.1074">view:CustomerTableView</text><rect fill="#E2E2F0" height="32.6211" rx="2.5" ry="2.5" style="stroke:#181818;stroke-width:0.5;" width="171" x="181.5" y="2065.791"/><text fill="#000000" font-family="sans-serif" font-size="14" lengthAdjust="spacing" textLength="157" x="188.5" y="2087.8984">view:CustomerTableView</text><rect fill="#E2E2F0" height="32.6211" rx="2.5" ry="2.5" style="stroke:#181818;stroke-width:0.5;" width="200" x="372" y="50"/><text fill="#000000" font-family="sans-serif" font-size="14" lengthAdjust="spacing" textLength="186" x="379" y="72.1074">controller:CustomerController</text><rect fill="#E2E2F0" height="32.6211" rx="2.5" ry="2.5" style="stroke:#181818;stroke-width:0.5;" width="200" x="372" y="2065.791"/><text fill="#000000" font-family="sans-serif" font-size="14" lengthAdjust="spacing" textLength="186" x="379" y="2087.8984">controller:CustomerController</text><rect fill="#E2E2F0" height="32.6211" rx="2.5" ry="2.5" style="stroke:#181818;stroke-width:0.5;" width="224" x="582" y="50"/><text fill="#000000" font-family="sans-serif" font-size="14" lengthAdjust="spacing" textLength="210" x="589" y="72.1074">repository:CustomerRepPostgres</text><rect fill="#E2E2F0" height="32.6211" rx="2.5" ry="2.5" style="stroke:#181818;stroke-width:0.5;" width="224" x="582" y="2065.791"/><text fill="#000000" font-family="sans-serif" font-size="14" lengthAdjust="spacing" textLength="210" x="589" y="2087.8984">repository:CustomerRepPostgres</text><rect fill="#E2E2F0" height="32.6211" rx="2.5" ry="2.5" style="stroke:#181818;stroke-width:0.5;" width="167" x="816" y="50"/><text fill="#000000" font-family="sans-serif" font-size="14" lengthAdjust="spacing" textLength="153" x="823" y="72.1074">db:DatabaseConnection</text><rect fill="#E2E2F0" height="32.6211" rx="2.5" ry="2.5" style="stroke:#181818;stroke-width:0.5;" width="167" x="816" y="2065.791"/><text fill="#000000" font-family="sans-serif" font-size="14" lengthAdjust="spacing" textLength="153" x="823" y="2087.8984">db:DatabaseConnection</text><rect fill="#E2E2F0" height="32.6211" rx="2.5" ry="2.5" style="stroke:#181818;stroke-width:0.5;" width="257" x="993" y="50"/><text fill="#000000" font-family="sans-serif" font-size="14" lengthAdjust="spacing" textLength="243" x="1000" y="72.1074">add_controller:AddCustomerController</text><rect fill="#E2E2F0" height="32.6211" rx="2.5" ry="2.5" style="stroke:#181818;stroke-width:0.5;" width="257" x="993" y="2065.791"/><text fill="#000000" font-family="sans-serif" font-size="14" lengthAdjust="spacing" textLength="243" x="1000" y="2087.8984">add_controller:AddCustomerController</text><rect fill="#E2E2F0" height="32.6211" rx="2.5" ry="2.5" style="stroke:#181818;stroke-width:0.5;" width="87" x="1260" y="50"/><text fill="#000000" font-family="sans-serif" font-size="14" lengthAdjust="spacing" textLength="73" x="1267" y="72.1074">Observable</text><rect fill="#E2E2F0" height="32.6211" rx="2.5" ry="2.5" style="stroke:#181818;stroke-width:0.5;" width="87" x="1260" y="2065.791"/><text fill="#000000" font-family="sans-serif" font-size="14" lengthAdjust="spacing" textLength="73" x="1267" y="2087.8984">Observable</text><rect fill="#E2E2F0" height="32.6211" rx="2.5" ry="2.5" style="stroke:#181818;stroke-width:0.5;" width="129" x="1357" y="50"/><text fill="#000000" font-family="sans-serif" font-size="14" lengthAdjust="spacing" textLength="115" x="1364" y="72.1074">CustomerAddView</text><rect fill="#E2E2F0" height="32.6211" rx="2.5" ry="2.5" style="stroke:#181818;stroke-width:0.5;" width="129" x="1357" y="2065.791"/><text fill="#000000" font-family="sans-serif" font-size="14" lengthAdjust="spacing" textLength="115" x="1364" y="2087.8984">CustomerAddView</text><polygon fill="#181818" points="137.5,112.9121,147.5,116.9121,137.5,120.9121,141.5,116.9121" style="stroke:#181818;stroke-width:1.0;"/><line style="stroke:#181818;stroke-width:1.0;" x1="22.5" x2="143.5" y1="116.9121" y2="116.9121"/><text fill="#000000" font-family="sans-serif" font-size="13" lengthAdjust="spacing" textLength="103" x="29.5" y="111.6494">Start Applications</text><polygon fill="#181818" points="682,144.2031,692,148.2031,682,152.2031,686,148.2031" style="stroke:#181818;stroke-width:1.0;"/><line style="stroke:#181818;stroke-width:1.0;" x1="149.5" x2="688" y1="148.2031" y2="148.2031"/><text fill="#000000" font-family="sans-serif" font-size="13" lengthAdjust="spacing" textLength="31" x="156.5" y="142.9404">_init_</text><polygon fill="#181818" points="887.5,175.4941,897.5,179.4941,887.5,183.4941,891.5,179.4941" style="stroke:#181818;stroke-width:1.0;"/><line style="stroke:#181818;stroke-width:1.0;" x1="694" x2="893.5" y1="179.4941" y2="179.4941"/><text fill="#000000" font-family="sans-serif" font-size="13" lengthAdjust="spacing" textLength="31" x="701" y="174.2314">_init_</text><polygon fill="#181818" points="460,206.7852,470,210.7852,460,214.7852,464,210.7852" style="stroke:#181818;stroke-width:1.0;"/><line style="stroke:#181818;stroke-width:1.0;" x1="149.5" x2="466" y1="210.7852" y2="210.7852"/><text fill="#000000" font-family="sans-serif" font-size="13" lengthAdjust="spacing" textLength="96" x="156.5" y="205.5225">_init_(repository)</text><polygon fill="#181818" points="1291.5,238.0762,1301.5,242.0762,1291.5,246.0762,1295.5,242.0762" style="stroke:#181818;stroke-width:1.0;"/><line style="stroke:#181818;stroke-width:1.0;" x1="472" x2="1297.5" y1="242.0762" y2="242.0762"/><text fill="#000000" font-family="sans-serif" font-size="13" lengthAdjust="spacing" textLength="39" x="479" y="236.8135">_init_()</text><polygon fill="#181818" points="255,269.3672,265,273.3672,255,277.3672,259,273.3672" style="stroke:#181818;stroke-width:1.0;"/><line style="stroke:#181818;stroke-width:1.0;" x1="149.5" x2="261" y1="273.3672" y2="273.3672"/><text fill="#000000" font-family="sans-serif" font-size="13" lengthAdjust="spacing" textLength="92" x="156.5" y="268.1045">_init_(controller)</text><line style="stroke:#181818;stroke-width:1.0;" x1="267" x2="309" y1="304.6582" y2="304.6582"/><line style="stroke:#181818;stroke-width:1.0;" x1="309" x2="309" y1="304.6582" y2="317.6582"/><line style="stroke:#181818;stroke-width:1.0;" x1="268" x2="309" y1="317.6582" y2="317.6582"/><polygon fill="#181818" points="278,313.6582,268,317.6582,278,321.6582,274,317.6582" style="stroke:#181818;stroke-width:1.0;"/><text fill="#000000" font-family="sans-serif" font-size="13" lengthAdjust="spacing" textLength="67" x="274" y="299.3955">load_page()</text><polygon fill="#181818" points="460,344.9492,470,348.9492,460,352.9492,464,348.9492" style="stroke:#181818;stroke-width:1.0;"/><line style="stroke:#181818;stroke-width:1.0;" x1="267" x2="466" y1="348.9492" y2="348.9492"/><text fill="#000000" font-family="sans-serif" font-size="13" lengthAdjust="spacing" textLength="100" x="274" y="343.6865">load_customers()</text><polygon fill="#181818" points="682,376.2402,692,380.2402,682,384.2402,686,380.2402" style="stroke:#181818;stroke-width:1.0;"/><line style="stroke:#181818;stroke-width:1.0;" x1="472" x2="688" y1="380.2402" y2="380.2402"/><text fill="#000000" font-family="sans-serif" font-size="13" lengthAdjust="spacing" textLength="114" x="479" y="374.9775">get_k_n_short_list()</text><polygon fill="#181818" points="887.5,407.5313,897.5,411.5313,887.5,415.5313,891.5,411.5313" style="stroke:#181818;stroke-width:1.0;"/><line style="stroke:#181818;stroke-width:1.0;" x1="694" x2="893.5" y1="411.5313" y2="411.5313"/><text fill="#000000" font-family="sans-serif" font-size="13" lengthAdjust="spacing" textLength="54" x="701" y="406.2686">execute()</text><polygon fill="#181818" points="705,438.8223,695,442.8223,705,446.8223,701,442.8223" style="stroke:#181818;stroke-width:1.0;"/><line style="stroke:#181818;stroke-width:1.0;" x1="699" x2="898.5" y1="442.8223" y2="442.8223"/><text fill="#000000" font-family="sans-serif" font-size="13" lengthAdjust="spacing" textLength="85" x="711" y="437.5596">List[Customer]</text><polygon fill="#181818" points="483,470.1133,473,474.1133,483,478.1133,479,474.1133" style="stroke:#181818;stroke-width:1.0;"/><line style="stroke:#181818;stroke-width:1.0;" x1="477" x2="693" y1="474.1133" y2="474.1133"/><text fill="#000000" font-family="sans-serif" font-size="13" lengthAdjust="spacing" textLength="85" x="489" y="468.8506">List[Customer]</text><polygon fill="#181818" points="1291.5,501.4043,1301.5,505.4043,1291.5,509.4043,1295.5,505.4043" style="stroke:#181818;stroke-width:1.0;"/><line style="stroke:#181818;stroke-width:1.0;" x1="472" x2="1297.5" y1="505.4043" y2="505.4043"/><text fill="#000000" font-family="sans-serif" font-size="13" lengthAdjust="spacing" textLength="101" x="479" y="500.1416">notify_observers()</text><polygon fill="#181818" points="278,532.6953,268,536.6953,278,540.6953,274,536.6953" style="stroke:#181818;stroke-width:1.0;"/><line style="stroke:#181818;stroke-width:1.0;" x1="272" x2="471" y1="536.6953" y2="536.6953"/><text fill="#000000" font-family="sans-serif" font-size="13" lengthAdjust="spacing" textLength="85" x="284" y="531.4326">List[Customer]</text><polygon fill="#181818" points="255,563.9863,265,567.9863,255,571.9863,259,567.9863" style="stroke:#181818;stroke-width:1.0;"/><line style="stroke:#181818;stroke-width:1.0;" x1="22.5" x2="261" y1="567.9863" y2="567.9863"/><text fill="#000000" font-family="sans-serif" font-size="13" lengthAdjust="spacing" textLength="102" x="29.5" y="562.7236">"&#1057;&#1083;&#1077;&#1076;&#1091;&#1102;&#1097;&#1080;&#1077; 10"</text><line style="stroke:#181818;stroke-width:1.0;" x1="267" x2="309" y1="599.2773" y2="599.2773"/><line style="stroke:#181818;stroke-width:1.0;" x1="309" x2="309" y1="599.2773" y2="612.2773"/><line style="stroke:#181818;stroke-width:1.0;" x1="268" x2="309" y1="612.2773" y2="612.2773"/><polygon fill="#181818" points="278,608.2773,268,612.2773,278,616.2773,274,612.2773" style="stroke:#181818;stroke-width:1.0;"/><text fill="#000000" font-family="sans-serif" font-size="13" lengthAdjust="spacing" textLength="64" x="274" y="594.0146">load_next()</text><line style="stroke:#181818;stroke-width:1.0;" x1="267" x2="309" y1="643.5684" y2="643.5684"/><line style="stroke:#181818;stroke-width:1.0;" x1="309" x2="309" y1="643.5684" y2="656.5684"/><line style="stroke:#181818;stroke-width:1.0;" x1="268" x2="309" y1="656.5684" y2="656.5684"/><polygon fill="#181818" points="278,652.5684,268,656.5684,278,660.5684,274,656.5684" style="stroke:#181818;stroke-width:1.0;"/><text fill="#000000" font-family="sans-serif" font-size="13" lengthAdjust="spacing" textLength="67" x="274" y="638.3057">load_page()</text><polygon fill="#181818" points="460,683.8594,470,687.8594,460,691.8594,464,687.8594" style="stroke:#181818;stroke-width:1.0;"/><line style="stroke:#181818;stroke-width:1.0;" x1="267" x2="466" y1="687.8594" y2="687.8594"/><text fill="#000000" font-family="sans-serif" font-size="13" lengthAdjust="spacing" textLength="100" x="274" y="682.5967">load_customers()</text><polygon fill="#181818" points="682,715.1504,692,719.1504,682,723.1504,686,719.1504" style="stroke:#181818;stroke-width:1.0;"/><line style="stroke:#181818;stroke-width:1.0;" x1="472" x2="688" y1="719.1504" y2="719.1504"/><text fill="#000000" font-family="sans-serif" font-size="13" lengthAdjust="spacing" textLength="114" x="479" y="713.8877">get_k_n_short_list()</text><polygon fill="#181818" points="887.5,746.4414,897.5,750.4414,887.5,754.4414,891.5,750.4414" style="stroke:#181818;stroke-width:1.0;"/><line style="stroke:#181818;stroke-width:1.0;" x1="694" x2="893.5" y1="750.4414" y2="750.4414"/><text fill="#000000" font-family="sans-serif" font-size="13" lengthAdjust="spacing" textLength="54" x="701" y="745.1787">execute()</text><polygon fill="#181818" points="705,777.7324,695,781.7324,705,785.7324,701,781.7324" style="stroke:#181818;stroke-width:1.0;"/><line style="stroke:#181818;stroke-width:1.0;" x1="699" x2="898.5" y1="781.7324" y2="781.7324"/><text fill="#000000" font-family="sans-serif" font-size="13" lengthAdjust="spacing" textLength="85" x="711" y="776.4697">List[Customer]</text><polygon fill="#181818" points="483,809.0234,473,813.0234,483,817.0234,479,813.0234" style="stroke:#181818;stroke-width:1.0;"/><line style="stroke:#181818;stroke-width:1.0;" x1="477" x2="693" y1="813.0234" y2="813.0234"/><text fill="#000000" font-family="sans-serif" font-size="13" lengthAdjust="spacing" textLength="85" x="489" y="807.7607">List[Customer]</text><polygon fill="#181818" points="1291.5,840.3145,1301.5,844.3145,1291.5,848.3145,1295.5,844.3145" style="stroke:#181818;stroke-width:1.0;"/><line style="stroke:#181818;stroke-width:1.0;" x1="472" x2="1297.5" y1="844.3145" y2="844.3145"/><text fill="#000000" font-family="sans-serif" font-size="13" lengthAdjust="spacing" textLength="101" x="479" y="839.0518">notify_observers()</text><polygon fill="#181818" points="278,871.6055,268,875.6055,278,879.6055,274,875.6055" style="stroke:#181818;stroke-width:1.0;"/><line style="stroke:#181818;stroke-width:1.0;" x1="272" x2="471" y1="875.6055" y2="875.6055"/><text fill="#000000" font-family="sans-serif" font-size="13" lengthAdjust="spacing" textLength="85" x="284" y="870.3428">List[Customer]</text><polygon fill="#181818" points="255,902.8965,265,906.8965,255,910.8965,259,906.8965" style="stroke:#181818;stroke-width:1.0;"/><line style="stroke:#181818;stroke-width:1.0;" x1="22.5" x2="261" y1="906.8965" y2="906.8965"/><text fill="#000000" font-family="sans-serif" font-size="13" lengthAdjust="spacing" textLength="109" x="29.5" y="901.6338">"&#1055;&#1088;&#1077;&#1076;&#1099;&#1076;&#1091;&#1097;&#1080;&#1077; 10"</text><line style="stroke:#181818;stroke-width:1.0;" x1="267" x2="309" y1="938.1875" y2="938.1875"/><line style="stroke:#181818;stroke-width:1.0;" x1="309" x2="309" y1="938.1875" y2="951.1875"/><line style="stroke:#181818;stroke-width:1.0;" x1="268" x2="309" y1="951.1875" y2="951.1875"/><polygon fill="#181818" points="278,947.1875,268,951.1875,278,955.1875,274,951.1875" style="stroke:#181818;stroke-width:1.0;"/><text fill="#000000" font-family="sans-serif" font-size="13" lengthAdjust="spacing" textLength="86" x="274" y="932.9248">load_previous()</text><line style="stroke:#181818;stroke-width:1.0;" x1="267" x2="309" y1="982.4785" y2="982.4785"/><line style="stroke:#181818;stroke-width:1.0;" x1="309" x2="309" y1="982.4785" y2="995.4785"/><line style="stroke:#181818;stroke-width:1.0;" x1="268" x2="309" y1="995.4785" y2="995.4785"/><polygon fill="#181818" points="278,991.4785,268,995.4785,278,999.4785,274,995.4785" style="stroke:#181818;stroke-width:1.0;"/><text fill="#000000" font-family="sans-serif" font-size="13" lengthAdjust="spacing" textLength="67" x="274" y="977.2158">load_page()</text><polygon fill="#181818" points="460,1022.7695,470,1026.7695,460,1030.7695,464,1026.7695" style="stroke:#181818;stroke-width:1.0;"/><line style="stroke:#181818;stroke-width:1.0;" x1="267" x2="466" y1="1026.7695" y2="1026.7695"/><text fill="#000000" font-family="sans-serif" font-size="13" lengthAdjust="spacing" textLength="100" x="274" y="1021.5068">load_customers()</text><polygon fill="#181818" points="682,1054.0605,692,1058.0605,682,1062.0605,686,1058.0605" style="stroke:#181818;stroke-width:1.0;"/><line style="stroke:#181818;stroke-width:1.0;" x1="472" x2="688" y1="1058.0605" y2="1058.0605"/><text fill="#000000" font-family="sans-serif" font-size="13" lengthAdjust="spacing" textLength="114" x="479" y="1052.7979">get_k_n_short_list()</text><polygon fill="#181818" points="887.5,1085.3516,897.5,1089.3516,887.5,1093.3516,891.5,1089.3516" style="stroke:#181818;stroke-width:1.0;"/><line style="stroke:#181818;stroke-width:1.0;" x1="694" x2="893.5" y1="1089.3516" y2="1089.3516"/><text fill="#000000" font-family="sans-serif" font-size="13" lengthAdjust="spacing" textLength="54" x="701" y="1084.0889">execute()</text><polygon fill="#181818" points="705,1116.6426,695,1120.6426,705,1124.6426,701,1120.6426" style="stroke:#181818;stroke-width:1.0;"/><line style="stroke:#181818;stroke-width:1.0;" x1="699" x2="898.5" y1="1120.6426" y2="1120.6426"/><text fill="#000000" font-family="sans-serif" font-size="13" lengthAdjust="spacing" textLength="85" x="711" y="1115.3799">List[Customer]</text><polygon fill="#181818" points="483,1147.9336,473,1151.9336,483,1155.9336,479,1151.9336" style="stroke:#181818;stroke-width:1.0;"/><line style="stroke:#181818;stroke-width:1.0;" x1="477" x2="693" y1="1151.9336" y2="1151.9336"/><text fill="#000000" font-family="sans-serif" font-size="13" lengthAdjust="spacing" textLength="85" x="489" y="1146.6709">List[Customer]</text><polygon fill="#181818" points="1291.5,1179.2246,1301.5,1183.2246,1291.5,1187.2246,1295.5,1183.2246" style="stroke:#181818;stroke-width:1.0;"/><line style="stroke:#181818;stroke-width:1.0;" x1="472" x2="1297.5" y1="1183.2246" y2="1183.2246"/><text fill="#000000" font-family="sans-serif" font-size="13" lengthAdjust="spacing" textLength="101" x="479" y="1177.9619">notify_observers()</text><polygon fill="#181818" points="278,1210.5156,268,1214.5156,278,1218.5156,274,1214.5156" style="stroke:#181818;stroke-width:1.0;"/><line style="stroke:#181818;stroke-width:1.0;" x1="272" x2="471" y1="1214.5156" y2="1214.5156"/><text fill="#000000" font-family="sans-serif" font-size="13" lengthAdjust="spacing" textLength="85" x="284" y="1209.2529">List[Customer]</text><polygon fill="#181818" points="255,1241.8066,265,1245.8066,255,1249.8066,259,1245.8066" style="stroke:#181818;stroke-width:1.0;"/><line style="stroke:#181818;stroke-width:1.0;" x1="22.5" x2="261" y1="1245.8066" y2="1245.8066"/><text fill="#000000" font-family="sans-serif" font-size="13" lengthAdjust="spacing" textLength="109" x="29.5" y="1240.5439">"&#1059;&#1076;&#1072;&#1083;&#1080;&#1090;&#1100; &#1082;&#1083;&#1080;&#1077;&#1085;&#1090;&#1072;"</text><line style="stroke:#181818;stroke-width:1.0;" x1="267" x2="309" y1="1277.0977" y2="1277.0977"/><line style="stroke:#181818;stroke-width:1.0;" x1="309" x2="309" y1="1277.0977" y2="1290.0977"/><line style="stroke:#181818;stroke-width:1.0;" x1="268" x2="309" y1="1290.0977" y2="1290.0977"/><polygon fill="#181818" points="278,1286.0977,268,1290.0977,278,1294.0977,274,1290.0977" style="stroke:#181818;stroke-width:1.0;"/><text fill="#000000" font-family="sans-serif" font-size="13" lengthAdjust="spacing" textLength="110" x="274" y="1271.835">remove_customer()</text><polygon fill="#181818" points="460,1317.3887,470,1321.3887,460,1325.3887,464,1321.3887" style="stroke:#181818;stroke-width:1.0;"/><line style="stroke:#181818;stroke-width:1.0;" x1="267" x2="466" y1="1321.3887" y2="1321.3887"/><text fill="#000000" font-family="sans-serif" font-size="13" lengthAdjust="spacing" textLength="110" x="274" y="1316.126">remove_customer()</text><polygon fill="#181818" points="682,1348.6797,692,1352.6797,682,1356.6797,686,1352.6797" style="stroke:#181818;stroke-width:1.0;"/><line style="stroke:#181818;stroke-width:1.0;" x1="472" x2="688" y1="1352.6797" y2="1352.6797"/><text fill="#000000" font-family="sans-serif" font-size="13" lengthAdjust="spacing" textLength="81" x="479" y="1347.417">delete_by_id()</text><polygon fill="#181818" points="887.5,1379.9707,897.5,1383.9707,887.5,1387.9707,891.5,1383.9707" style="stroke:#181818;stroke-width:1.0;"/><line style="stroke:#181818;stroke-width:1.0;" x1="694" x2="893.5" y1="1383.9707" y2="1383.9707"/><text fill="#000000" font-family="sans-serif" font-size="13" lengthAdjust="spacing" textLength="54" x="701" y="1378.708">execute()</text><polygon fill="#181818" points="255,1411.2617,265,1415.2617,255,1419.2617,259,1415.2617" style="stroke:#181818;stroke-width:1.0;"/><line style="stroke:#181818;stroke-width:1.0;" x1="22.5" x2="261" y1="1415.2617" y2="1415.2617"/><text fill="#000000" font-family="sans-serif" font-size="13" lengthAdjust="spacing" textLength="116" x="29.5" y="1409.999">"&#1044;&#1086;&#1073;&#1072;&#1074;&#1080;&#1090;&#1100; &#1082;&#1083;&#1080;&#1077;&#1085;&#1090;&#1072;"</text><line style="stroke:#181818;stroke-width:1.0;" x1="267" x2="309" y1="1446.5527" y2="1446.5527"/><line style="stroke:#181818;stroke-width:1.0;" x1="309" x2="309" y1="1446.5527" y2="1459.5527"/><line style="stroke:#181818;stroke-width:1.0;" x1="268" x2="309" y1="1459.5527" y2="1459.5527"/><polygon fill="#181818" points="278,1455.5527,268,1459.5527,278,1463.5527,274,1459.5527" style="stroke:#181818;stroke-width:1.0;"/><text fill="#000000" font-family="sans-serif" font-size="13" lengthAdjust="spacing" textLength="174" x="274" y="1441.29">open_add_customer_window()</text><polygon fill="#181818" points="1109.5,1486.8438,1119.5,1490.8438,1109.5,1494.8438,1113.5,1490.8438" style="stroke:#181818;stroke-width:1.0;"/><line style="stroke:#181818;stroke-width:1.0;" x1="267" x2="1115.5" y1="1490.8438" y2="1490.8438"/><text fill="#000000" font-family="sans-serif" font-size="13" lengthAdjust="spacing" textLength="31" x="274" y="1485.5811">_init_</text><polygon fill="#181818" points="1109.5,1518.1348,1119.5,1522.1348,1109.5,1526.1348,1113.5,1522.1348" style="stroke:#181818;stroke-width:1.0;"/><line style="stroke:#181818;stroke-width:1.0;" x1="267" x2="1115.5" y1="1522.1348" y2="1522.1348"/><text fill="#000000" font-family="sans-serif" font-size="13" lengthAdjust="spacing" textLength="115" x="274" y="1516.8721">show_add_window()</text><polygon fill="#181818" points="1409.5,1549.4258,1419.5,1553.4258,1409.5,1557.4258,1413.5,1553.4258" style="stroke:#181818;stroke-width:1.0;"/><line style="stroke:#181818;stroke-width:1.0;" x1="1121.5" x2="1415.5" y1="1553.4258" y2="1553.4258"/><text fill="#000000" font-family="sans-serif" font-size="13" lengthAdjust="spacing" textLength="31" x="1128.5" y="1548.1631">_init_</text><polygon fill="#181818" points="1409.5,1580.7168,1419.5,1584.7168,1409.5,1588.7168,1413.5,1584.7168" style="stroke:#181818;stroke-width:1.0;"/><line style="stroke:#181818;stroke-width:1.0;" x1="22.5" x2="1415.5" y1="1584.7168" y2="1584.7168"/><text fill="#000000" font-family="sans-serif" font-size="13" lengthAdjust="spacing" textLength="66" x="29.5" y="1579.4541">"&#1044;&#1086;&#1073;&#1072;&#1074;&#1080;&#1090;&#1100;"</text><polygon fill="#181818" points="1132.5,1612.0078,1122.5,1616.0078,1132.5,1620.0078,1128.5,1616.0078" style="stroke:#181818;stroke-width:1.0;"/><line style="stroke:#181818;stroke-width:1.0;" x1="1126.5" x2="1420.5" y1="1616.0078" y2="1616.0078"/><text fill="#000000" font-family="sans-serif" font-size="13" lengthAdjust="spacing" textLength="90" x="1138.5" y="1610.7451">add_customer()</text><polygon fill="#181818" points="705,1643.2988,695,1647.2988,705,1651.2988,701,1647.2988" style="stroke:#181818;stroke-width:1.0;"/><line style="stroke:#181818;stroke-width:1.0;" x1="699" x2="1120.5" y1="1647.2988" y2="1647.2988"/><text fill="#000000" font-family="sans-serif" font-size="13" lengthAdjust="spacing" textLength="90" x="711" y="1642.0361">add_customer()</text><polygon fill="#181818" points="887.5,1674.5898,897.5,1678.5898,887.5,1682.5898,891.5,1678.5898" style="stroke:#181818;stroke-width:1.0;"/><line style="stroke:#181818;stroke-width:1.0;" x1="694" x2="893.5" y1="1678.5898" y2="1678.5898"/><text fill="#000000" font-family="sans-serif" font-size="13" lengthAdjust="spacing" textLength="54" x="701" y="1673.3271">execute()</text><polygon fill="#181818" points="1409.5,1705.8809,1419.5,1709.8809,1409.5,1713.8809,1413.5,1709.8809" style="stroke:#181818;stroke-width:1.0;"/><line style="stroke:#181818;stroke-width:1.0;" x1="1121.5" x2="1415.5" y1="1709.8809" y2="1709.8809"/><text fill="#000000" font-family="sans-serif" font-size="13" lengthAdjust="spacing" textLength="51" x="1128.5" y="1704.6182">destroy()</text><polygon fill="#181818" points="278,1737.1719,268,1741.1719,278,1745.1719,274,1741.1719" style="stroke:#181818;stroke-width:1.0;"/><line style="stroke:#181818;stroke-width:1.0;" x1="272" x2="693" y1="1741.1719" y2="1741.1719"/><text fill="#000000" font-family="sans-serif" font-size="13" lengthAdjust="spacing" textLength="82" x="284" y="1735.9092">refresh_page()</text><polygon fill="#181818" points="255,1768.4629,265,1772.4629,255,1776.4629,259,1772.4629" style="stroke:#181818;stroke-width:1.0;"/><line style="stroke:#181818;stroke-width:1.0;" x1="22.5" x2="261" y1="1772.4629" y2="1772.4629"/><text fill="#000000" font-family="sans-serif" font-size="13" lengthAdjust="spacing" textLength="76" x="29.5" y="1767.2002">"&#1055;&#1086;&#1076;&#1088;&#1086;&#1073;&#1085;&#1077;&#1081;"</text><line style="stroke:#181818;stroke-width:1.0;" x1="267" x2="309" y1="1803.7539" y2="1803.7539"/><line style="stroke:#181818;stroke-width:1.0;" x1="309" x2="309" y1="1803.7539" y2="1816.7539"/><line style="stroke:#181818;stroke-width:1.0;" x1="268" x2="309" y1="1816.7539" y2="1816.7539"/><polygon fill="#181818" points="278,1812.7539,268,1816.7539,278,1820.7539,274,1816.7539" style="stroke:#181818;stroke-width:1.0;"/><text fill="#000000" font-family="sans-serif" font-size="13" lengthAdjust="spacing" textLength="138" x="274" y="1798.4912">view_customer_details()</text><polygon fill="#181818" points="460,1844.0449,470,1848.0449,460,1852.0449,464,1848.0449" style="stroke:#181818;stroke-width:1.0;"/><line style="stroke:#181818;stroke-width:1.0;" x1="267" x2="466" y1="1848.0449" y2="1848.0449"/><text fill="#000000" font-family="sans-serif" font-size="13" lengthAdjust="spacing" textLength="125" x="274" y="1842.7822">get_customer_by_id()</text><polygon fill="#181818" points="682,1875.3359,692,1879.3359,682,1883.3359,686,1879.3359" style="stroke:#181818;stroke-width:1.0;"/><line style="stroke:#181818;stroke-width:1.0;" x1="472" x2="688" y1="1879.3359" y2="1879.3359"/><text fill="#000000" font-family="sans-serif" font-size="13" lengthAdjust="spacing" textLength="64" x="479" y="1874.0732">get_by_id()</text><polygon fill="#181818" points="887.5,1906.627,897.5,1910.627,887.5,1914.627,891.5,1910.627" style="stroke:#181818;stroke-width:1.0;"/><line style="stroke:#181818;stroke-width:1.0;" x1="694" x2="893.5" y1="1910.627" y2="1910.627"/><text fill="#000000" font-family="sans-serif" font-size="13" lengthAdjust="spacing" textLength="54" x="701" y="1905.3643">execute()</text><polygon fill="#181818" points="705,1937.918,695,1941.918,705,1945.918,701,1941.918" style="stroke:#181818;stroke-width:1.0;"/><line style="stroke:#181818;stroke-width:1.0;" x1="699" x2="898.5" y1="1941.918" y2="1941.918"/><text fill="#000000" font-family="sans-serif" font-size="13" lengthAdjust="spacing" textLength="54" x="711" y="1936.6553">customer</text><polygon fill="#181818" points="483,1969.209,473,1973.209,483,1977.209,479,1973.209" style="stroke:#181818;stroke-width:1.0;"/><line style="stroke:#181818;stroke-width:1.0;" x1="477" x2="693" y1="1973.209" y2="1973.209"/><text fill="#000000" font-family="sans-serif" font-size="13" lengthAdjust="spacing" textLength="54" x="489" y="1967.9463">customer</text><polygon fill="#181818" points="278,2000.5,268,2004.5,278,2008.5,274,2004.5" style="stroke:#181818;stroke-width:1.0;"/><line style="stroke:#181818;stroke-width:1.0;" x1="272" x2="471" y1="2004.5" y2="2004.5"/><text fill="#000000" font-family="sans-serif" font-size="13" lengthAdjust="spacing" textLength="54" x="284" y="1999.2373">customer</text><line style="stroke:#181818;stroke-width:1.0;" x1="267" x2="309" y1="2035.791" y2="2035.791"/><line style="stroke:#181818;stroke-width:1.0;" x1="309" x2="309" y1="2035.791" y2="2048.791"/><line style="stroke:#181818;stroke-width:1.0;" x1="268" x2="309" y1="2048.791" y2="2048.791"/><polygon fill="#181818" points="278,2044.791,268,2048.791,278,2052.791,274,2048.791" style="stroke:#181818;stroke-width:1.0;"/><text fill="#000000" font-family="sans-serif" font-size="13" lengthAdjust="spacing" textLength="191" x="274" y="2030.5283">open_customer_details_window()</text><!--SRC=[xLNDZjCm4BxdAQAUsWCIN7j0scwF811GBWXPRZpRjKZZo7RRxGqj9mJYn1qXNc11NMaNj3o3yqQCdSJvMMV50-pDdk-RyJUVFGbDj93nGe6CgOeNKKwbvWdFQQRZqPhoR6JZJt7HXROSTjFZZT9Y3V8LNQRm6YEER1TTSY8oBKMQWlGfnpxaSffjDrD2BXH7YNkV-GBovqBfbGJbKd4lkabiEPrJJPTK0TRD8D5Sb7tCPrqcPOoqn1qnDg3F8WCIdotHlArrm35nsyNhYbZ2MrIjesWHFtZit9t6BpLcnKTvdlA4MiKgie0bs1QdCU4ProIo6nkSptoevZKIQsZS63Y96jYIKQXdJNm9Ayk76sicaGKQGYee8pbTmRX1sgSxFAawL-F-sML3Az3a7Sc8EXLIavGhZSHsUt06oKRRC-Qp9kq94j_Khhxr2UtZUvH0uvdG_6HFXBkyaCIoprwXwi9AR6I-cp_cqXoA3yMNugEvCfVneuUZa5CPdEdnlOUbXnqBlnNldOMVd8rtcfXBs7AnKVT61X_Z3tCm5_WWhuhpudDiVjibMdjJd9kBlfyIrc8BtfC1tswpGiOnI443MUu9PuEMTQL-DN_DJnJxwx_4YXmouhxKbH2ounaJkvRgpkVPVnO7KBpXdQldotG8LKRxGrYgzy5R3OoY2WkSrXOUEgeqiSSAcpWiau72yBwLMT_p2VucJ-lXw8qUDd70yREjtA3vrttZxJ- -CPs1fZnL0s_5Ze-drczXQCxkVYljyQfB1WVBWw5XyM3WCVLxQbx2Fm00]--></g></svg>