<?xml version="1.0" encoding="us-ascii" standalone="no"?><svg xmlns="http://www.w3.org/2000/svg" xmlns:xlink="http://www.w3.org/1999/xlink" contentStyleType="text/css" height="971px" preserveAspectRatio="none" style="width:476px;height:971px;background:#FFFFFF;" version="1.1" viewBox="0 0 476 971" width="476px" zoomAndPan="magnify"><defs/><g><!--class CustomerShortInfo--><g id="elem_CustomerShortInfo"><rect codeLine="2" fill="#F1F1F1" height="364.5586" id="CustomerShortInfo" rx="2.5" ry="2.5" style="stroke:#181818;stroke-width:0.5;" width="328" x="74" y="7"/><ellipse cx="174.75" cy="23" fill="#ADD1B2" rx="11" ry="11" style="stroke:#181818;stroke-width:1.0;"/><path d="M177.5156,18.875 Q177.6719,18.6563 177.8594,18.5469 Q178.0469,18.4375 178.2656,18.4375 Q178.6406,18.4375 178.875,18.7031 Q179.1094,18.9531 179.1094,19.5625 L179.1094,21.0156 Q179.1094,21.625 178.875,21.8906 Q178.6406,22.1563 178.2656,22.1563 Q177.9219,22.1563 177.7188,21.9531 Q177.5156,21.7656 177.4063,21.25 Q177.3594,20.8906 177.1719,20.7031 Q176.8438,20.3281 176.2344,20.1094 Q175.625,19.8906 175,19.8906 Q174.2344,19.8906 173.5938,20.2188 Q172.9688,20.5469 172.4688,21.2969 Q171.9844,22.0469 171.9844,23.0781 L171.9844,24.1719 Q171.9844,25.4063 172.875,26.2344 Q173.7656,27.0469 175.3594,27.0469 Q176.2969,27.0469 176.9531,26.7969 Q177.3438,26.6406 177.7656,26.2031 Q178.0313,25.9375 178.1719,25.8594 Q178.3281,25.7813 178.5313,25.7813 Q178.8594,25.7813 179.1094,26.0469 Q179.375,26.2969 179.375,26.6406 Q179.375,26.9844 179.0313,27.3906 Q178.5313,27.9688 177.7344,28.2969 Q176.6563,28.75 175.3594,28.75 Q173.8438,28.75 172.6406,28.125 Q171.6563,27.625 170.9688,26.5625 Q170.2813,25.4844 170.2813,24.2031 L170.2813,23.0469 Q170.2813,21.7188 170.8906,20.5781 Q171.5156,19.4219 172.6094,18.8125 Q173.7031,18.1875 174.9375,18.1875 Q175.6719,18.1875 176.3125,18.3594 Q176.9688,18.5156 177.5156,18.875 Z " fill="#000000"/><text fill="#000000" font-family="sans-serif" font-size="14" lengthAdjust="spacing" textLength="118" x="195.25" y="28.7969">CustomerShortInfo</text><line style="stroke:#181818;stroke-width:0.5;" x1="75" x2="401" y1="39" y2="39"/><rect fill="none" height="6" style="stroke:#C82930;stroke-width:1.0;" width="6" x="82" y="50.8105"/><text fill="#000000" font-family="sans-serif" font-size="14" lengthAdjust="spacing" textLength="116" x="94" y="58.1074">__customer_id: int</text><rect fill="none" height="6" style="stroke:#C82930;stroke-width:1.0;" width="6" x="82" y="69.4316"/><text fill="#000000" font-family="sans-serif" font-size="14" lengthAdjust="spacing" textLength="125" x="94" y="76.7285">__first_name: string</text><rect fill="none" height="6" style="stroke:#C82930;stroke-width:1.0;" width="6" x="82" y="88.0527"/><text fill="#000000" font-family="sans-serif" font-size="14" lengthAdjust="spacing" textLength="124" x="94" y="95.3496">__last_name: string</text><rect fill="none" height="6" style="stroke:#C82930;stroke-width:1.0;" width="6" x="82" y="106.6738"/><text fill="#000000" font-family="sans-serif" font-size="14" lengthAdjust="spacing" textLength="92" x="94" y="113.9707">__email: string</text><line style="stroke:#181818;stroke-width:0.5;" x1="75" x2="401" y1="121.4844" y2="121.4844"/><ellipse cx="85" cy="136.2949" fill="#84BE84" rx="3" ry="3" style="stroke:#038048;stroke-width:1.0;"/><text fill="#000000" font-family="sans-serif" font-size="14" lengthAdjust="spacing" textLength="138" x="94" y="140.5918">get_customer_id(): int</text><ellipse cx="85" cy="154.916" fill="#84BE84" rx="3" ry="3" style="stroke:#038048;stroke-width:1.0;"/><text fill="#000000" font-family="sans-serif" font-size="14" lengthAdjust="spacing" textLength="147" x="94" y="159.2129">get_first_name(): string</text><ellipse cx="85" cy="173.5371" fill="#84BE84" rx="3" ry="3" style="stroke:#038048;stroke-width:1.0;"/><text fill="#000000" font-family="sans-serif" font-size="14" lengthAdjust="spacing" textLength="146" x="94" y="177.834">get_last_name(): string</text><ellipse cx="85" cy="192.1582" fill="#84BE84" rx="3" ry="3" style="stroke:#038048;stroke-width:1.0;"/><text fill="#000000" font-family="sans-serif" font-size="14" lengthAdjust="spacing" textLength="114" x="94" y="196.4551">get_email(): string</text><ellipse cx="85" cy="210.7793" fill="#84BE84" rx="3" ry="3" style="stroke:#038048;stroke-width:1.0;"/><text fill="#000000" font-family="sans-serif" font-size="14" lengthAdjust="spacing" textLength="246" x="94" y="215.0762">set_first_name(first_name: string): void</text><ellipse cx="85" cy="229.4004" fill="#84BE84" rx="3" ry="3" style="stroke:#038048;stroke-width:1.0;"/><text fill="#000000" font-family="sans-serif" font-size="14" lengthAdjust="spacing" textLength="244" x="94" y="233.6973">set_last_name(last_name: string): void</text><ellipse cx="85" cy="248.0215" fill="#84BE84" rx="3" ry="3" style="stroke:#038048;stroke-width:1.0;"/><text fill="#000000" font-family="sans-serif" font-size="14" lengthAdjust="spacing" textLength="180" x="94" y="252.3184">set_email(email: string): void</text><ellipse cx="85" cy="266.6426" fill="#84BE84" rx="3" ry="3" style="stroke:#038048;stroke-width:1.0;"/><text fill="#000000" font-family="sans-serif" font-size="14" lengthAdjust="spacing" textLength="252" x="94" y="270.9395">__eq__(other: CustomerShortInfo): bool</text><ellipse cx="85" cy="285.2637" fill="#84BE84" rx="3" ry="3" style="stroke:#038048;stroke-width:1.0;"/><text fill="#000000" font-family="sans-serif" font-size="14" lengthAdjust="spacing" textLength="101" x="94" y="289.5605">__str__(): string</text><ellipse cx="85" cy="303.8848" fill="#84BE84" rx="3" ry="3" style="stroke:#038048;stroke-width:1.0;"/><text fill="#000000" font-family="sans-serif" font-size="14" lengthAdjust="spacing" textLength="302" x="94" y="308.1816">from_string(data_str: string): CustomerShortInfo</text><rect fill="#F24D5C" height="6" style="stroke:#C82930;stroke-width:1.0;" width="6" x="82" y="319.5059"/><text fill="#000000" font-family="sans-serif" font-size="14" lengthAdjust="spacing" textLength="217" x="94" y="326.8027">__validate_id(customer_id: int): int</text><rect fill="#F24D5C" height="6" style="stroke:#C82930;stroke-width:1.0;" width="6" x="82" y="338.127"/><text fill="#000000" font-family="sans-serif" font-size="14" lengthAdjust="spacing" textLength="239" x="94" y="345.4238">__validate_name(name: string): string</text><rect fill="#F24D5C" height="6" style="stroke:#C82930;stroke-width:1.0;" width="6" x="82" y="356.748"/><text fill="#000000" font-family="sans-serif" font-size="14" lengthAdjust="spacing" textLength="235" x="94" y="364.0449">__validate_email(email: string): string</text></g><!--class Customer--><g id="elem_Customer"><rect codeLine="22" fill="#F1F1F1" height="532.1484" id="Customer" rx="2.5" ry="2.5" style="stroke:#181818;stroke-width:0.5;" width="462" x="7" y="432"/><ellipse cx="203.25" cy="448" fill="#ADD1B2" rx="11" ry="11" style="stroke:#181818;stroke-width:1.0;"/><path d="M206.0156,443.875 Q206.1719,443.6563 206.3594,443.5469 Q206.5469,443.4375 206.7656,443.4375 Q207.1406,443.4375 207.375,443.7031 Q207.6094,443.9531 207.6094,444.5625 L207.6094,446.0156 Q207.6094,446.625 207.375,446.8906 Q207.1406,447.1563 206.7656,447.1563 Q206.4219,447.1563 206.2188,446.9531 Q206.0156,446.7656 205.9063,446.25 Q205.8594,445.8906 205.6719,445.7031 Q205.3438,445.3281 204.7344,445.1094 Q204.125,444.8906 203.5,444.8906 Q202.7344,444.8906 202.0938,445.2188 Q201.4688,445.5469 200.9688,446.2969 Q200.4844,447.0469 200.4844,448.0781 L200.4844,449.1719 Q200.4844,450.4063 201.375,451.2344 Q202.2656,452.0469 203.8594,452.0469 Q204.7969,452.0469 205.4531,451.7969 Q205.8438,451.6406 206.2656,451.2031 Q206.5313,450.9375 206.6719,450.8594 Q206.8281,450.7813 207.0313,450.7813 Q207.3594,450.7813 207.6094,451.0469 Q207.875,451.2969 207.875,451.6406 Q207.875,451.9844 207.5313,452.3906 Q207.0313,452.9688 206.2344,453.2969 Q205.1563,453.75 203.8594,453.75 Q202.3438,453.75 201.1406,453.125 Q200.1563,452.625 199.4688,451.5625 Q198.7813,450.4844 198.7813,449.2031 L198.7813,448.0469 Q198.7813,446.7188 199.3906,445.5781 Q200.0156,444.4219 201.1094,443.8125 Q202.2031,443.1875 203.4375,443.1875 Q204.1719,443.1875 204.8125,443.3594 Q205.4688,443.5156 206.0156,443.875 Z " fill="#000000"/><text fill="#000000" font-family="sans-serif" font-size="14" lengthAdjust="spacing" textLength="61" x="223.75" y="453.7969">Customer</text><line style="stroke:#181818;stroke-width:0.5;" x1="8" x2="468" y1="464" y2="464"/><rect fill="none" height="6" style="stroke:#C82930;stroke-width:1.0;" width="6" x="15" y="475.8105"/><text fill="#000000" font-family="sans-serif" font-size="14" lengthAdjust="spacing" textLength="155" x="27" y="483.1074">__phone_number: string</text><rect fill="none" height="6" style="stroke:#C82930;stroke-width:1.0;" width="6" x="15" y="494.4316"/><text fill="#000000" font-family="sans-serif" font-size="14" lengthAdjust="spacing" textLength="110" x="27" y="501.7285">__address: string</text><rect fill="none" height="6" style="stroke:#C82930;stroke-width:1.0;" width="6" x="15" y="513.0527"/><text fill="#000000" font-family="sans-serif" font-size="14" lengthAdjust="spacing" textLength="80" x="27" y="520.3496">__city: string</text><rect fill="none" height="6" style="stroke:#C82930;stroke-width:1.0;" width="6" x="15" y="531.6738"/><text fill="#000000" font-family="sans-serif" font-size="14" lengthAdjust="spacing" textLength="116" x="27" y="538.9707">__postal_code: int</text><rect fill="none" height="6" style="stroke:#C82930;stroke-width:1.0;" width="6" x="15" y="550.2949"/><text fill="#000000" font-family="sans-serif" font-size="14" lengthAdjust="spacing" textLength="106" x="27" y="557.5918">__country: string</text><rect fill="none" height="6" style="stroke:#C82930;stroke-width:1.0;" width="6" x="15" y="568.916"/><text fill="#000000" font-family="sans-serif" font-size="14" lengthAdjust="spacing" textLength="152" x="27" y="576.2129">__date_joined: datetime</text><line style="stroke:#181818;stroke-width:0.5;" x1="8" x2="468" y1="583.7266" y2="583.7266"/><ellipse cx="18" cy="598.5371" fill="#84BE84" rx="3" ry="3" style="stroke:#038048;stroke-width:1.0;"/><text fill="#000000" font-family="sans-serif" font-size="14" lengthAdjust="spacing" textLength="177" x="27" y="602.834">get_phone_number(): string</text><ellipse cx="18" cy="617.1582" fill="#84BE84" rx="3" ry="3" style="stroke:#038048;stroke-width:1.0;"/><text fill="#000000" font-family="sans-serif" font-size="14" lengthAdjust="spacing" textLength="132" x="27" y="621.4551">get_address(): string</text><ellipse cx="18" cy="635.7793" fill="#84BE84" rx="3" ry="3" style="stroke:#038048;stroke-width:1.0;"/><text fill="#000000" font-family="sans-serif" font-size="14" lengthAdjust="spacing" textLength="102" x="27" y="640.0762">get_city(): string</text><ellipse cx="18" cy="654.4004" fill="#84BE84" rx="3" ry="3" style="stroke:#038048;stroke-width:1.0;"/><text fill="#000000" font-family="sans-serif" font-size="14" lengthAdjust="spacing" textLength="138" x="27" y="658.6973">get_postal_code(): int</text><ellipse cx="18" cy="673.0215" fill="#84BE84" rx="3" ry="3" style="stroke:#038048;stroke-width:1.0;"/><text fill="#000000" font-family="sans-serif" font-size="14" lengthAdjust="spacing" textLength="128" x="27" y="677.3184">get_country(): string</text><ellipse cx="18" cy="691.6426" fill="#84BE84" rx="3" ry="3" style="stroke:#038048;stroke-width:1.0;"/><text fill="#000000" font-family="sans-serif" font-size="14" lengthAdjust="spacing" textLength="174" x="27" y="695.9395">get_date_joined(): datetime</text><ellipse cx="18" cy="710.2637" fill="#84BE84" rx="3" ry="3" style="stroke:#038048;stroke-width:1.0;"/><text fill="#000000" font-family="sans-serif" font-size="14" lengthAdjust="spacing" textLength="306" x="27" y="714.5605">set_phone_number(phone_number: string): void</text><ellipse cx="18" cy="728.8848" fill="#84BE84" rx="3" ry="3" style="stroke:#038048;stroke-width:1.0;"/><text fill="#000000" font-family="sans-serif" font-size="14" lengthAdjust="spacing" textLength="216" x="27" y="733.1816">set_address(address: string): void</text><ellipse cx="18" cy="747.5059" fill="#84BE84" rx="3" ry="3" style="stroke:#038048;stroke-width:1.0;"/><text fill="#000000" font-family="sans-serif" font-size="14" lengthAdjust="spacing" textLength="156" x="27" y="751.8027">set_city(city: string): void</text><ellipse cx="18" cy="766.127" fill="#84BE84" rx="3" ry="3" style="stroke:#038048;stroke-width:1.0;"/><text fill="#000000" font-family="sans-serif" font-size="14" lengthAdjust="spacing" textLength="248" x="27" y="770.4238">set_postal_code(postal_code: int): void</text><ellipse cx="18" cy="784.748" fill="#84BE84" rx="3" ry="3" style="stroke:#038048;stroke-width:1.0;"/><text fill="#000000" font-family="sans-serif" font-size="14" lengthAdjust="spacing" textLength="208" x="27" y="789.0449">set_country(country: string): void</text><ellipse cx="18" cy="803.3691" fill="#84BE84" rx="3" ry="3" style="stroke:#038048;stroke-width:1.0;"/><text fill="#000000" font-family="sans-serif" font-size="14" lengthAdjust="spacing" textLength="281" x="27" y="807.666">set_date_joined(date_joined: datetime): void</text><ellipse cx="18" cy="821.9902" fill="#84BE84" rx="3" ry="3" style="stroke:#038048;stroke-width:1.0;"/><text fill="#000000" font-family="sans-serif" font-size="14" lengthAdjust="spacing" textLength="116" x="27" y="826.2871">short_info(): string</text><ellipse cx="18" cy="840.6113" fill="#84BE84" rx="3" ry="3" style="stroke:#038048;stroke-width:1.0;"/><text fill="#000000" font-family="sans-serif" font-size="14" lengthAdjust="spacing" textLength="195" x="27" y="844.9082">__eq__(other: Customer): bool</text><ellipse cx="18" cy="859.2324" fill="#84BE84" rx="3" ry="3" style="stroke:#038048;stroke-width:1.0;"/><text fill="#000000" font-family="sans-serif" font-size="14" lengthAdjust="spacing" textLength="101" x="27" y="863.5293">__str__(): string</text><ellipse cx="18" cy="877.8535" fill="#84BE84" rx="3" ry="3" style="stroke:#038048;stroke-width:1.0;"/><text fill="#000000" font-family="sans-serif" font-size="14" lengthAdjust="spacing" textLength="245" x="27" y="882.1504">from_string(data_str: string): Customer</text><rect fill="#F24D5C" height="6" style="stroke:#C82930;stroke-width:1.0;" width="6" x="15" y="893.4746"/><text fill="#000000" font-family="sans-serif" font-size="14" lengthAdjust="spacing" textLength="361" x="27" y="900.7715">__validate_phone_number(phone_number: string): string</text><rect fill="#F24D5C" height="6" style="stroke:#C82930;stroke-width:1.0;" width="6" x="15" y="912.0957"/><text fill="#000000" font-family="sans-serif" font-size="14" lengthAdjust="spacing" textLength="436" x="27" y="919.3926">__validate_non_empty_string(value: string, field_name: string): string</text><rect fill="#F24D5C" height="6" style="stroke:#C82930;stroke-width:1.0;" width="6" x="15" y="930.7168"/><text fill="#000000" font-family="sans-serif" font-size="14" lengthAdjust="spacing" textLength="283" x="27" y="938.0137">__validate_postal_code(postal_code: int): int</text><rect fill="#F24D5C" height="6" style="stroke:#C82930;stroke-width:1.0;" width="6" x="15" y="949.3379"/><text fill="#000000" font-family="sans-serif" font-size="14" lengthAdjust="spacing" textLength="401" x="27" y="956.6348">__validate_date_joined(date_joined: string | datetime): datetime</text></g><!--reverse link CustomerShortInfo to Customer--><g id="link_CustomerShortInfo_Customer"><path codeLine="51" d="M238,390.28 C238,409.72 238,411.77 238,431.92 " fill="none" id="CustomerShortInfo-backto-Customer" style="stroke:#181818;stroke-width:1.0;"/><polygon fill="none" points="238,372.28,232,390.28,244,390.28,238,372.28" style="stroke:#181818;stroke-width:1.0;"/></g><!--SRC=[hLN1RiCW3BttApYssle3rMuxxRmFG3IGbYd17P1ArRf_7oI468TfFUpMs0_xlMTRRJhX77iTd8TUsVSpMFzcMc1V6yRsZFCcPRYM1wQDJ-5MM-Uv4RqwCEUjDgUK2EMgSTKBtQ7O4pifZwjlTtFzARLqY1doBdUfvCPE9ExAWcls0Nu5BJDuQR0IHA5Jlq8VXWJfdvnlmP-LFQoD3j0ZG9UWuNd0bjnR2psVlhTIU15_eqQhYidmg-XqWAjeBHtY3eyo0qUvH6anmuoiIqxOxyscAPOgxzBb32Qq6VgZigIqaD8gvqYqqVv6GXTmNdIy0QcmY0O6uoq5ZsG_G1iLTCSFhtkL5mNJgUnHebJ9H5gLCA96bpdHgpn256Es8EaeoPg1T1rdsiHH2XirO7yf0AkXfg-A9Nba2XI6jLP7Kpo8-ynrM6ZYMlsW_ksEwAu_Ce3wbHWmuL8k_ZPt3PaX7zSpQxNg97_euFuOHkMOV_LwQi3ksFIyTU5srty5B_VzVh7d1m00]--></g></svg>